%TF.GenerationSoftware,KiCad,Pcbnew,9.0.7*%
%TF.CreationDate,2026-01-28T18:20:07-05:00*%
%TF.ProjectId,DIPSTICKPRO_2354,44495053-5449-4434-9b50-524f5f323335,0*%
%TF.SameCoordinates,Original*%
%TF.FileFunction,Legend,Top*%
%TF.FilePolarity,Positive*%
%FSLAX46Y46*%
G04 Gerber Fmt 4.6, Leading zero omitted, Abs format (unit mm)*
G04 Created by KiCad (PCBNEW 9.0.7) date 2026-01-28 18:20:07*
%MOMM*%
%LPD*%
G01*
G04 APERTURE LIST*
%ADD10C,0.150000*%
%ADD11C,0.120000*%
%ADD12C,0.191421*%
%ADD13C,0.203200*%
G04 APERTURE END LIST*
D10*
X-72024888Y44138991D02*
X-71882031Y44091372D01*
X-71882031Y44091372D02*
X-71834412Y44043753D01*
X-71834412Y44043753D02*
X-71786793Y43948515D01*
X-71786793Y43948515D02*
X-71786793Y43805658D01*
X-71786793Y43805658D02*
X-71834412Y43710420D01*
X-71834412Y43710420D02*
X-71882031Y43662800D01*
X-71882031Y43662800D02*
X-71977269Y43615181D01*
X-71977269Y43615181D02*
X-72358221Y43615181D01*
X-72358221Y43615181D02*
X-72358221Y44615181D01*
X-72358221Y44615181D02*
X-72024888Y44615181D01*
X-72024888Y44615181D02*
X-71929650Y44567562D01*
X-71929650Y44567562D02*
X-71882031Y44519943D01*
X-71882031Y44519943D02*
X-71834412Y44424705D01*
X-71834412Y44424705D02*
X-71834412Y44329467D01*
X-71834412Y44329467D02*
X-71882031Y44234229D01*
X-71882031Y44234229D02*
X-71929650Y44186610D01*
X-71929650Y44186610D02*
X-72024888Y44138991D01*
X-72024888Y44138991D02*
X-72358221Y44138991D01*
X-59086793Y43615181D02*
X-59420126Y44091372D01*
X-59658221Y43615181D02*
X-59658221Y44615181D01*
X-59658221Y44615181D02*
X-59277269Y44615181D01*
X-59277269Y44615181D02*
X-59182031Y44567562D01*
X-59182031Y44567562D02*
X-59134412Y44519943D01*
X-59134412Y44519943D02*
X-59086793Y44424705D01*
X-59086793Y44424705D02*
X-59086793Y44281848D01*
X-59086793Y44281848D02*
X-59134412Y44186610D01*
X-59134412Y44186610D02*
X-59182031Y44138991D01*
X-59182031Y44138991D02*
X-59277269Y44091372D01*
X-59277269Y44091372D02*
X-59658221Y44091372D01*
D11*
%TO.C,C15*%
X-70435000Y53892836D02*
X-70435000Y53677164D01*
X-71155000Y53892836D02*
X-71155000Y53677164D01*
%TO.C,R1*%
X-63425000Y67133641D02*
X-63425000Y66826359D01*
X-64185000Y67133641D02*
X-64185000Y66826359D01*
%TO.C,U2*%
X-68300000Y62115000D02*
X-68630000Y62355000D01*
X-68300000Y62595000D01*
X-68300000Y62115000D01*
G36*
X-68300000Y62115000D02*
G01*
X-68630000Y62355000D01*
X-68300000Y62595000D01*
X-68300000Y62115000D01*
G37*
X-66690000Y62895000D02*
X-66740000Y62895000D01*
X-66690000Y64715000D02*
X-66690000Y62895000D01*
X-67690000Y64715000D02*
X-66690000Y64715000D01*
X-67860000Y62895000D02*
X-68640000Y62895000D01*
X-69760000Y62895000D02*
X-69810000Y62895000D01*
X-69810000Y62895000D02*
X-69810000Y64715000D01*
X-69810000Y64715000D02*
X-68810000Y64715000D01*
%TO.C,C12*%
X-65602164Y60905000D02*
X-65817836Y60905000D01*
X-65602164Y61625000D02*
X-65817836Y61625000D01*
%TO.C,C14*%
X-60270000Y53752836D02*
X-60270000Y53537164D01*
X-60990000Y53752836D02*
X-60990000Y53537164D01*
%TO.C,C16*%
X-63062164Y50745000D02*
X-63277836Y50745000D01*
X-63062164Y51465000D02*
X-63277836Y51465000D01*
%TO.C,R7*%
X-65965000Y67133641D02*
X-65965000Y66826359D01*
X-66725000Y67133641D02*
X-66725000Y66826359D01*
%TO.C,C1*%
X-70430000Y63912836D02*
X-70430000Y63697164D01*
X-71150000Y63912836D02*
X-71150000Y63697164D01*
%TO.C,C13*%
X-70435000Y58692836D02*
X-70435000Y58477164D01*
X-71155000Y58692836D02*
X-71155000Y58477164D01*
%TO.C,R8*%
X-64695000Y67133641D02*
X-64695000Y66826359D01*
X-65455000Y67133641D02*
X-65455000Y66826359D01*
%TO.C,U1*%
X-62100000Y52575000D02*
X-62100000Y53025000D01*
X-62100000Y59795000D02*
X-62100000Y59345000D01*
X-62550000Y52575000D02*
X-62100000Y52575000D01*
X-62550000Y59795000D02*
X-62100000Y59795000D01*
X-68870000Y52575000D02*
X-69320000Y52575000D01*
X-68870000Y59795000D02*
X-69320000Y59795000D01*
X-69320000Y52575000D02*
X-69320000Y53025000D01*
%TO.C,C17*%
X-60270000Y58832836D02*
X-60270000Y58617164D01*
X-60990000Y58832836D02*
X-60990000Y58617164D01*
%TO.C,L1*%
D12*
X-64514290Y64685000D02*
G75*
G02*
X-64705710Y64685000I-95710J0D01*
G01*
X-64705710Y64685000D02*
G75*
G02*
X-64514290Y64685000I95710J0D01*
G01*
D11*
%TO.C,C9*%
X-61540000Y61372836D02*
X-61540000Y61157164D01*
X-62260000Y61372836D02*
X-62260000Y61157164D01*
%TO.C,R4*%
X-60476359Y50725000D02*
X-60783641Y50725000D01*
X-60476359Y51485000D02*
X-60783641Y51485000D01*
%TO.C,SW1*%
X-68505000Y45195000D02*
X-68505000Y49395000D01*
X-68505000Y49395000D02*
X-68895000Y49395000D01*
X-68895000Y45195000D02*
X-68505000Y45195000D01*
X-71415000Y45195000D02*
X-71805000Y45195000D01*
X-71805000Y45195000D02*
X-71805000Y49395000D01*
X-71805000Y49395000D02*
X-71415000Y49395000D01*
%TO.C,R3*%
X-67235000Y67133641D02*
X-67235000Y66826359D01*
X-67995000Y67133641D02*
X-67995000Y66826359D01*
%TO.C,R5*%
X-61520000Y63323641D02*
X-61520000Y63016359D01*
X-62280000Y63323641D02*
X-62280000Y63016359D01*
%TO.C,Y1*%
X-67710000Y44375000D02*
X-63710000Y44375000D01*
X-67710000Y47675000D02*
X-67710000Y44375000D01*
%TO.C,R2*%
X-64593641Y49455000D02*
X-64286359Y49455000D01*
X-64593641Y50215000D02*
X-64286359Y50215000D01*
D13*
%TO.C,J2*%
X-61390000Y70460000D02*
X-61390000Y72260000D01*
X-70030000Y70460000D02*
X-70030000Y72260000D01*
D11*
%TO.C,C10*%
X-65817836Y50745000D02*
X-65602164Y50745000D01*
X-65817836Y51465000D02*
X-65602164Y51465000D01*
%TO.C,C3*%
X-67087836Y48205000D02*
X-66872164Y48205000D01*
X-67087836Y48925000D02*
X-66872164Y48925000D01*
%TO.C,C8*%
X-70430000Y56292836D02*
X-70430000Y56077164D01*
X-71150000Y56292836D02*
X-71150000Y56077164D01*
%TO.C,R6*%
X-70943641Y50725000D02*
X-70636359Y50725000D01*
X-70943641Y51485000D02*
X-70636359Y51485000D01*
%TO.C,C18*%
X-68142164Y50745000D02*
X-68357836Y50745000D01*
X-68142164Y51465000D02*
X-68357836Y51465000D01*
%TO.C,SW2*%
X-59615000Y45195000D02*
X-60005000Y45195000D01*
X-59615000Y49395000D02*
X-59615000Y45195000D01*
X-60005000Y49395000D02*
X-59615000Y49395000D01*
X-62525000Y49395000D02*
X-62915000Y49395000D01*
X-62915000Y45195000D02*
X-62525000Y45195000D01*
X-62915000Y49395000D02*
X-62915000Y45195000D01*
%TO.C,C11*%
X-60270000Y56292836D02*
X-60270000Y56077164D01*
X-60990000Y56292836D02*
X-60990000Y56077164D01*
%TO.C,C4*%
X-64332164Y48205000D02*
X-64547836Y48205000D01*
X-64332164Y48925000D02*
X-64547836Y48925000D01*
%TD*%
%LPC*%
G36*
X-70782757Y43693021D02*
G01*
X-70781470Y43692871D01*
X-70781461Y43692870D01*
X-70608695Y43672675D01*
X-70608689Y43672674D01*
X-70606348Y43672400D01*
X-70594913Y43669829D01*
X-70592674Y43669072D01*
X-70592670Y43669071D01*
X-70428331Y43613506D01*
X-70428326Y43613504D01*
X-70426094Y43612749D01*
X-70415444Y43607853D01*
X-70262205Y43516883D01*
X-70252808Y43509878D01*
X-70251079Y43508282D01*
X-70251075Y43508279D01*
X-70174543Y43437634D01*
X-70121861Y43389004D01*
X-70114128Y43380196D01*
X-70011209Y43234712D01*
X-70005478Y43224488D01*
X-69935097Y43060768D01*
X-69931621Y43049575D01*
X-69896876Y42874875D01*
X-69895800Y42863951D01*
X-69895800Y42861745D01*
X-69895800Y41728308D01*
X-69894288Y41720701D01*
X-69832103Y41570575D01*
X-69793820Y41378115D01*
X-69793820Y41181885D01*
X-69832103Y40989425D01*
X-69907197Y40808132D01*
X-70016217Y40644972D01*
X-70154972Y40506217D01*
X-70318132Y40397197D01*
X-70499425Y40322103D01*
X-70691885Y40283820D01*
X-70888115Y40283820D01*
X-71080575Y40322103D01*
X-71261868Y40397197D01*
X-71425028Y40506217D01*
X-71563783Y40644972D01*
X-71672803Y40808132D01*
X-71747897Y40989425D01*
X-71786180Y41181885D01*
X-71786180Y41378115D01*
X-71747897Y41570575D01*
X-71685713Y41720701D01*
X-71684200Y41728308D01*
X-71684200Y42861851D01*
X-71684200Y42863803D01*
X-71683363Y42873447D01*
X-71683029Y42875360D01*
X-71683028Y42875367D01*
X-71652918Y43047596D01*
X-71652916Y43047605D01*
X-71652496Y43050004D01*
X-71649117Y43061677D01*
X-71648185Y43063942D01*
X-71581712Y43225418D01*
X-71581709Y43225425D01*
X-71580780Y43227680D01*
X-71574962Y43238349D01*
X-71573572Y43240347D01*
X-71573563Y43240363D01*
X-71473828Y43383689D01*
X-71473821Y43383698D01*
X-71472425Y43385703D01*
X-71464443Y43394866D01*
X-71332531Y43516630D01*
X-71322760Y43523855D01*
X-71320652Y43525085D01*
X-71320643Y43525091D01*
X-71169805Y43613062D01*
X-71169796Y43613067D01*
X-71167687Y43614296D01*
X-71156587Y43619243D01*
X-71154262Y43619990D01*
X-71154251Y43619994D01*
X-70987994Y43673353D01*
X-70987980Y43673356D01*
X-70985655Y43674102D01*
X-70973749Y43676538D01*
X-70971312Y43676766D01*
X-70971310Y43676766D01*
X-70796840Y43693060D01*
X-70796836Y43693061D01*
X-70795799Y43693157D01*
X-70790592Y43693400D01*
X-70789259Y43693400D01*
X-70782757Y43693021D01*
G37*
G36*
X-68242757Y43693021D02*
G01*
X-68241470Y43692871D01*
X-68241461Y43692870D01*
X-68068695Y43672675D01*
X-68068689Y43672674D01*
X-68066348Y43672400D01*
X-68054913Y43669829D01*
X-68052674Y43669072D01*
X-68052670Y43669071D01*
X-67888331Y43613506D01*
X-67888326Y43613504D01*
X-67886094Y43612749D01*
X-67875444Y43607853D01*
X-67722205Y43516883D01*
X-67712808Y43509878D01*
X-67711079Y43508282D01*
X-67711075Y43508279D01*
X-67634543Y43437634D01*
X-67581861Y43389004D01*
X-67574128Y43380196D01*
X-67471209Y43234712D01*
X-67465478Y43224488D01*
X-67395097Y43060768D01*
X-67391621Y43049575D01*
X-67356876Y42874875D01*
X-67355800Y42863951D01*
X-67355800Y42861745D01*
X-67355800Y41728308D01*
X-67354288Y41720701D01*
X-67292103Y41570575D01*
X-67253820Y41378115D01*
X-67253820Y41181885D01*
X-67292103Y40989425D01*
X-67367197Y40808132D01*
X-67476217Y40644972D01*
X-67614972Y40506217D01*
X-67778132Y40397197D01*
X-67959425Y40322103D01*
X-68151885Y40283820D01*
X-68348115Y40283820D01*
X-68540575Y40322103D01*
X-68721868Y40397197D01*
X-68885028Y40506217D01*
X-69023783Y40644972D01*
X-69132803Y40808132D01*
X-69207897Y40989425D01*
X-69246180Y41181885D01*
X-69246180Y41378115D01*
X-69207897Y41570575D01*
X-69145713Y41720701D01*
X-69144200Y41728308D01*
X-69144200Y42861851D01*
X-69144200Y42863803D01*
X-69143363Y42873447D01*
X-69143029Y42875360D01*
X-69143028Y42875367D01*
X-69112918Y43047596D01*
X-69112916Y43047605D01*
X-69112496Y43050004D01*
X-69109117Y43061677D01*
X-69108185Y43063942D01*
X-69041712Y43225418D01*
X-69041709Y43225425D01*
X-69040780Y43227680D01*
X-69034962Y43238349D01*
X-69033572Y43240347D01*
X-69033563Y43240363D01*
X-68933828Y43383689D01*
X-68933821Y43383698D01*
X-68932425Y43385703D01*
X-68924443Y43394866D01*
X-68792531Y43516630D01*
X-68782760Y43523855D01*
X-68780652Y43525085D01*
X-68780643Y43525091D01*
X-68629805Y43613062D01*
X-68629796Y43613067D01*
X-68627687Y43614296D01*
X-68616587Y43619243D01*
X-68614262Y43619990D01*
X-68614251Y43619994D01*
X-68447994Y43673353D01*
X-68447980Y43673356D01*
X-68445655Y43674102D01*
X-68433749Y43676538D01*
X-68431312Y43676766D01*
X-68431310Y43676766D01*
X-68256840Y43693060D01*
X-68256836Y43693061D01*
X-68255799Y43693157D01*
X-68250592Y43693400D01*
X-68249259Y43693400D01*
X-68242757Y43693021D01*
G37*
G36*
X-65702757Y43693021D02*
G01*
X-65701470Y43692871D01*
X-65701461Y43692870D01*
X-65528695Y43672675D01*
X-65528689Y43672674D01*
X-65526348Y43672400D01*
X-65514913Y43669829D01*
X-65512674Y43669072D01*
X-65512670Y43669071D01*
X-65348331Y43613506D01*
X-65348326Y43613504D01*
X-65346094Y43612749D01*
X-65335444Y43607853D01*
X-65182205Y43516883D01*
X-65172808Y43509878D01*
X-65171079Y43508282D01*
X-65171075Y43508279D01*
X-65094543Y43437634D01*
X-65041861Y43389004D01*
X-65034128Y43380196D01*
X-64931209Y43234712D01*
X-64925478Y43224488D01*
X-64855097Y43060768D01*
X-64851621Y43049575D01*
X-64816876Y42874875D01*
X-64815800Y42863951D01*
X-64815800Y42861745D01*
X-64815800Y41728308D01*
X-64814288Y41720701D01*
X-64752103Y41570575D01*
X-64713820Y41378115D01*
X-64713820Y41181885D01*
X-64752103Y40989425D01*
X-64827197Y40808132D01*
X-64936217Y40644972D01*
X-65074972Y40506217D01*
X-65238132Y40397197D01*
X-65419425Y40322103D01*
X-65611885Y40283820D01*
X-65808115Y40283820D01*
X-66000575Y40322103D01*
X-66181868Y40397197D01*
X-66345028Y40506217D01*
X-66483783Y40644972D01*
X-66592803Y40808132D01*
X-66667897Y40989425D01*
X-66706180Y41181885D01*
X-66706180Y41378115D01*
X-66667897Y41570575D01*
X-66605713Y41720701D01*
X-66604200Y41728308D01*
X-66604200Y42861851D01*
X-66604200Y42863803D01*
X-66603363Y42873447D01*
X-66603029Y42875360D01*
X-66603028Y42875367D01*
X-66572918Y43047596D01*
X-66572916Y43047605D01*
X-66572496Y43050004D01*
X-66569117Y43061677D01*
X-66568185Y43063942D01*
X-66501712Y43225418D01*
X-66501709Y43225425D01*
X-66500780Y43227680D01*
X-66494962Y43238349D01*
X-66493572Y43240347D01*
X-66493563Y43240363D01*
X-66393828Y43383689D01*
X-66393821Y43383698D01*
X-66392425Y43385703D01*
X-66384443Y43394866D01*
X-66252531Y43516630D01*
X-66242760Y43523855D01*
X-66240652Y43525085D01*
X-66240643Y43525091D01*
X-66089805Y43613062D01*
X-66089796Y43613067D01*
X-66087687Y43614296D01*
X-66076587Y43619243D01*
X-66074262Y43619990D01*
X-66074251Y43619994D01*
X-65907994Y43673353D01*
X-65907980Y43673356D01*
X-65905655Y43674102D01*
X-65893749Y43676538D01*
X-65891312Y43676766D01*
X-65891310Y43676766D01*
X-65716840Y43693060D01*
X-65716836Y43693061D01*
X-65715799Y43693157D01*
X-65710592Y43693400D01*
X-65709259Y43693400D01*
X-65702757Y43693021D01*
G37*
G36*
X-63162757Y43693021D02*
G01*
X-63161470Y43692871D01*
X-63161461Y43692870D01*
X-62988695Y43672675D01*
X-62988689Y43672674D01*
X-62986348Y43672400D01*
X-62974913Y43669829D01*
X-62972674Y43669072D01*
X-62972670Y43669071D01*
X-62808331Y43613506D01*
X-62808326Y43613504D01*
X-62806094Y43612749D01*
X-62795444Y43607853D01*
X-62642205Y43516883D01*
X-62632808Y43509878D01*
X-62631079Y43508282D01*
X-62631075Y43508279D01*
X-62554543Y43437634D01*
X-62501861Y43389004D01*
X-62494128Y43380196D01*
X-62391209Y43234712D01*
X-62385478Y43224488D01*
X-62315097Y43060768D01*
X-62311621Y43049575D01*
X-62276876Y42874875D01*
X-62275800Y42863951D01*
X-62275800Y42861745D01*
X-62275800Y41728308D01*
X-62274288Y41720701D01*
X-62212103Y41570575D01*
X-62173820Y41378115D01*
X-62173820Y41181885D01*
X-62212103Y40989425D01*
X-62287197Y40808132D01*
X-62396217Y40644972D01*
X-62534972Y40506217D01*
X-62698132Y40397197D01*
X-62879425Y40322103D01*
X-63071885Y40283820D01*
X-63268115Y40283820D01*
X-63460575Y40322103D01*
X-63641868Y40397197D01*
X-63805028Y40506217D01*
X-63943783Y40644972D01*
X-64052803Y40808132D01*
X-64127897Y40989425D01*
X-64166180Y41181885D01*
X-64166180Y41378115D01*
X-64127897Y41570575D01*
X-64065713Y41720701D01*
X-64064200Y41728308D01*
X-64064200Y42861851D01*
X-64064200Y42863803D01*
X-64063363Y42873447D01*
X-64063029Y42875360D01*
X-64063028Y42875367D01*
X-64032918Y43047596D01*
X-64032916Y43047605D01*
X-64032496Y43050004D01*
X-64029117Y43061677D01*
X-64028185Y43063942D01*
X-63961712Y43225418D01*
X-63961709Y43225425D01*
X-63960780Y43227680D01*
X-63954962Y43238349D01*
X-63953572Y43240347D01*
X-63953563Y43240363D01*
X-63853828Y43383689D01*
X-63853821Y43383698D01*
X-63852425Y43385703D01*
X-63844443Y43394866D01*
X-63712531Y43516630D01*
X-63702760Y43523855D01*
X-63700652Y43525085D01*
X-63700643Y43525091D01*
X-63549805Y43613062D01*
X-63549796Y43613067D01*
X-63547687Y43614296D01*
X-63536587Y43619243D01*
X-63534262Y43619990D01*
X-63534251Y43619994D01*
X-63367994Y43673353D01*
X-63367980Y43673356D01*
X-63365655Y43674102D01*
X-63353749Y43676538D01*
X-63351312Y43676766D01*
X-63351310Y43676766D01*
X-63176840Y43693060D01*
X-63176836Y43693061D01*
X-63175799Y43693157D01*
X-63170592Y43693400D01*
X-63169259Y43693400D01*
X-63162757Y43693021D01*
G37*
G36*
X-60622757Y43693021D02*
G01*
X-60621470Y43692871D01*
X-60621461Y43692870D01*
X-60448695Y43672675D01*
X-60448689Y43672674D01*
X-60446348Y43672400D01*
X-60434913Y43669829D01*
X-60432674Y43669072D01*
X-60432670Y43669071D01*
X-60268331Y43613506D01*
X-60268326Y43613504D01*
X-60266094Y43612749D01*
X-60255444Y43607853D01*
X-60102205Y43516883D01*
X-60092808Y43509878D01*
X-60091079Y43508282D01*
X-60091075Y43508279D01*
X-60014543Y43437634D01*
X-59961861Y43389004D01*
X-59954128Y43380196D01*
X-59851209Y43234712D01*
X-59845478Y43224488D01*
X-59775097Y43060768D01*
X-59771621Y43049575D01*
X-59736876Y42874875D01*
X-59735800Y42863951D01*
X-59735800Y42861745D01*
X-59735800Y41728308D01*
X-59734288Y41720701D01*
X-59672103Y41570575D01*
X-59633820Y41378115D01*
X-59633820Y41181885D01*
X-59672103Y40989425D01*
X-59747197Y40808132D01*
X-59856217Y40644972D01*
X-59994972Y40506217D01*
X-60158132Y40397197D01*
X-60339425Y40322103D01*
X-60531885Y40283820D01*
X-60728115Y40283820D01*
X-60920575Y40322103D01*
X-61101868Y40397197D01*
X-61265028Y40506217D01*
X-61403783Y40644972D01*
X-61512803Y40808132D01*
X-61587897Y40989425D01*
X-61626180Y41181885D01*
X-61626180Y41378115D01*
X-61587897Y41570575D01*
X-61525713Y41720701D01*
X-61524200Y41728308D01*
X-61524200Y42861851D01*
X-61524200Y42863803D01*
X-61523363Y42873447D01*
X-61523029Y42875360D01*
X-61523028Y42875367D01*
X-61492918Y43047596D01*
X-61492916Y43047605D01*
X-61492496Y43050004D01*
X-61489117Y43061677D01*
X-61488185Y43063942D01*
X-61421712Y43225418D01*
X-61421709Y43225425D01*
X-61420780Y43227680D01*
X-61414962Y43238349D01*
X-61413572Y43240347D01*
X-61413563Y43240363D01*
X-61313828Y43383689D01*
X-61313821Y43383698D01*
X-61312425Y43385703D01*
X-61304443Y43394866D01*
X-61172531Y43516630D01*
X-61162760Y43523855D01*
X-61160652Y43525085D01*
X-61160643Y43525091D01*
X-61009805Y43613062D01*
X-61009796Y43613067D01*
X-61007687Y43614296D01*
X-60996587Y43619243D01*
X-60994262Y43619990D01*
X-60994251Y43619994D01*
X-60827994Y43673353D01*
X-60827980Y43673356D01*
X-60825655Y43674102D01*
X-60813749Y43676538D01*
X-60811312Y43676766D01*
X-60811310Y43676766D01*
X-60636840Y43693060D01*
X-60636836Y43693061D01*
X-60635799Y43693157D01*
X-60630592Y43693400D01*
X-60629259Y43693400D01*
X-60622757Y43693021D01*
G37*
G36*
X-74632900Y43736466D02*
G01*
X-74615048Y43740381D01*
X-74613508Y43741500D01*
X-74602192Y43743293D01*
X-74600000Y43744200D01*
X-73316197Y43744200D01*
X-73306553Y43743363D01*
X-73304640Y43743029D01*
X-73304634Y43743028D01*
X-73132405Y43712918D01*
X-73132398Y43712916D01*
X-73129996Y43712496D01*
X-73118323Y43709117D01*
X-73116060Y43708186D01*
X-73116059Y43708185D01*
X-72954583Y43641712D01*
X-72954580Y43641711D01*
X-72952320Y43640780D01*
X-72941651Y43634962D01*
X-72939650Y43633570D01*
X-72939638Y43633563D01*
X-72796312Y43533828D01*
X-72796308Y43533824D01*
X-72794297Y43532425D01*
X-72785134Y43524443D01*
X-72663370Y43392531D01*
X-72656145Y43382760D01*
X-72654912Y43380646D01*
X-72654910Y43380643D01*
X-72573097Y43240363D01*
X-72565704Y43227687D01*
X-72560757Y43216587D01*
X-72560009Y43214254D01*
X-72560007Y43214251D01*
X-72506648Y43047994D01*
X-72506647Y43047989D01*
X-72505898Y43045655D01*
X-72503462Y43033749D01*
X-72486843Y42855799D01*
X-72486600Y42850592D01*
X-72486600Y42849259D01*
X-72486979Y42842757D01*
X-72507600Y42666348D01*
X-72510171Y42654913D01*
X-72567251Y42486094D01*
X-72572147Y42475444D01*
X-72663117Y42322205D01*
X-72670122Y42312808D01*
X-72790996Y42181861D01*
X-72799804Y42174128D01*
X-72945288Y42071209D01*
X-72955512Y42065478D01*
X-73119232Y41995097D01*
X-73130425Y41991621D01*
X-73305125Y41956876D01*
X-73316049Y41955800D01*
X-73318255Y41955800D01*
X-74592873Y41955800D01*
X-74600000Y41955800D01*
X-74619683Y41963953D01*
X-74629113Y41964509D01*
X-74630167Y41964300D01*
X-74631196Y41963873D01*
X-74809236Y41928459D01*
X-74990764Y41928459D01*
X-75168804Y41963873D01*
X-75336513Y42033341D01*
X-75487448Y42134192D01*
X-75615808Y42262552D01*
X-75716659Y42413487D01*
X-75786127Y42581196D01*
X-75821541Y42759236D01*
X-75821541Y42940764D01*
X-75786127Y43118804D01*
X-75716659Y43286513D01*
X-75615808Y43437448D01*
X-75487448Y43565808D01*
X-75336513Y43666659D01*
X-75168804Y43736127D01*
X-74990764Y43771541D01*
X-74809236Y43771541D01*
X-74632900Y43736466D01*
G37*
G36*
X-56251196Y43736127D02*
G01*
X-56083487Y43666659D01*
X-55932552Y43565808D01*
X-55804192Y43437448D01*
X-55703341Y43286513D01*
X-55633873Y43118804D01*
X-55598459Y42940764D01*
X-55598459Y42759236D01*
X-55633873Y42581196D01*
X-55703341Y42413487D01*
X-55804192Y42262552D01*
X-55932552Y42134192D01*
X-56083487Y42033341D01*
X-56251196Y41963873D01*
X-56429236Y41928459D01*
X-56610764Y41928459D01*
X-56787109Y41963536D01*
X-56804967Y41959615D01*
X-56806504Y41958499D01*
X-56817807Y41956709D01*
X-56820000Y41955800D01*
X-56823541Y41955800D01*
X-58101745Y41955800D01*
X-58103951Y41955800D01*
X-58114875Y41956876D01*
X-58289575Y41991621D01*
X-58300768Y41995097D01*
X-58464488Y42065478D01*
X-58474712Y42071209D01*
X-58620196Y42174128D01*
X-58629004Y42181861D01*
X-58677634Y42234543D01*
X-58748279Y42311075D01*
X-58748282Y42311079D01*
X-58749878Y42312808D01*
X-58756883Y42322205D01*
X-58847853Y42475444D01*
X-58852749Y42486094D01*
X-58853504Y42488326D01*
X-58853506Y42488331D01*
X-58909071Y42652670D01*
X-58909072Y42652674D01*
X-58909829Y42654913D01*
X-58912400Y42666348D01*
X-58912674Y42668689D01*
X-58912675Y42668695D01*
X-58932870Y42841461D01*
X-58932871Y42841470D01*
X-58933021Y42842757D01*
X-58933400Y42849259D01*
X-58933400Y42850592D01*
X-58933157Y42855799D01*
X-58932409Y42863803D01*
X-58916766Y43031310D01*
X-58916766Y43031312D01*
X-58916538Y43033749D01*
X-58914102Y43045655D01*
X-58913356Y43047980D01*
X-58913353Y43047994D01*
X-58859994Y43214251D01*
X-58859990Y43214262D01*
X-58859243Y43216587D01*
X-58854296Y43227687D01*
X-58853067Y43229796D01*
X-58853062Y43229805D01*
X-58765091Y43380643D01*
X-58765085Y43380652D01*
X-58763855Y43382760D01*
X-58756630Y43392531D01*
X-58648311Y43509878D01*
X-58636525Y43522646D01*
X-58636524Y43522648D01*
X-58634866Y43524443D01*
X-58625703Y43532425D01*
X-58623698Y43533821D01*
X-58623689Y43533828D01*
X-58480363Y43633563D01*
X-58480347Y43633572D01*
X-58478349Y43634962D01*
X-58467680Y43640780D01*
X-58465425Y43641709D01*
X-58465418Y43641712D01*
X-58303942Y43708185D01*
X-58303939Y43708186D01*
X-58301677Y43709117D01*
X-58290004Y43712496D01*
X-58287605Y43712916D01*
X-58287596Y43712918D01*
X-58115367Y43743028D01*
X-58115360Y43743029D01*
X-58113447Y43743363D01*
X-58103803Y43744200D01*
X-56820000Y43744200D01*
X-56800321Y43736049D01*
X-56790887Y43735492D01*
X-56789829Y43735703D01*
X-56788804Y43736127D01*
X-56610764Y43771541D01*
X-56429236Y43771541D01*
X-56251196Y43736127D01*
G37*
G36*
X-74632900Y46276466D02*
G01*
X-74615048Y46280381D01*
X-74613508Y46281500D01*
X-74602192Y46283293D01*
X-74600000Y46284200D01*
X-73316197Y46284200D01*
X-73306553Y46283363D01*
X-73304640Y46283029D01*
X-73304634Y46283028D01*
X-73132405Y46252918D01*
X-73132398Y46252916D01*
X-73129996Y46252496D01*
X-73118323Y46249117D01*
X-73116060Y46248186D01*
X-73116059Y46248185D01*
X-72954583Y46181712D01*
X-72954580Y46181711D01*
X-72952320Y46180780D01*
X-72941651Y46174962D01*
X-72939650Y46173570D01*
X-72939638Y46173563D01*
X-72796312Y46073828D01*
X-72796308Y46073824D01*
X-72794297Y46072425D01*
X-72785134Y46064443D01*
X-72663370Y45932531D01*
X-72656145Y45922760D01*
X-72654912Y45920646D01*
X-72654910Y45920643D01*
X-72566939Y45769805D01*
X-72565704Y45767687D01*
X-72560757Y45756587D01*
X-72560009Y45754254D01*
X-72560007Y45754251D01*
X-72506648Y45587994D01*
X-72506647Y45587989D01*
X-72505898Y45585655D01*
X-72503462Y45573749D01*
X-72486843Y45395799D01*
X-72486600Y45390592D01*
X-72486600Y45389259D01*
X-72486979Y45382757D01*
X-72507600Y45206348D01*
X-72510171Y45194913D01*
X-72567251Y45026094D01*
X-72572147Y45015444D01*
X-72663117Y44862205D01*
X-72670122Y44852808D01*
X-72790996Y44721861D01*
X-72799804Y44714128D01*
X-72945288Y44611209D01*
X-72955512Y44605478D01*
X-73119232Y44535097D01*
X-73130425Y44531621D01*
X-73305125Y44496876D01*
X-73316049Y44495800D01*
X-73318255Y44495800D01*
X-74592873Y44495800D01*
X-74600000Y44495800D01*
X-74619683Y44503953D01*
X-74629113Y44504509D01*
X-74630167Y44504300D01*
X-74631196Y44503873D01*
X-74809236Y44468459D01*
X-74990764Y44468459D01*
X-75168804Y44503873D01*
X-75336513Y44573341D01*
X-75487448Y44674192D01*
X-75615808Y44802552D01*
X-75716659Y44953487D01*
X-75786127Y45121196D01*
X-75821541Y45299236D01*
X-75821541Y45480764D01*
X-75786127Y45658804D01*
X-75716659Y45826513D01*
X-75615808Y45977448D01*
X-75487448Y46105808D01*
X-75336513Y46206659D01*
X-75168804Y46276127D01*
X-74990764Y46311541D01*
X-74809236Y46311541D01*
X-74632900Y46276466D01*
G37*
G36*
X-56251196Y46276127D02*
G01*
X-56083487Y46206659D01*
X-55932552Y46105808D01*
X-55804192Y45977448D01*
X-55703341Y45826513D01*
X-55633873Y45658804D01*
X-55598459Y45480764D01*
X-55598459Y45299236D01*
X-55633873Y45121196D01*
X-55703341Y44953487D01*
X-55804192Y44802552D01*
X-55932552Y44674192D01*
X-56083487Y44573341D01*
X-56251196Y44503873D01*
X-56429236Y44468459D01*
X-56610764Y44468459D01*
X-56787109Y44503536D01*
X-56804967Y44499615D01*
X-56806504Y44498499D01*
X-56817807Y44496709D01*
X-56820000Y44495800D01*
X-56823541Y44495800D01*
X-58101745Y44495800D01*
X-58103951Y44495800D01*
X-58114875Y44496876D01*
X-58289575Y44531621D01*
X-58300768Y44535097D01*
X-58464488Y44605478D01*
X-58474712Y44611209D01*
X-58620196Y44714128D01*
X-58629004Y44721861D01*
X-58703616Y44802691D01*
X-58748279Y44851075D01*
X-58748282Y44851079D01*
X-58749878Y44852808D01*
X-58756883Y44862205D01*
X-58847853Y45015444D01*
X-58852749Y45026094D01*
X-58853504Y45028326D01*
X-58853506Y45028331D01*
X-58909071Y45192670D01*
X-58909072Y45192674D01*
X-58909829Y45194913D01*
X-58912400Y45206348D01*
X-58912674Y45208689D01*
X-58912675Y45208695D01*
X-58932870Y45381461D01*
X-58932871Y45381470D01*
X-58933021Y45382757D01*
X-58933400Y45389259D01*
X-58933400Y45390592D01*
X-58933157Y45395799D01*
X-58916538Y45573749D01*
X-58914102Y45585655D01*
X-58913356Y45587980D01*
X-58913353Y45587994D01*
X-58859994Y45754251D01*
X-58859990Y45754262D01*
X-58859243Y45756587D01*
X-58854296Y45767687D01*
X-58853067Y45769796D01*
X-58853062Y45769805D01*
X-58765091Y45920643D01*
X-58765085Y45920652D01*
X-58763855Y45922760D01*
X-58756630Y45932531D01*
X-58634866Y46064443D01*
X-58625703Y46072425D01*
X-58623698Y46073821D01*
X-58623689Y46073828D01*
X-58480363Y46173563D01*
X-58480347Y46173572D01*
X-58478349Y46174962D01*
X-58467680Y46180780D01*
X-58465425Y46181709D01*
X-58465418Y46181712D01*
X-58303942Y46248185D01*
X-58303939Y46248186D01*
X-58301677Y46249117D01*
X-58290004Y46252496D01*
X-58287605Y46252916D01*
X-58287596Y46252918D01*
X-58115367Y46283028D01*
X-58115360Y46283029D01*
X-58113447Y46283363D01*
X-58103803Y46284200D01*
X-56820000Y46284200D01*
X-56800321Y46276049D01*
X-56790887Y46275492D01*
X-56789829Y46275703D01*
X-56788804Y46276127D01*
X-56610764Y46311541D01*
X-56429236Y46311541D01*
X-56251196Y46276127D01*
G37*
G36*
X-69336086Y45638005D02*
G01*
X-69331355Y45635916D01*
X-69328189Y45635499D01*
X-69288558Y45617019D01*
X-69234894Y45593324D01*
X-69156676Y45515106D01*
X-69132972Y45461421D01*
X-69114502Y45421812D01*
X-69114086Y45418649D01*
X-69111995Y45413914D01*
X-69104000Y45345000D01*
X-69104000Y44795000D01*
X-69111995Y44726086D01*
X-69114086Y44721352D01*
X-69114502Y44718189D01*
X-69132964Y44678598D01*
X-69156676Y44624894D01*
X-69234894Y44546676D01*
X-69288598Y44522964D01*
X-69328189Y44504502D01*
X-69331352Y44504086D01*
X-69336086Y44501995D01*
X-69405000Y44494000D01*
X-70905000Y44494000D01*
X-70973914Y44501995D01*
X-70978649Y44504086D01*
X-70981812Y44504502D01*
X-71021421Y44522972D01*
X-71075106Y44546676D01*
X-71153324Y44624894D01*
X-71177019Y44678558D01*
X-71195499Y44718189D01*
X-71195916Y44721355D01*
X-71198005Y44726086D01*
X-71206000Y44795000D01*
X-71206000Y45345000D01*
X-71198005Y45413914D01*
X-71195916Y45418646D01*
X-71195499Y45421812D01*
X-71177011Y45461462D01*
X-71153324Y45515106D01*
X-71075106Y45593324D01*
X-71021462Y45617011D01*
X-70981812Y45635499D01*
X-70978646Y45635916D01*
X-70973914Y45638005D01*
X-70905000Y45646000D01*
X-69405000Y45646000D01*
X-69336086Y45638005D01*
G37*
G36*
X-60446086Y45638005D02*
G01*
X-60441355Y45635916D01*
X-60438189Y45635499D01*
X-60398558Y45617019D01*
X-60344894Y45593324D01*
X-60266676Y45515106D01*
X-60242972Y45461421D01*
X-60224502Y45421812D01*
X-60224086Y45418649D01*
X-60221995Y45413914D01*
X-60214000Y45345000D01*
X-60214000Y44795000D01*
X-60221995Y44726086D01*
X-60224086Y44721352D01*
X-60224502Y44718189D01*
X-60242964Y44678598D01*
X-60266676Y44624894D01*
X-60344894Y44546676D01*
X-60398598Y44522964D01*
X-60438189Y44504502D01*
X-60441352Y44504086D01*
X-60446086Y44501995D01*
X-60515000Y44494000D01*
X-62015000Y44494000D01*
X-62083914Y44501995D01*
X-62088649Y44504086D01*
X-62091812Y44504502D01*
X-62131421Y44522972D01*
X-62185106Y44546676D01*
X-62263324Y44624894D01*
X-62287019Y44678558D01*
X-62305499Y44718189D01*
X-62305916Y44721355D01*
X-62308005Y44726086D01*
X-62316000Y44795000D01*
X-62316000Y45345000D01*
X-62308005Y45413914D01*
X-62305916Y45418646D01*
X-62305499Y45421812D01*
X-62287011Y45461462D01*
X-62263324Y45515106D01*
X-62185106Y45593324D01*
X-62131462Y45617011D01*
X-62091812Y45635499D01*
X-62088646Y45635916D01*
X-62083914Y45638005D01*
X-62015000Y45646000D01*
X-60515000Y45646000D01*
X-60446086Y45638005D01*
G37*
G36*
X-66090483Y45822118D02*
G01*
X-66073938Y45811062D01*
X-66062882Y45794517D01*
X-66059000Y45775000D01*
X-66059000Y44575000D01*
X-66062882Y44555483D01*
X-66073938Y44538938D01*
X-66090483Y44527882D01*
X-66110000Y44524000D01*
X-67510000Y44524000D01*
X-67529517Y44527882D01*
X-67546062Y44538938D01*
X-67557118Y44555483D01*
X-67561000Y44575000D01*
X-67561000Y45775000D01*
X-67557118Y45794517D01*
X-67546062Y45811062D01*
X-67529517Y45822118D01*
X-67510000Y45826000D01*
X-66110000Y45826000D01*
X-66090483Y45822118D01*
G37*
G36*
X-63890483Y45822118D02*
G01*
X-63873938Y45811062D01*
X-63862882Y45794517D01*
X-63859000Y45775000D01*
X-63859000Y44575000D01*
X-63862882Y44555483D01*
X-63873938Y44538938D01*
X-63890483Y44527882D01*
X-63910000Y44524000D01*
X-65310000Y44524000D01*
X-65329517Y44527882D01*
X-65346062Y44538938D01*
X-65357118Y44555483D01*
X-65361000Y44575000D01*
X-65361000Y45775000D01*
X-65357118Y45794517D01*
X-65346062Y45811062D01*
X-65329517Y45822118D01*
X-65310000Y45826000D01*
X-63910000Y45826000D01*
X-63890483Y45822118D01*
G37*
G36*
X-66090483Y47522118D02*
G01*
X-66073938Y47511062D01*
X-66062882Y47494517D01*
X-66059000Y47475000D01*
X-66059000Y46275000D01*
X-66062882Y46255483D01*
X-66073938Y46238938D01*
X-66090483Y46227882D01*
X-66110000Y46224000D01*
X-67510000Y46224000D01*
X-67529517Y46227882D01*
X-67546062Y46238938D01*
X-67557118Y46255483D01*
X-67561000Y46275000D01*
X-67561000Y47475000D01*
X-67557118Y47494517D01*
X-67546062Y47511062D01*
X-67529517Y47522118D01*
X-67510000Y47526000D01*
X-66110000Y47526000D01*
X-66090483Y47522118D01*
G37*
G36*
X-63890483Y47522118D02*
G01*
X-63873938Y47511062D01*
X-63862882Y47494517D01*
X-63859000Y47475000D01*
X-63859000Y46275000D01*
X-63862882Y46255483D01*
X-63873938Y46238938D01*
X-63890483Y46227882D01*
X-63910000Y46224000D01*
X-65310000Y46224000D01*
X-65329517Y46227882D01*
X-65346062Y46238938D01*
X-65357118Y46255483D01*
X-65361000Y46275000D01*
X-65361000Y47475000D01*
X-65357118Y47494517D01*
X-65346062Y47511062D01*
X-65329517Y47522118D01*
X-65310000Y47526000D01*
X-63910000Y47526000D01*
X-63890483Y47522118D01*
G37*
G36*
X-74632900Y48816466D02*
G01*
X-74615048Y48820381D01*
X-74613508Y48821500D01*
X-74602192Y48823293D01*
X-74600000Y48824200D01*
X-73316197Y48824200D01*
X-73306553Y48823363D01*
X-73304640Y48823029D01*
X-73304634Y48823028D01*
X-73132405Y48792918D01*
X-73132398Y48792916D01*
X-73129996Y48792496D01*
X-73118323Y48789117D01*
X-73116060Y48788186D01*
X-73116059Y48788185D01*
X-72954583Y48721712D01*
X-72954580Y48721711D01*
X-72952320Y48720780D01*
X-72941651Y48714962D01*
X-72939650Y48713570D01*
X-72939638Y48713563D01*
X-72796312Y48613828D01*
X-72796308Y48613824D01*
X-72794297Y48612425D01*
X-72785134Y48604443D01*
X-72663370Y48472531D01*
X-72656145Y48462760D01*
X-72654912Y48460646D01*
X-72654910Y48460643D01*
X-72574194Y48322245D01*
X-72565704Y48307687D01*
X-72560757Y48296587D01*
X-72560009Y48294254D01*
X-72560007Y48294251D01*
X-72506648Y48127994D01*
X-72506647Y48127989D01*
X-72505898Y48125655D01*
X-72503462Y48113749D01*
X-72486843Y47935799D01*
X-72486600Y47930592D01*
X-72486600Y47929259D01*
X-72486979Y47922757D01*
X-72507600Y47746348D01*
X-72510171Y47734913D01*
X-72567251Y47566094D01*
X-72572147Y47555444D01*
X-72663117Y47402205D01*
X-72670122Y47392808D01*
X-72790996Y47261861D01*
X-72799804Y47254128D01*
X-72945288Y47151209D01*
X-72955512Y47145478D01*
X-73119232Y47075097D01*
X-73130425Y47071621D01*
X-73305125Y47036876D01*
X-73316049Y47035800D01*
X-73318255Y47035800D01*
X-74592873Y47035800D01*
X-74600000Y47035800D01*
X-74619683Y47043953D01*
X-74629113Y47044509D01*
X-74630167Y47044300D01*
X-74631196Y47043873D01*
X-74809236Y47008459D01*
X-74990764Y47008459D01*
X-75168804Y47043873D01*
X-75336513Y47113341D01*
X-75487448Y47214192D01*
X-75615808Y47342552D01*
X-75716659Y47493487D01*
X-75786127Y47661196D01*
X-75821541Y47839236D01*
X-75821541Y48020764D01*
X-75786127Y48198804D01*
X-75716659Y48366513D01*
X-75615808Y48517448D01*
X-75487448Y48645808D01*
X-75336513Y48746659D01*
X-75168804Y48816127D01*
X-74990764Y48851541D01*
X-74809236Y48851541D01*
X-74632900Y48816466D01*
G37*
G36*
X-56251196Y48816127D02*
G01*
X-56083487Y48746659D01*
X-55932552Y48645808D01*
X-55804192Y48517448D01*
X-55703341Y48366513D01*
X-55633873Y48198804D01*
X-55598459Y48020764D01*
X-55598459Y47839236D01*
X-55633873Y47661196D01*
X-55703341Y47493487D01*
X-55804192Y47342552D01*
X-55932552Y47214192D01*
X-56083487Y47113341D01*
X-56251196Y47043873D01*
X-56429236Y47008459D01*
X-56610764Y47008459D01*
X-56787109Y47043536D01*
X-56804967Y47039615D01*
X-56806504Y47038499D01*
X-56817807Y47036709D01*
X-56820000Y47035800D01*
X-56823541Y47035800D01*
X-58101745Y47035800D01*
X-58103951Y47035800D01*
X-58114875Y47036876D01*
X-58289575Y47071621D01*
X-58300768Y47075097D01*
X-58464488Y47145478D01*
X-58474712Y47151209D01*
X-58620196Y47254128D01*
X-58629004Y47261861D01*
X-58703616Y47342691D01*
X-58748279Y47391075D01*
X-58748282Y47391079D01*
X-58749878Y47392808D01*
X-58756883Y47402205D01*
X-58847853Y47555444D01*
X-58852749Y47566094D01*
X-58853504Y47568326D01*
X-58853506Y47568331D01*
X-58909071Y47732670D01*
X-58909072Y47732674D01*
X-58909829Y47734913D01*
X-58912400Y47746348D01*
X-58912674Y47748689D01*
X-58912675Y47748695D01*
X-58932870Y47921461D01*
X-58932871Y47921470D01*
X-58933021Y47922757D01*
X-58933400Y47929259D01*
X-58933400Y47930592D01*
X-58933157Y47935799D01*
X-58916538Y48113749D01*
X-58914102Y48125655D01*
X-58913356Y48127980D01*
X-58913353Y48127994D01*
X-58859994Y48294251D01*
X-58859990Y48294262D01*
X-58859243Y48296587D01*
X-58854296Y48307687D01*
X-58853067Y48309796D01*
X-58853062Y48309805D01*
X-58765091Y48460643D01*
X-58765085Y48460652D01*
X-58763855Y48462760D01*
X-58756630Y48472531D01*
X-58634866Y48604443D01*
X-58625703Y48612425D01*
X-58623698Y48613821D01*
X-58623689Y48613828D01*
X-58480363Y48713563D01*
X-58480347Y48713572D01*
X-58478349Y48714962D01*
X-58467680Y48720780D01*
X-58465425Y48721709D01*
X-58465418Y48721712D01*
X-58303942Y48788185D01*
X-58303939Y48788186D01*
X-58301677Y48789117D01*
X-58290004Y48792496D01*
X-58287605Y48792916D01*
X-58287596Y48792918D01*
X-58115367Y48823028D01*
X-58115360Y48823029D01*
X-58113447Y48823363D01*
X-58103803Y48824200D01*
X-56820000Y48824200D01*
X-56800321Y48816049D01*
X-56790887Y48815492D01*
X-56789829Y48815703D01*
X-56788804Y48816127D01*
X-56610764Y48851541D01*
X-56429236Y48851541D01*
X-56251196Y48816127D01*
G37*
G36*
X-67246907Y48911461D02*
G01*
X-67184943Y48870057D01*
X-67143539Y48808093D01*
X-67129000Y48735000D01*
X-67129000Y48395000D01*
X-67143539Y48321907D01*
X-67184943Y48259943D01*
X-67246907Y48218539D01*
X-67320000Y48204000D01*
X-67600000Y48204000D01*
X-67673093Y48218539D01*
X-67735057Y48259943D01*
X-67776461Y48321907D01*
X-67791000Y48395000D01*
X-67791000Y48735000D01*
X-67776461Y48808093D01*
X-67735057Y48870057D01*
X-67673093Y48911461D01*
X-67600000Y48926000D01*
X-67320000Y48926000D01*
X-67246907Y48911461D01*
G37*
G36*
X-66286907Y48911461D02*
G01*
X-66224943Y48870057D01*
X-66183539Y48808093D01*
X-66169000Y48735000D01*
X-66169000Y48395000D01*
X-66183539Y48321907D01*
X-66224943Y48259943D01*
X-66286907Y48218539D01*
X-66360000Y48204000D01*
X-66640000Y48204000D01*
X-66713093Y48218539D01*
X-66775057Y48259943D01*
X-66816461Y48321907D01*
X-66831000Y48395000D01*
X-66831000Y48735000D01*
X-66816461Y48808093D01*
X-66775057Y48870057D01*
X-66713093Y48911461D01*
X-66640000Y48926000D01*
X-66360000Y48926000D01*
X-66286907Y48911461D01*
G37*
G36*
X-64706907Y48911461D02*
G01*
X-64644943Y48870057D01*
X-64603539Y48808093D01*
X-64589000Y48735000D01*
X-64589000Y48395000D01*
X-64603539Y48321907D01*
X-64644943Y48259943D01*
X-64706907Y48218539D01*
X-64780000Y48204000D01*
X-65060000Y48204000D01*
X-65133093Y48218539D01*
X-65195057Y48259943D01*
X-65236461Y48321907D01*
X-65251000Y48395000D01*
X-65251000Y48735000D01*
X-65236461Y48808093D01*
X-65195057Y48870057D01*
X-65133093Y48911461D01*
X-65060000Y48926000D01*
X-64780000Y48926000D01*
X-64706907Y48911461D01*
G37*
G36*
X-63746907Y48911461D02*
G01*
X-63684943Y48870057D01*
X-63643539Y48808093D01*
X-63629000Y48735000D01*
X-63629000Y48395000D01*
X-63643539Y48321907D01*
X-63684943Y48259943D01*
X-63746907Y48218539D01*
X-63820000Y48204000D01*
X-64100000Y48204000D01*
X-64173093Y48218539D01*
X-64235057Y48259943D01*
X-64276461Y48321907D01*
X-64291000Y48395000D01*
X-64291000Y48735000D01*
X-64276461Y48808093D01*
X-64235057Y48870057D01*
X-64173093Y48911461D01*
X-64100000Y48926000D01*
X-63820000Y48926000D01*
X-63746907Y48911461D01*
G37*
G36*
X-69336086Y50088005D02*
G01*
X-69331355Y50085916D01*
X-69328189Y50085499D01*
X-69288558Y50067019D01*
X-69234894Y50043324D01*
X-69156676Y49965106D01*
X-69132972Y49911421D01*
X-69114502Y49871812D01*
X-69114086Y49868649D01*
X-69111995Y49863914D01*
X-69104000Y49795000D01*
X-69104000Y49245000D01*
X-69111995Y49176086D01*
X-69114086Y49171352D01*
X-69114502Y49168189D01*
X-69132964Y49128598D01*
X-69156676Y49074894D01*
X-69234894Y48996676D01*
X-69288598Y48972964D01*
X-69328189Y48954502D01*
X-69331352Y48954086D01*
X-69336086Y48951995D01*
X-69405000Y48944000D01*
X-70905000Y48944000D01*
X-70973914Y48951995D01*
X-70978649Y48954086D01*
X-70981812Y48954502D01*
X-71021421Y48972972D01*
X-71075106Y48996676D01*
X-71153324Y49074894D01*
X-71177019Y49128558D01*
X-71195499Y49168189D01*
X-71195916Y49171355D01*
X-71198005Y49176086D01*
X-71206000Y49245000D01*
X-71206000Y49795000D01*
X-71198005Y49863914D01*
X-71195916Y49868646D01*
X-71195499Y49871812D01*
X-71177011Y49911462D01*
X-71153324Y49965106D01*
X-71075106Y50043324D01*
X-71021462Y50067011D01*
X-70981812Y50085499D01*
X-70978646Y50085916D01*
X-70973914Y50088005D01*
X-70905000Y50096000D01*
X-69405000Y50096000D01*
X-69336086Y50088005D01*
G37*
G36*
X-60446086Y50088005D02*
G01*
X-60441355Y50085916D01*
X-60438189Y50085499D01*
X-60398558Y50067019D01*
X-60344894Y50043324D01*
X-60266676Y49965106D01*
X-60242972Y49911421D01*
X-60224502Y49871812D01*
X-60224086Y49868649D01*
X-60221995Y49863914D01*
X-60214000Y49795000D01*
X-60214000Y49245000D01*
X-60221995Y49176086D01*
X-60224086Y49171352D01*
X-60224502Y49168189D01*
X-60242964Y49128598D01*
X-60266676Y49074894D01*
X-60344894Y48996676D01*
X-60398598Y48972964D01*
X-60438189Y48954502D01*
X-60441352Y48954086D01*
X-60446086Y48951995D01*
X-60515000Y48944000D01*
X-62015000Y48944000D01*
X-62083914Y48951995D01*
X-62088649Y48954086D01*
X-62091812Y48954502D01*
X-62131421Y48972972D01*
X-62185106Y48996676D01*
X-62263324Y49074894D01*
X-62287019Y49128558D01*
X-62305499Y49168189D01*
X-62305916Y49171355D01*
X-62308005Y49176086D01*
X-62316000Y49245000D01*
X-62316000Y49795000D01*
X-62308005Y49863914D01*
X-62305916Y49868646D01*
X-62305499Y49871812D01*
X-62287011Y49911462D01*
X-62263324Y49965106D01*
X-62185106Y50043324D01*
X-62131462Y50067011D01*
X-62091812Y50085499D01*
X-62088646Y50085916D01*
X-62083914Y50088005D01*
X-62015000Y50096000D01*
X-60515000Y50096000D01*
X-60446086Y50088005D01*
G37*
G36*
X-64743821Y50191842D02*
G01*
X-64683478Y50151522D01*
X-64643158Y50091179D01*
X-64629000Y50020000D01*
X-64629000Y49650000D01*
X-64643158Y49578821D01*
X-64683478Y49518478D01*
X-64743821Y49478158D01*
X-64815000Y49464000D01*
X-65085000Y49464000D01*
X-65156179Y49478158D01*
X-65216522Y49518478D01*
X-65256842Y49578821D01*
X-65271000Y49650000D01*
X-65271000Y50020000D01*
X-65256842Y50091179D01*
X-65216522Y50151522D01*
X-65156179Y50191842D01*
X-65085000Y50206000D01*
X-64815000Y50206000D01*
X-64743821Y50191842D01*
G37*
G36*
X-63723821Y50191842D02*
G01*
X-63663478Y50151522D01*
X-63623158Y50091179D01*
X-63609000Y50020000D01*
X-63609000Y49650000D01*
X-63623158Y49578821D01*
X-63663478Y49518478D01*
X-63723821Y49478158D01*
X-63795000Y49464000D01*
X-64065000Y49464000D01*
X-64136179Y49478158D01*
X-64196522Y49518478D01*
X-64236842Y49578821D01*
X-64251000Y49650000D01*
X-64251000Y50020000D01*
X-64236842Y50091179D01*
X-64196522Y50151522D01*
X-64136179Y50191842D01*
X-64065000Y50206000D01*
X-63795000Y50206000D01*
X-63723821Y50191842D01*
G37*
G36*
X-74632900Y51356466D02*
G01*
X-74615048Y51360381D01*
X-74613508Y51361500D01*
X-74602192Y51363293D01*
X-74600000Y51364200D01*
X-73316197Y51364200D01*
X-73306553Y51363363D01*
X-73304640Y51363029D01*
X-73304634Y51363028D01*
X-73132405Y51332918D01*
X-73132398Y51332916D01*
X-73129996Y51332496D01*
X-73118323Y51329117D01*
X-73116060Y51328186D01*
X-73116059Y51328185D01*
X-72954583Y51261712D01*
X-72954580Y51261711D01*
X-72952320Y51260780D01*
X-72941651Y51254962D01*
X-72939650Y51253570D01*
X-72939638Y51253563D01*
X-72796312Y51153828D01*
X-72796308Y51153824D01*
X-72794297Y51152425D01*
X-72785134Y51144443D01*
X-72663370Y51012531D01*
X-72656145Y51002760D01*
X-72654912Y51000646D01*
X-72654910Y51000643D01*
X-72574194Y50862245D01*
X-72565704Y50847687D01*
X-72560757Y50836587D01*
X-72560009Y50834254D01*
X-72560007Y50834251D01*
X-72506648Y50667994D01*
X-72506647Y50667989D01*
X-72505898Y50665655D01*
X-72503462Y50653749D01*
X-72486843Y50475799D01*
X-72486600Y50470592D01*
X-72486600Y50469259D01*
X-72486979Y50462757D01*
X-72507600Y50286348D01*
X-72510171Y50274913D01*
X-72567251Y50106094D01*
X-72572147Y50095444D01*
X-72663117Y49942205D01*
X-72670122Y49932808D01*
X-72790996Y49801861D01*
X-72799804Y49794128D01*
X-72945288Y49691209D01*
X-72955512Y49685478D01*
X-73119232Y49615097D01*
X-73130425Y49611621D01*
X-73305125Y49576876D01*
X-73316049Y49575800D01*
X-73318255Y49575800D01*
X-74592873Y49575800D01*
X-74600000Y49575800D01*
X-74619683Y49583953D01*
X-74629113Y49584509D01*
X-74630167Y49584300D01*
X-74631196Y49583873D01*
X-74809236Y49548459D01*
X-74990764Y49548459D01*
X-75168804Y49583873D01*
X-75336513Y49653341D01*
X-75487448Y49754192D01*
X-75615808Y49882552D01*
X-75716659Y50033487D01*
X-75786127Y50201196D01*
X-75821541Y50379236D01*
X-75821541Y50560764D01*
X-75786127Y50738804D01*
X-75716659Y50906513D01*
X-75615808Y51057448D01*
X-75487448Y51185808D01*
X-75336513Y51286659D01*
X-75168804Y51356127D01*
X-74990764Y51391541D01*
X-74809236Y51391541D01*
X-74632900Y51356466D01*
G37*
G36*
X-56251196Y51356127D02*
G01*
X-56083487Y51286659D01*
X-55932552Y51185808D01*
X-55804192Y51057448D01*
X-55703341Y50906513D01*
X-55633873Y50738804D01*
X-55598459Y50560764D01*
X-55598459Y50379236D01*
X-55633873Y50201196D01*
X-55703341Y50033487D01*
X-55804192Y49882552D01*
X-55932552Y49754192D01*
X-56083487Y49653341D01*
X-56251196Y49583873D01*
X-56429236Y49548459D01*
X-56610764Y49548459D01*
X-56787109Y49583536D01*
X-56804967Y49579615D01*
X-56806504Y49578499D01*
X-56817807Y49576709D01*
X-56820000Y49575800D01*
X-56823541Y49575800D01*
X-58101745Y49575800D01*
X-58103951Y49575800D01*
X-58114875Y49576876D01*
X-58289575Y49611621D01*
X-58300768Y49615097D01*
X-58464488Y49685478D01*
X-58474712Y49691209D01*
X-58620196Y49794128D01*
X-58629004Y49801861D01*
X-58703616Y49882691D01*
X-58748279Y49931075D01*
X-58748282Y49931079D01*
X-58749878Y49932808D01*
X-58756883Y49942205D01*
X-58847853Y50095444D01*
X-58852749Y50106094D01*
X-58853504Y50108326D01*
X-58853506Y50108331D01*
X-58909071Y50272670D01*
X-58909072Y50272674D01*
X-58909829Y50274913D01*
X-58912400Y50286348D01*
X-58912674Y50288689D01*
X-58912675Y50288695D01*
X-58932870Y50461461D01*
X-58932871Y50461470D01*
X-58933021Y50462757D01*
X-58933400Y50469259D01*
X-58933400Y50470592D01*
X-58933157Y50475799D01*
X-58916538Y50653749D01*
X-58914102Y50665655D01*
X-58913356Y50667980D01*
X-58913353Y50667994D01*
X-58859994Y50834251D01*
X-58859990Y50834262D01*
X-58859243Y50836587D01*
X-58854296Y50847687D01*
X-58853067Y50849796D01*
X-58853062Y50849805D01*
X-58765091Y51000643D01*
X-58765085Y51000652D01*
X-58763855Y51002760D01*
X-58756630Y51012531D01*
X-58634866Y51144443D01*
X-58625703Y51152425D01*
X-58623698Y51153821D01*
X-58623689Y51153828D01*
X-58480363Y51253563D01*
X-58480347Y51253572D01*
X-58478349Y51254962D01*
X-58467680Y51260780D01*
X-58465425Y51261709D01*
X-58465418Y51261712D01*
X-58303942Y51328185D01*
X-58303939Y51328186D01*
X-58301677Y51329117D01*
X-58290004Y51332496D01*
X-58287605Y51332916D01*
X-58287596Y51332918D01*
X-58115367Y51363028D01*
X-58115360Y51363029D01*
X-58113447Y51363363D01*
X-58103803Y51364200D01*
X-56820000Y51364200D01*
X-56800321Y51356049D01*
X-56790887Y51355492D01*
X-56789829Y51355703D01*
X-56788804Y51356127D01*
X-56610764Y51391541D01*
X-56429236Y51391541D01*
X-56251196Y51356127D01*
G37*
G36*
X-71093821Y51461842D02*
G01*
X-71033478Y51421522D01*
X-70993158Y51361179D01*
X-70979000Y51290000D01*
X-70979000Y50920000D01*
X-70993158Y50848821D01*
X-71033478Y50788478D01*
X-71093821Y50748158D01*
X-71165000Y50734000D01*
X-71435000Y50734000D01*
X-71506179Y50748158D01*
X-71566522Y50788478D01*
X-71606842Y50848821D01*
X-71621000Y50920000D01*
X-71621000Y51290000D01*
X-71606842Y51361179D01*
X-71566522Y51421522D01*
X-71506179Y51461842D01*
X-71435000Y51476000D01*
X-71165000Y51476000D01*
X-71093821Y51461842D01*
G37*
G36*
X-70073821Y51461842D02*
G01*
X-70013478Y51421522D01*
X-69973158Y51361179D01*
X-69959000Y51290000D01*
X-69959000Y50920000D01*
X-69973158Y50848821D01*
X-70013478Y50788478D01*
X-70073821Y50748158D01*
X-70145000Y50734000D01*
X-70415000Y50734000D01*
X-70486179Y50748158D01*
X-70546522Y50788478D01*
X-70586842Y50848821D01*
X-70601000Y50920000D01*
X-70601000Y51290000D01*
X-70586842Y51361179D01*
X-70546522Y51421522D01*
X-70486179Y51461842D01*
X-70415000Y51476000D01*
X-70145000Y51476000D01*
X-70073821Y51461842D01*
G37*
G36*
X-60933821Y51461842D02*
G01*
X-60873478Y51421522D01*
X-60833158Y51361179D01*
X-60819000Y51290000D01*
X-60819000Y50920000D01*
X-60833158Y50848821D01*
X-60873478Y50788478D01*
X-60933821Y50748158D01*
X-61005000Y50734000D01*
X-61275000Y50734000D01*
X-61346179Y50748158D01*
X-61406522Y50788478D01*
X-61446842Y50848821D01*
X-61461000Y50920000D01*
X-61461000Y51290000D01*
X-61446842Y51361179D01*
X-61406522Y51421522D01*
X-61346179Y51461842D01*
X-61275000Y51476000D01*
X-61005000Y51476000D01*
X-60933821Y51461842D01*
G37*
G36*
X-59913821Y51461842D02*
G01*
X-59853478Y51421522D01*
X-59813158Y51361179D01*
X-59799000Y51290000D01*
X-59799000Y50920000D01*
X-59813158Y50848821D01*
X-59853478Y50788478D01*
X-59913821Y50748158D01*
X-59985000Y50734000D01*
X-60255000Y50734000D01*
X-60326179Y50748158D01*
X-60386522Y50788478D01*
X-60426842Y50848821D01*
X-60441000Y50920000D01*
X-60441000Y51290000D01*
X-60426842Y51361179D01*
X-60386522Y51421522D01*
X-60326179Y51461842D01*
X-60255000Y51476000D01*
X-59985000Y51476000D01*
X-59913821Y51461842D01*
G37*
G36*
X-68516907Y51451461D02*
G01*
X-68454943Y51410057D01*
X-68413539Y51348093D01*
X-68399000Y51275000D01*
X-68399000Y50935000D01*
X-68413539Y50861907D01*
X-68454943Y50799943D01*
X-68516907Y50758539D01*
X-68590000Y50744000D01*
X-68870000Y50744000D01*
X-68943093Y50758539D01*
X-69005057Y50799943D01*
X-69046461Y50861907D01*
X-69061000Y50935000D01*
X-69061000Y51275000D01*
X-69046461Y51348093D01*
X-69005057Y51410057D01*
X-68943093Y51451461D01*
X-68870000Y51466000D01*
X-68590000Y51466000D01*
X-68516907Y51451461D01*
G37*
G36*
X-67556907Y51451461D02*
G01*
X-67494943Y51410057D01*
X-67453539Y51348093D01*
X-67439000Y51275000D01*
X-67439000Y50935000D01*
X-67453539Y50861907D01*
X-67494943Y50799943D01*
X-67556907Y50758539D01*
X-67630000Y50744000D01*
X-67910000Y50744000D01*
X-67983093Y50758539D01*
X-68045057Y50799943D01*
X-68086461Y50861907D01*
X-68101000Y50935000D01*
X-68101000Y51275000D01*
X-68086461Y51348093D01*
X-68045057Y51410057D01*
X-67983093Y51451461D01*
X-67910000Y51466000D01*
X-67630000Y51466000D01*
X-67556907Y51451461D01*
G37*
G36*
X-65976907Y51451461D02*
G01*
X-65914943Y51410057D01*
X-65873539Y51348093D01*
X-65859000Y51275000D01*
X-65859000Y50935000D01*
X-65873539Y50861907D01*
X-65914943Y50799943D01*
X-65976907Y50758539D01*
X-66050000Y50744000D01*
X-66330000Y50744000D01*
X-66403093Y50758539D01*
X-66465057Y50799943D01*
X-66506461Y50861907D01*
X-66521000Y50935000D01*
X-66521000Y51275000D01*
X-66506461Y51348093D01*
X-66465057Y51410057D01*
X-66403093Y51451461D01*
X-66330000Y51466000D01*
X-66050000Y51466000D01*
X-65976907Y51451461D01*
G37*
G36*
X-65016907Y51451461D02*
G01*
X-64954943Y51410057D01*
X-64913539Y51348093D01*
X-64899000Y51275000D01*
X-64899000Y50935000D01*
X-64913539Y50861907D01*
X-64954943Y50799943D01*
X-65016907Y50758539D01*
X-65090000Y50744000D01*
X-65370000Y50744000D01*
X-65443093Y50758539D01*
X-65505057Y50799943D01*
X-65546461Y50861907D01*
X-65561000Y50935000D01*
X-65561000Y51275000D01*
X-65546461Y51348093D01*
X-65505057Y51410057D01*
X-65443093Y51451461D01*
X-65370000Y51466000D01*
X-65090000Y51466000D01*
X-65016907Y51451461D01*
G37*
G36*
X-63436907Y51451461D02*
G01*
X-63374943Y51410057D01*
X-63333539Y51348093D01*
X-63319000Y51275000D01*
X-63319000Y50935000D01*
X-63333539Y50861907D01*
X-63374943Y50799943D01*
X-63436907Y50758539D01*
X-63510000Y50744000D01*
X-63790000Y50744000D01*
X-63863093Y50758539D01*
X-63925057Y50799943D01*
X-63966461Y50861907D01*
X-63981000Y50935000D01*
X-63981000Y51275000D01*
X-63966461Y51348093D01*
X-63925057Y51410057D01*
X-63863093Y51451461D01*
X-63790000Y51466000D01*
X-63510000Y51466000D01*
X-63436907Y51451461D01*
G37*
G36*
X-62476907Y51451461D02*
G01*
X-62414943Y51410057D01*
X-62373539Y51348093D01*
X-62359000Y51275000D01*
X-62359000Y50935000D01*
X-62373539Y50861907D01*
X-62414943Y50799943D01*
X-62476907Y50758539D01*
X-62550000Y50744000D01*
X-62830000Y50744000D01*
X-62903093Y50758539D01*
X-62965057Y50799943D01*
X-63006461Y50861907D01*
X-63021000Y50935000D01*
X-63021000Y51275000D01*
X-63006461Y51348093D01*
X-62965057Y51410057D01*
X-62903093Y51451461D01*
X-62830000Y51466000D01*
X-62550000Y51466000D01*
X-62476907Y51451461D01*
G37*
G36*
X-74632900Y53896466D02*
G01*
X-74615048Y53900381D01*
X-74613508Y53901500D01*
X-74602192Y53903293D01*
X-74600000Y53904200D01*
X-73316197Y53904200D01*
X-73306553Y53903363D01*
X-73304640Y53903029D01*
X-73304634Y53903028D01*
X-73132405Y53872918D01*
X-73132398Y53872916D01*
X-73129996Y53872496D01*
X-73118323Y53869117D01*
X-73116060Y53868186D01*
X-73116059Y53868185D01*
X-72954583Y53801712D01*
X-72954580Y53801711D01*
X-72952320Y53800780D01*
X-72941651Y53794962D01*
X-72939650Y53793570D01*
X-72939638Y53793563D01*
X-72796312Y53693828D01*
X-72796308Y53693824D01*
X-72794297Y53692425D01*
X-72785134Y53684443D01*
X-72663370Y53552531D01*
X-72656145Y53542760D01*
X-72654912Y53540646D01*
X-72654910Y53540643D01*
X-72590714Y53430570D01*
X-72565704Y53387687D01*
X-72560757Y53376587D01*
X-72560009Y53374254D01*
X-72560007Y53374251D01*
X-72506648Y53207994D01*
X-72506647Y53207989D01*
X-72505898Y53205655D01*
X-72503462Y53193749D01*
X-72486843Y53015799D01*
X-72486600Y53010592D01*
X-72486600Y53009259D01*
X-72486979Y53002757D01*
X-72507600Y52826348D01*
X-72510171Y52814913D01*
X-72567251Y52646094D01*
X-72572147Y52635444D01*
X-72663117Y52482205D01*
X-72670122Y52472808D01*
X-72790996Y52341861D01*
X-72799804Y52334128D01*
X-72945288Y52231209D01*
X-72955512Y52225478D01*
X-73119232Y52155097D01*
X-73130425Y52151621D01*
X-73305125Y52116876D01*
X-73316049Y52115800D01*
X-73318255Y52115800D01*
X-74592873Y52115800D01*
X-74600000Y52115800D01*
X-74619683Y52123953D01*
X-74629113Y52124509D01*
X-74630167Y52124300D01*
X-74631196Y52123873D01*
X-74809236Y52088459D01*
X-74990764Y52088459D01*
X-75168804Y52123873D01*
X-75336513Y52193341D01*
X-75487448Y52294192D01*
X-75615808Y52422552D01*
X-75716659Y52573487D01*
X-75786127Y52741196D01*
X-75821541Y52919236D01*
X-75821541Y53100764D01*
X-75786127Y53278804D01*
X-75716659Y53446513D01*
X-75615808Y53597448D01*
X-75487448Y53725808D01*
X-75336513Y53826659D01*
X-75168804Y53896127D01*
X-74990764Y53931541D01*
X-74809236Y53931541D01*
X-74632900Y53896466D01*
G37*
G36*
X-56251196Y53896127D02*
G01*
X-56083487Y53826659D01*
X-55932552Y53725808D01*
X-55804192Y53597448D01*
X-55703341Y53446513D01*
X-55633873Y53278804D01*
X-55598459Y53100764D01*
X-55598459Y52919236D01*
X-55633873Y52741196D01*
X-55703341Y52573487D01*
X-55804192Y52422552D01*
X-55932552Y52294192D01*
X-56083487Y52193341D01*
X-56251196Y52123873D01*
X-56429236Y52088459D01*
X-56610764Y52088459D01*
X-56787109Y52123536D01*
X-56804967Y52119615D01*
X-56806504Y52118499D01*
X-56817807Y52116709D01*
X-56820000Y52115800D01*
X-56823541Y52115800D01*
X-58101745Y52115800D01*
X-58103951Y52115800D01*
X-58114875Y52116876D01*
X-58289575Y52151621D01*
X-58300768Y52155097D01*
X-58464488Y52225478D01*
X-58474712Y52231209D01*
X-58620196Y52334128D01*
X-58629004Y52341861D01*
X-58703616Y52422691D01*
X-58748279Y52471075D01*
X-58748282Y52471079D01*
X-58749878Y52472808D01*
X-58756883Y52482205D01*
X-58847853Y52635444D01*
X-58852749Y52646094D01*
X-58853504Y52648326D01*
X-58853506Y52648331D01*
X-58909071Y52812670D01*
X-58909072Y52812674D01*
X-58909829Y52814913D01*
X-58912400Y52826348D01*
X-58912674Y52828689D01*
X-58912675Y52828695D01*
X-58932870Y53001461D01*
X-58932871Y53001470D01*
X-58933021Y53002757D01*
X-58933400Y53009259D01*
X-58933400Y53010592D01*
X-58933157Y53015799D01*
X-58931883Y53029436D01*
X-58916766Y53191310D01*
X-58916766Y53191312D01*
X-58916538Y53193749D01*
X-58914102Y53205655D01*
X-58913356Y53207980D01*
X-58913353Y53207994D01*
X-58859994Y53374251D01*
X-58859990Y53374262D01*
X-58859243Y53376587D01*
X-58854296Y53387687D01*
X-58853067Y53389796D01*
X-58853062Y53389805D01*
X-58765091Y53540643D01*
X-58765085Y53540652D01*
X-58763855Y53542760D01*
X-58756630Y53552531D01*
X-58693003Y53621461D01*
X-58636525Y53682646D01*
X-58636524Y53682648D01*
X-58634866Y53684443D01*
X-58625703Y53692425D01*
X-58623698Y53693821D01*
X-58623689Y53693828D01*
X-58480363Y53793563D01*
X-58480347Y53793572D01*
X-58478349Y53794962D01*
X-58467680Y53800780D01*
X-58465425Y53801709D01*
X-58465418Y53801712D01*
X-58303942Y53868185D01*
X-58303939Y53868186D01*
X-58301677Y53869117D01*
X-58290004Y53872496D01*
X-58287605Y53872916D01*
X-58287596Y53872918D01*
X-58115367Y53903028D01*
X-58115360Y53903029D01*
X-58113447Y53903363D01*
X-58103803Y53904200D01*
X-56820000Y53904200D01*
X-56800321Y53896049D01*
X-56790887Y53895492D01*
X-56789829Y53895703D01*
X-56788804Y53896127D01*
X-56610764Y53931541D01*
X-56429236Y53931541D01*
X-56251196Y53896127D01*
G37*
G36*
X-68464426Y53236000D02*
G01*
X-68460000Y53236000D01*
X-68421349Y53228312D01*
X-68388582Y53206418D01*
X-68366688Y53173651D01*
X-68359000Y53135000D01*
X-68359000Y52360000D01*
X-68366688Y52321349D01*
X-68388582Y52288582D01*
X-68421349Y52266688D01*
X-68460000Y52259000D01*
X-68560000Y52259000D01*
X-68598651Y52266688D01*
X-68631418Y52288582D01*
X-68653312Y52321349D01*
X-68661000Y52360000D01*
X-68661000Y53135000D01*
X-68660020Y53144950D01*
X-68652405Y53163334D01*
X-68646062Y53171062D01*
X-68644507Y53172618D01*
X-68644497Y53172629D01*
X-68597629Y53219498D01*
X-68597613Y53219512D01*
X-68596062Y53221062D01*
X-68588334Y53227404D01*
X-68569949Y53235019D01*
X-68559998Y53236000D01*
X-68557803Y53236000D01*
X-68557793Y53236001D01*
X-68464431Y53236001D01*
X-68464426Y53236000D01*
G37*
G36*
X-68021349Y53228312D02*
G01*
X-67988582Y53206418D01*
X-67966688Y53173651D01*
X-67959000Y53135000D01*
X-67959000Y52360000D01*
X-67966688Y52321349D01*
X-67988582Y52288582D01*
X-68021349Y52266688D01*
X-68060000Y52259000D01*
X-68160000Y52259000D01*
X-68198651Y52266688D01*
X-68231418Y52288582D01*
X-68253312Y52321349D01*
X-68261000Y52360000D01*
X-68261000Y53135000D01*
X-68253312Y53173651D01*
X-68231418Y53206418D01*
X-68198651Y53228312D01*
X-68160000Y53236000D01*
X-68060000Y53236000D01*
X-68021349Y53228312D01*
G37*
G36*
X-67621349Y53228312D02*
G01*
X-67588582Y53206418D01*
X-67566688Y53173651D01*
X-67559000Y53135000D01*
X-67559000Y52360000D01*
X-67566688Y52321349D01*
X-67588582Y52288582D01*
X-67621349Y52266688D01*
X-67660000Y52259000D01*
X-67760000Y52259000D01*
X-67798651Y52266688D01*
X-67831418Y52288582D01*
X-67853312Y52321349D01*
X-67861000Y52360000D01*
X-67861000Y53135000D01*
X-67853312Y53173651D01*
X-67831418Y53206418D01*
X-67798651Y53228312D01*
X-67760000Y53236000D01*
X-67660000Y53236000D01*
X-67621349Y53228312D01*
G37*
G36*
X-67221349Y53228312D02*
G01*
X-67188582Y53206418D01*
X-67166688Y53173651D01*
X-67159000Y53135000D01*
X-67159000Y52360000D01*
X-67166688Y52321349D01*
X-67188582Y52288582D01*
X-67221349Y52266688D01*
X-67260000Y52259000D01*
X-67360000Y52259000D01*
X-67398651Y52266688D01*
X-67431418Y52288582D01*
X-67453312Y52321349D01*
X-67461000Y52360000D01*
X-67461000Y53135000D01*
X-67453312Y53173651D01*
X-67431418Y53206418D01*
X-67398651Y53228312D01*
X-67360000Y53236000D01*
X-67260000Y53236000D01*
X-67221349Y53228312D01*
G37*
G36*
X-66821349Y53228312D02*
G01*
X-66788582Y53206418D01*
X-66766688Y53173651D01*
X-66759000Y53135000D01*
X-66759000Y52360000D01*
X-66766688Y52321349D01*
X-66788582Y52288582D01*
X-66821349Y52266688D01*
X-66860000Y52259000D01*
X-66960000Y52259000D01*
X-66998651Y52266688D01*
X-67031418Y52288582D01*
X-67053312Y52321349D01*
X-67061000Y52360000D01*
X-67061000Y53135000D01*
X-67053312Y53173651D01*
X-67031418Y53206418D01*
X-66998651Y53228312D01*
X-66960000Y53236000D01*
X-66860000Y53236000D01*
X-66821349Y53228312D01*
G37*
G36*
X-66421349Y53228312D02*
G01*
X-66388582Y53206418D01*
X-66366688Y53173651D01*
X-66359000Y53135000D01*
X-66359000Y52360000D01*
X-66366688Y52321349D01*
X-66388582Y52288582D01*
X-66421349Y52266688D01*
X-66460000Y52259000D01*
X-66560000Y52259000D01*
X-66598651Y52266688D01*
X-66631418Y52288582D01*
X-66653312Y52321349D01*
X-66661000Y52360000D01*
X-66661000Y53135000D01*
X-66653312Y53173651D01*
X-66631418Y53206418D01*
X-66598651Y53228312D01*
X-66560000Y53236000D01*
X-66460000Y53236000D01*
X-66421349Y53228312D01*
G37*
G36*
X-66021349Y53228312D02*
G01*
X-65988582Y53206418D01*
X-65966688Y53173651D01*
X-65959000Y53135000D01*
X-65959000Y52360000D01*
X-65966688Y52321349D01*
X-65988582Y52288582D01*
X-66021349Y52266688D01*
X-66060000Y52259000D01*
X-66160000Y52259000D01*
X-66198651Y52266688D01*
X-66231418Y52288582D01*
X-66253312Y52321349D01*
X-66261000Y52360000D01*
X-66261000Y53135000D01*
X-66253312Y53173651D01*
X-66231418Y53206418D01*
X-66198651Y53228312D01*
X-66160000Y53236000D01*
X-66060000Y53236000D01*
X-66021349Y53228312D01*
G37*
G36*
X-65621349Y53228312D02*
G01*
X-65588582Y53206418D01*
X-65566688Y53173651D01*
X-65559000Y53135000D01*
X-65559000Y52360000D01*
X-65566688Y52321349D01*
X-65588582Y52288582D01*
X-65621349Y52266688D01*
X-65660000Y52259000D01*
X-65760000Y52259000D01*
X-65798651Y52266688D01*
X-65831418Y52288582D01*
X-65853312Y52321349D01*
X-65861000Y52360000D01*
X-65861000Y53135000D01*
X-65853312Y53173651D01*
X-65831418Y53206418D01*
X-65798651Y53228312D01*
X-65760000Y53236000D01*
X-65660000Y53236000D01*
X-65621349Y53228312D01*
G37*
G36*
X-65221349Y53228312D02*
G01*
X-65188582Y53206418D01*
X-65166688Y53173651D01*
X-65159000Y53135000D01*
X-65159000Y52360000D01*
X-65166688Y52321349D01*
X-65188582Y52288582D01*
X-65221349Y52266688D01*
X-65260000Y52259000D01*
X-65360000Y52259000D01*
X-65398651Y52266688D01*
X-65431418Y52288582D01*
X-65453312Y52321349D01*
X-65461000Y52360000D01*
X-65461000Y53135000D01*
X-65453312Y53173651D01*
X-65431418Y53206418D01*
X-65398651Y53228312D01*
X-65360000Y53236000D01*
X-65260000Y53236000D01*
X-65221349Y53228312D01*
G37*
G36*
X-64821349Y53228312D02*
G01*
X-64788582Y53206418D01*
X-64766688Y53173651D01*
X-64759000Y53135000D01*
X-64759000Y52360000D01*
X-64766688Y52321349D01*
X-64788582Y52288582D01*
X-64821349Y52266688D01*
X-64860000Y52259000D01*
X-64960000Y52259000D01*
X-64998651Y52266688D01*
X-65031418Y52288582D01*
X-65053312Y52321349D01*
X-65061000Y52360000D01*
X-65061000Y53135000D01*
X-65053312Y53173651D01*
X-65031418Y53206418D01*
X-64998651Y53228312D01*
X-64960000Y53236000D01*
X-64860000Y53236000D01*
X-64821349Y53228312D01*
G37*
G36*
X-64421349Y53228312D02*
G01*
X-64388582Y53206418D01*
X-64366688Y53173651D01*
X-64359000Y53135000D01*
X-64359000Y52360000D01*
X-64366688Y52321349D01*
X-64388582Y52288582D01*
X-64421349Y52266688D01*
X-64460000Y52259000D01*
X-64560000Y52259000D01*
X-64598651Y52266688D01*
X-64631418Y52288582D01*
X-64653312Y52321349D01*
X-64661000Y52360000D01*
X-64661000Y53135000D01*
X-64653312Y53173651D01*
X-64631418Y53206418D01*
X-64598651Y53228312D01*
X-64560000Y53236000D01*
X-64460000Y53236000D01*
X-64421349Y53228312D01*
G37*
G36*
X-64021349Y53228312D02*
G01*
X-63988582Y53206418D01*
X-63966688Y53173651D01*
X-63959000Y53135000D01*
X-63959000Y52360000D01*
X-63966688Y52321349D01*
X-63988582Y52288582D01*
X-64021349Y52266688D01*
X-64060000Y52259000D01*
X-64160000Y52259000D01*
X-64198651Y52266688D01*
X-64231418Y52288582D01*
X-64253312Y52321349D01*
X-64261000Y52360000D01*
X-64261000Y53135000D01*
X-64253312Y53173651D01*
X-64231418Y53206418D01*
X-64198651Y53228312D01*
X-64160000Y53236000D01*
X-64060000Y53236000D01*
X-64021349Y53228312D01*
G37*
G36*
X-63621349Y53228312D02*
G01*
X-63588582Y53206418D01*
X-63566688Y53173651D01*
X-63559000Y53135000D01*
X-63559000Y52360000D01*
X-63566688Y52321349D01*
X-63588582Y52288582D01*
X-63621349Y52266688D01*
X-63660000Y52259000D01*
X-63760000Y52259000D01*
X-63798651Y52266688D01*
X-63831418Y52288582D01*
X-63853312Y52321349D01*
X-63861000Y52360000D01*
X-63861000Y53135000D01*
X-63853312Y53173651D01*
X-63831418Y53206418D01*
X-63798651Y53228312D01*
X-63760000Y53236000D01*
X-63660000Y53236000D01*
X-63621349Y53228312D01*
G37*
G36*
X-63221349Y53228312D02*
G01*
X-63188582Y53206418D01*
X-63166688Y53173651D01*
X-63159000Y53135000D01*
X-63159000Y52360000D01*
X-63166688Y52321349D01*
X-63188582Y52288582D01*
X-63221349Y52266688D01*
X-63260000Y52259000D01*
X-63360000Y52259000D01*
X-63398651Y52266688D01*
X-63431418Y52288582D01*
X-63453312Y52321349D01*
X-63461000Y52360000D01*
X-63461000Y53135000D01*
X-63453312Y53173651D01*
X-63431418Y53206418D01*
X-63398651Y53228312D01*
X-63360000Y53236000D01*
X-63260000Y53236000D01*
X-63221349Y53228312D01*
G37*
G36*
X-62850050Y53235020D02*
G01*
X-62831666Y53227405D01*
X-62823938Y53221062D01*
X-62822378Y53219502D01*
X-62822372Y53219497D01*
X-62775503Y53172629D01*
X-62775494Y53172618D01*
X-62773938Y53171062D01*
X-62767596Y53163334D01*
X-62759981Y53144949D01*
X-62759000Y53134998D01*
X-62759000Y52360000D01*
X-62766688Y52321349D01*
X-62788582Y52288582D01*
X-62821349Y52266688D01*
X-62860000Y52259000D01*
X-62960000Y52259000D01*
X-62998651Y52266688D01*
X-63031418Y52288582D01*
X-63053312Y52321349D01*
X-63061000Y52360000D01*
X-63061000Y53135000D01*
X-63053312Y53173651D01*
X-63031418Y53206418D01*
X-62998651Y53228312D01*
X-62960000Y53236000D01*
X-62860000Y53236000D01*
X-62850050Y53235020D01*
G37*
G36*
X-60386907Y53481461D02*
G01*
X-60324943Y53440057D01*
X-60283539Y53378093D01*
X-60269000Y53305000D01*
X-60269000Y53025000D01*
X-60283539Y52951907D01*
X-60324943Y52889943D01*
X-60386907Y52848539D01*
X-60460000Y52834000D01*
X-60800000Y52834000D01*
X-60873093Y52848539D01*
X-60935057Y52889943D01*
X-60976461Y52951907D01*
X-60991000Y53025000D01*
X-60991000Y53305000D01*
X-60976461Y53378093D01*
X-60935057Y53440057D01*
X-60873093Y53481461D01*
X-60800000Y53496000D01*
X-60460000Y53496000D01*
X-60386907Y53481461D01*
G37*
G36*
X-70551907Y53621461D02*
G01*
X-70489943Y53580057D01*
X-70448539Y53518093D01*
X-70434000Y53445000D01*
X-70434000Y53165000D01*
X-70448539Y53091907D01*
X-70489943Y53029943D01*
X-70551907Y52988539D01*
X-70625000Y52974000D01*
X-70965000Y52974000D01*
X-71038093Y52988539D01*
X-71100057Y53029943D01*
X-71141461Y53091907D01*
X-71156000Y53165000D01*
X-71156000Y53445000D01*
X-71141461Y53518093D01*
X-71100057Y53580057D01*
X-71038093Y53621461D01*
X-70965000Y53636000D01*
X-70625000Y53636000D01*
X-70551907Y53621461D01*
G37*
G36*
X-68721349Y53528312D02*
G01*
X-68688582Y53506418D01*
X-68666688Y53473651D01*
X-68659000Y53435000D01*
X-68659000Y53335000D01*
X-68659980Y53325050D01*
X-68667595Y53306666D01*
X-68673938Y53298938D01*
X-68675504Y53297372D01*
X-68722372Y53250503D01*
X-68722378Y53250499D01*
X-68723938Y53248938D01*
X-68731666Y53242596D01*
X-68750051Y53234981D01*
X-68760002Y53234000D01*
X-68762208Y53234000D01*
X-69530570Y53234000D01*
X-69535000Y53234000D01*
X-69573651Y53241688D01*
X-69606418Y53263582D01*
X-69628312Y53296349D01*
X-69636000Y53335000D01*
X-69636000Y53435000D01*
X-69628312Y53473651D01*
X-69606418Y53506418D01*
X-69573651Y53528312D01*
X-69535000Y53536000D01*
X-68760000Y53536000D01*
X-68721349Y53528312D01*
G37*
G36*
X-61846349Y53528312D02*
G01*
X-61813582Y53506418D01*
X-61791688Y53473651D01*
X-61784000Y53435000D01*
X-61784000Y53335000D01*
X-61791688Y53296349D01*
X-61813582Y53263582D01*
X-61846349Y53241688D01*
X-61885000Y53234000D01*
X-62660000Y53234000D01*
X-62669950Y53234980D01*
X-62688334Y53242595D01*
X-62696062Y53248938D01*
X-62697624Y53250500D01*
X-62697629Y53250504D01*
X-62744498Y53297372D01*
X-62744508Y53297384D01*
X-62746062Y53298938D01*
X-62752404Y53306666D01*
X-62760019Y53325051D01*
X-62761000Y53335002D01*
X-62761000Y53337198D01*
X-62761001Y53337208D01*
X-62761001Y53430570D01*
X-62761000Y53430576D01*
X-62761000Y53435000D01*
X-62753312Y53473651D01*
X-62731418Y53506418D01*
X-62698651Y53528312D01*
X-62660000Y53536000D01*
X-61885000Y53536000D01*
X-61846349Y53528312D01*
G37*
G36*
X-68721349Y53928312D02*
G01*
X-68688582Y53906418D01*
X-68666688Y53873651D01*
X-68659000Y53835000D01*
X-68659000Y53735000D01*
X-68666688Y53696349D01*
X-68688582Y53663582D01*
X-68721349Y53641688D01*
X-68760000Y53634000D01*
X-69535000Y53634000D01*
X-69573651Y53641688D01*
X-69606418Y53663582D01*
X-69628312Y53696349D01*
X-69636000Y53735000D01*
X-69636000Y53835000D01*
X-69628312Y53873651D01*
X-69606418Y53906418D01*
X-69573651Y53928312D01*
X-69535000Y53936000D01*
X-68760000Y53936000D01*
X-68721349Y53928312D01*
G37*
G36*
X-61846349Y53928312D02*
G01*
X-61813582Y53906418D01*
X-61791688Y53873651D01*
X-61784000Y53835000D01*
X-61784000Y53735000D01*
X-61791688Y53696349D01*
X-61813582Y53663582D01*
X-61846349Y53641688D01*
X-61885000Y53634000D01*
X-62660000Y53634000D01*
X-62698651Y53641688D01*
X-62731418Y53663582D01*
X-62753312Y53696349D01*
X-62761000Y53735000D01*
X-62761000Y53835000D01*
X-62753312Y53873651D01*
X-62731418Y53906418D01*
X-62698651Y53928312D01*
X-62660000Y53936000D01*
X-61885000Y53936000D01*
X-61846349Y53928312D01*
G37*
G36*
X-60386907Y54441461D02*
G01*
X-60324943Y54400057D01*
X-60283539Y54338093D01*
X-60269000Y54265000D01*
X-60269000Y53985000D01*
X-60283539Y53911907D01*
X-60324943Y53849943D01*
X-60386907Y53808539D01*
X-60460000Y53794000D01*
X-60800000Y53794000D01*
X-60873093Y53808539D01*
X-60935057Y53849943D01*
X-60976461Y53911907D01*
X-60991000Y53985000D01*
X-60991000Y54265000D01*
X-60976461Y54338093D01*
X-60935057Y54400057D01*
X-60873093Y54441461D01*
X-60800000Y54456000D01*
X-60460000Y54456000D01*
X-60386907Y54441461D01*
G37*
G36*
X-70551907Y54581461D02*
G01*
X-70489943Y54540057D01*
X-70448539Y54478093D01*
X-70434000Y54405000D01*
X-70434000Y54125000D01*
X-70448539Y54051907D01*
X-70489943Y53989943D01*
X-70551907Y53948539D01*
X-70625000Y53934000D01*
X-70965000Y53934000D01*
X-71038093Y53948539D01*
X-71100057Y53989943D01*
X-71141461Y54051907D01*
X-71156000Y54125000D01*
X-71156000Y54405000D01*
X-71141461Y54478093D01*
X-71100057Y54540057D01*
X-71038093Y54581461D01*
X-70965000Y54596000D01*
X-70625000Y54596000D01*
X-70551907Y54581461D01*
G37*
G36*
X-68721349Y54328312D02*
G01*
X-68688582Y54306418D01*
X-68666688Y54273651D01*
X-68659000Y54235000D01*
X-68659000Y54135000D01*
X-68666688Y54096349D01*
X-68688582Y54063582D01*
X-68721349Y54041688D01*
X-68760000Y54034000D01*
X-69535000Y54034000D01*
X-69573651Y54041688D01*
X-69606418Y54063582D01*
X-69628312Y54096349D01*
X-69636000Y54135000D01*
X-69636000Y54235000D01*
X-69628312Y54273651D01*
X-69606418Y54306418D01*
X-69573651Y54328312D01*
X-69535000Y54336000D01*
X-68760000Y54336000D01*
X-68721349Y54328312D01*
G37*
G36*
X-61846349Y54328312D02*
G01*
X-61813582Y54306418D01*
X-61791688Y54273651D01*
X-61784000Y54235000D01*
X-61784000Y54135000D01*
X-61791688Y54096349D01*
X-61813582Y54063582D01*
X-61846349Y54041688D01*
X-61885000Y54034000D01*
X-62660000Y54034000D01*
X-62698651Y54041688D01*
X-62731418Y54063582D01*
X-62753312Y54096349D01*
X-62761000Y54135000D01*
X-62761000Y54235000D01*
X-62753312Y54273651D01*
X-62731418Y54306418D01*
X-62698651Y54328312D01*
X-62660000Y54336000D01*
X-61885000Y54336000D01*
X-61846349Y54328312D01*
G37*
G36*
X-68721349Y54728312D02*
G01*
X-68688582Y54706418D01*
X-68666688Y54673651D01*
X-68659000Y54635000D01*
X-68659000Y54535000D01*
X-68666688Y54496349D01*
X-68688582Y54463582D01*
X-68721349Y54441688D01*
X-68760000Y54434000D01*
X-69535000Y54434000D01*
X-69573651Y54441688D01*
X-69606418Y54463582D01*
X-69628312Y54496349D01*
X-69636000Y54535000D01*
X-69636000Y54635000D01*
X-69628312Y54673651D01*
X-69606418Y54706418D01*
X-69573651Y54728312D01*
X-69535000Y54736000D01*
X-68760000Y54736000D01*
X-68721349Y54728312D01*
G37*
G36*
X-64084933Y57920471D02*
G01*
X-64018750Y57876250D01*
X-63974529Y57810067D01*
X-63959000Y57732000D01*
X-63959000Y54638000D01*
X-63974529Y54559933D01*
X-64018750Y54493750D01*
X-64084933Y54449529D01*
X-64163000Y54434000D01*
X-67257000Y54434000D01*
X-67335067Y54449529D01*
X-67401250Y54493750D01*
X-67445471Y54559933D01*
X-67461000Y54638000D01*
X-67461000Y57732000D01*
X-67445471Y57810067D01*
X-67401250Y57876250D01*
X-67335067Y57920471D01*
X-67257000Y57936000D01*
X-64163000Y57936000D01*
X-64084933Y57920471D01*
G37*
G36*
X-61846349Y54728312D02*
G01*
X-61813582Y54706418D01*
X-61791688Y54673651D01*
X-61784000Y54635000D01*
X-61784000Y54535000D01*
X-61791688Y54496349D01*
X-61813582Y54463582D01*
X-61846349Y54441688D01*
X-61885000Y54434000D01*
X-62660000Y54434000D01*
X-62698651Y54441688D01*
X-62731418Y54463582D01*
X-62753312Y54496349D01*
X-62761000Y54535000D01*
X-62761000Y54635000D01*
X-62753312Y54673651D01*
X-62731418Y54706418D01*
X-62698651Y54728312D01*
X-62660000Y54736000D01*
X-61885000Y54736000D01*
X-61846349Y54728312D01*
G37*
G36*
X-74632900Y56436466D02*
G01*
X-74615048Y56440381D01*
X-74613508Y56441500D01*
X-74602192Y56443293D01*
X-74600000Y56444200D01*
X-73316197Y56444200D01*
X-73306553Y56443363D01*
X-73304640Y56443029D01*
X-73304634Y56443028D01*
X-73132405Y56412918D01*
X-73132398Y56412916D01*
X-73129996Y56412496D01*
X-73118323Y56409117D01*
X-73116060Y56408186D01*
X-73116059Y56408185D01*
X-72954583Y56341712D01*
X-72954580Y56341711D01*
X-72952320Y56340780D01*
X-72941651Y56334962D01*
X-72939650Y56333570D01*
X-72939638Y56333563D01*
X-72796312Y56233828D01*
X-72796308Y56233824D01*
X-72794297Y56232425D01*
X-72785134Y56224443D01*
X-72663370Y56092531D01*
X-72656145Y56082760D01*
X-72654912Y56080646D01*
X-72654910Y56080643D01*
X-72570552Y55936000D01*
X-72565704Y55927687D01*
X-72560757Y55916587D01*
X-72560009Y55914254D01*
X-72560007Y55914251D01*
X-72506648Y55747994D01*
X-72506647Y55747989D01*
X-72505898Y55745655D01*
X-72503462Y55733749D01*
X-72486843Y55555799D01*
X-72486600Y55550592D01*
X-72486600Y55549259D01*
X-72486979Y55542757D01*
X-72507600Y55366348D01*
X-72510171Y55354913D01*
X-72567251Y55186094D01*
X-72572147Y55175444D01*
X-72663117Y55022205D01*
X-72670122Y55012808D01*
X-72790996Y54881861D01*
X-72799804Y54874128D01*
X-72945288Y54771209D01*
X-72955512Y54765478D01*
X-73119232Y54695097D01*
X-73130425Y54691621D01*
X-73305125Y54656876D01*
X-73316049Y54655800D01*
X-73318255Y54655800D01*
X-74592873Y54655800D01*
X-74600000Y54655800D01*
X-74619683Y54663953D01*
X-74629113Y54664509D01*
X-74630167Y54664300D01*
X-74631196Y54663873D01*
X-74809236Y54628459D01*
X-74990764Y54628459D01*
X-75168804Y54663873D01*
X-75336513Y54733341D01*
X-75487448Y54834192D01*
X-75615808Y54962552D01*
X-75716659Y55113487D01*
X-75786127Y55281196D01*
X-75821541Y55459236D01*
X-75821541Y55640764D01*
X-75786127Y55818804D01*
X-75716659Y55986513D01*
X-75615808Y56137448D01*
X-75487448Y56265808D01*
X-75336513Y56366659D01*
X-75168804Y56436127D01*
X-74990764Y56471541D01*
X-74809236Y56471541D01*
X-74632900Y56436466D01*
G37*
G36*
X-56251196Y56436127D02*
G01*
X-56083487Y56366659D01*
X-55932552Y56265808D01*
X-55804192Y56137448D01*
X-55703341Y55986513D01*
X-55633873Y55818804D01*
X-55598459Y55640764D01*
X-55598459Y55459236D01*
X-55633873Y55281196D01*
X-55703341Y55113487D01*
X-55804192Y54962552D01*
X-55932552Y54834192D01*
X-56083487Y54733341D01*
X-56251196Y54663873D01*
X-56429236Y54628459D01*
X-56610764Y54628459D01*
X-56787109Y54663536D01*
X-56804967Y54659615D01*
X-56806504Y54658499D01*
X-56817807Y54656709D01*
X-56820000Y54655800D01*
X-56823541Y54655800D01*
X-58101745Y54655800D01*
X-58103951Y54655800D01*
X-58114875Y54656876D01*
X-58289575Y54691621D01*
X-58300768Y54695097D01*
X-58464488Y54765478D01*
X-58474712Y54771209D01*
X-58575492Y54842503D01*
X-58618271Y54872766D01*
X-58618273Y54872768D01*
X-58620196Y54874128D01*
X-58629004Y54881861D01*
X-58678055Y54935000D01*
X-58748279Y55011075D01*
X-58748282Y55011079D01*
X-58749878Y55012808D01*
X-58756883Y55022205D01*
X-58847853Y55175444D01*
X-58852749Y55186094D01*
X-58853504Y55188326D01*
X-58853506Y55188331D01*
X-58909071Y55352670D01*
X-58909072Y55352674D01*
X-58909829Y55354913D01*
X-58912400Y55366348D01*
X-58912674Y55368689D01*
X-58912675Y55368695D01*
X-58932870Y55541461D01*
X-58932871Y55541470D01*
X-58933021Y55542757D01*
X-58933400Y55549259D01*
X-58933400Y55550592D01*
X-58933157Y55555799D01*
X-58931883Y55569436D01*
X-58916766Y55731310D01*
X-58916766Y55731312D01*
X-58916538Y55733749D01*
X-58914102Y55745655D01*
X-58913356Y55747980D01*
X-58913353Y55747994D01*
X-58859994Y55914251D01*
X-58859990Y55914262D01*
X-58859243Y55916587D01*
X-58854296Y55927687D01*
X-58853067Y55929796D01*
X-58853062Y55929805D01*
X-58765091Y56080643D01*
X-58765085Y56080652D01*
X-58763855Y56082760D01*
X-58756630Y56092531D01*
X-58634866Y56224443D01*
X-58625703Y56232425D01*
X-58623698Y56233821D01*
X-58623689Y56233828D01*
X-58480363Y56333563D01*
X-58480347Y56333572D01*
X-58478349Y56334962D01*
X-58467680Y56340780D01*
X-58465425Y56341709D01*
X-58465418Y56341712D01*
X-58303942Y56408185D01*
X-58303939Y56408186D01*
X-58301677Y56409117D01*
X-58290004Y56412496D01*
X-58287605Y56412916D01*
X-58287596Y56412918D01*
X-58115367Y56443028D01*
X-58115360Y56443029D01*
X-58113447Y56443363D01*
X-58103803Y56444200D01*
X-56820000Y56444200D01*
X-56800321Y56436049D01*
X-56790887Y56435492D01*
X-56789829Y56435703D01*
X-56788804Y56436127D01*
X-56610764Y56471541D01*
X-56429236Y56471541D01*
X-56251196Y56436127D01*
G37*
G36*
X-68721349Y55128312D02*
G01*
X-68688582Y55106418D01*
X-68666688Y55073651D01*
X-68659000Y55035000D01*
X-68659000Y54935000D01*
X-68666688Y54896349D01*
X-68688582Y54863582D01*
X-68721349Y54841688D01*
X-68760000Y54834000D01*
X-69535000Y54834000D01*
X-69573651Y54841688D01*
X-69606418Y54863582D01*
X-69628312Y54896349D01*
X-69636000Y54935000D01*
X-69636000Y55035000D01*
X-69628312Y55073651D01*
X-69606418Y55106418D01*
X-69573651Y55128312D01*
X-69535000Y55136000D01*
X-68760000Y55136000D01*
X-68721349Y55128312D01*
G37*
G36*
X-61846349Y55128312D02*
G01*
X-61813582Y55106418D01*
X-61791688Y55073651D01*
X-61784000Y55035000D01*
X-61784000Y54935000D01*
X-61791688Y54896349D01*
X-61813582Y54863582D01*
X-61846349Y54841688D01*
X-61885000Y54834000D01*
X-62660000Y54834000D01*
X-62698651Y54841688D01*
X-62731418Y54863582D01*
X-62753312Y54896349D01*
X-62761000Y54935000D01*
X-62761000Y55035000D01*
X-62753312Y55073651D01*
X-62731418Y55106418D01*
X-62698651Y55128312D01*
X-62660000Y55136000D01*
X-61885000Y55136000D01*
X-61846349Y55128312D01*
G37*
G36*
X-68721349Y55528312D02*
G01*
X-68688582Y55506418D01*
X-68666688Y55473651D01*
X-68659000Y55435000D01*
X-68659000Y55335000D01*
X-68666688Y55296349D01*
X-68688582Y55263582D01*
X-68721349Y55241688D01*
X-68760000Y55234000D01*
X-69535000Y55234000D01*
X-69573651Y55241688D01*
X-69606418Y55263582D01*
X-69628312Y55296349D01*
X-69636000Y55335000D01*
X-69636000Y55435000D01*
X-69628312Y55473651D01*
X-69606418Y55506418D01*
X-69573651Y55528312D01*
X-69535000Y55536000D01*
X-68760000Y55536000D01*
X-68721349Y55528312D01*
G37*
G36*
X-61846349Y55528312D02*
G01*
X-61813582Y55506418D01*
X-61791688Y55473651D01*
X-61784000Y55435000D01*
X-61784000Y55335000D01*
X-61791688Y55296349D01*
X-61813582Y55263582D01*
X-61846349Y55241688D01*
X-61885000Y55234000D01*
X-62660000Y55234000D01*
X-62698651Y55241688D01*
X-62731418Y55263582D01*
X-62753312Y55296349D01*
X-62761000Y55335000D01*
X-62761000Y55435000D01*
X-62753312Y55473651D01*
X-62731418Y55506418D01*
X-62698651Y55528312D01*
X-62660000Y55536000D01*
X-61885000Y55536000D01*
X-61846349Y55528312D01*
G37*
G36*
X-70546907Y56021461D02*
G01*
X-70484943Y55980057D01*
X-70443539Y55918093D01*
X-70429000Y55845000D01*
X-70429000Y55565000D01*
X-70443539Y55491907D01*
X-70484943Y55429943D01*
X-70546907Y55388539D01*
X-70620000Y55374000D01*
X-70960000Y55374000D01*
X-71033093Y55388539D01*
X-71095057Y55429943D01*
X-71136461Y55491907D01*
X-71151000Y55565000D01*
X-71151000Y55845000D01*
X-71136461Y55918093D01*
X-71095057Y55980057D01*
X-71033093Y56021461D01*
X-70960000Y56036000D01*
X-70620000Y56036000D01*
X-70546907Y56021461D01*
G37*
G36*
X-60386907Y56021461D02*
G01*
X-60324943Y55980057D01*
X-60283539Y55918093D01*
X-60269000Y55845000D01*
X-60269000Y55565000D01*
X-60283539Y55491907D01*
X-60324943Y55429943D01*
X-60386907Y55388539D01*
X-60460000Y55374000D01*
X-60800000Y55374000D01*
X-60873093Y55388539D01*
X-60935057Y55429943D01*
X-60976461Y55491907D01*
X-60991000Y55565000D01*
X-60991000Y55845000D01*
X-60976461Y55918093D01*
X-60935057Y55980057D01*
X-60873093Y56021461D01*
X-60800000Y56036000D01*
X-60460000Y56036000D01*
X-60386907Y56021461D01*
G37*
G36*
X-68721349Y55928312D02*
G01*
X-68688582Y55906418D01*
X-68666688Y55873651D01*
X-68659000Y55835000D01*
X-68659000Y55735000D01*
X-68666688Y55696349D01*
X-68688582Y55663582D01*
X-68721349Y55641688D01*
X-68760000Y55634000D01*
X-69535000Y55634000D01*
X-69573651Y55641688D01*
X-69606418Y55663582D01*
X-69628312Y55696349D01*
X-69636000Y55735000D01*
X-69636000Y55835000D01*
X-69628312Y55873651D01*
X-69606418Y55906418D01*
X-69573651Y55928312D01*
X-69535000Y55936000D01*
X-68760000Y55936000D01*
X-68721349Y55928312D01*
G37*
G36*
X-61846349Y55928312D02*
G01*
X-61813582Y55906418D01*
X-61791688Y55873651D01*
X-61784000Y55835000D01*
X-61784000Y55735000D01*
X-61791688Y55696349D01*
X-61813582Y55663582D01*
X-61846349Y55641688D01*
X-61885000Y55634000D01*
X-62660000Y55634000D01*
X-62698651Y55641688D01*
X-62731418Y55663582D01*
X-62753312Y55696349D01*
X-62761000Y55735000D01*
X-62761000Y55835000D01*
X-62753312Y55873651D01*
X-62731418Y55906418D01*
X-62698651Y55928312D01*
X-62660000Y55936000D01*
X-61885000Y55936000D01*
X-61846349Y55928312D01*
G37*
G36*
X-68721349Y56328312D02*
G01*
X-68688582Y56306418D01*
X-68666688Y56273651D01*
X-68659000Y56235000D01*
X-68659000Y56135000D01*
X-68666688Y56096349D01*
X-68688582Y56063582D01*
X-68721349Y56041688D01*
X-68760000Y56034000D01*
X-69535000Y56034000D01*
X-69573651Y56041688D01*
X-69606418Y56063582D01*
X-69628312Y56096349D01*
X-69636000Y56135000D01*
X-69636000Y56235000D01*
X-69628312Y56273651D01*
X-69606418Y56306418D01*
X-69573651Y56328312D01*
X-69535000Y56336000D01*
X-68760000Y56336000D01*
X-68721349Y56328312D01*
G37*
G36*
X-61846349Y56328312D02*
G01*
X-61813582Y56306418D01*
X-61791688Y56273651D01*
X-61784000Y56235000D01*
X-61784000Y56135000D01*
X-61791688Y56096349D01*
X-61813582Y56063582D01*
X-61846349Y56041688D01*
X-61885000Y56034000D01*
X-62660000Y56034000D01*
X-62698651Y56041688D01*
X-62731418Y56063582D01*
X-62753312Y56096349D01*
X-62761000Y56135000D01*
X-62761000Y56235000D01*
X-62753312Y56273651D01*
X-62731418Y56306418D01*
X-62698651Y56328312D01*
X-62660000Y56336000D01*
X-61885000Y56336000D01*
X-61846349Y56328312D01*
G37*
G36*
X-70546907Y56981461D02*
G01*
X-70484943Y56940057D01*
X-70443539Y56878093D01*
X-70429000Y56805000D01*
X-70429000Y56525000D01*
X-70443539Y56451907D01*
X-70484943Y56389943D01*
X-70546907Y56348539D01*
X-70620000Y56334000D01*
X-70960000Y56334000D01*
X-71033093Y56348539D01*
X-71095057Y56389943D01*
X-71136461Y56451907D01*
X-71151000Y56525000D01*
X-71151000Y56805000D01*
X-71136461Y56878093D01*
X-71095057Y56940057D01*
X-71033093Y56981461D01*
X-70960000Y56996000D01*
X-70620000Y56996000D01*
X-70546907Y56981461D01*
G37*
G36*
X-60386907Y56981461D02*
G01*
X-60324943Y56940057D01*
X-60283539Y56878093D01*
X-60269000Y56805000D01*
X-60269000Y56525000D01*
X-60283539Y56451907D01*
X-60324943Y56389943D01*
X-60386907Y56348539D01*
X-60460000Y56334000D01*
X-60800000Y56334000D01*
X-60873093Y56348539D01*
X-60935057Y56389943D01*
X-60976461Y56451907D01*
X-60991000Y56525000D01*
X-60991000Y56805000D01*
X-60976461Y56878093D01*
X-60935057Y56940057D01*
X-60873093Y56981461D01*
X-60800000Y56996000D01*
X-60460000Y56996000D01*
X-60386907Y56981461D01*
G37*
G36*
X-68721349Y56728312D02*
G01*
X-68688582Y56706418D01*
X-68666688Y56673651D01*
X-68659000Y56635000D01*
X-68659000Y56535000D01*
X-68666688Y56496349D01*
X-68688582Y56463582D01*
X-68721349Y56441688D01*
X-68760000Y56434000D01*
X-69535000Y56434000D01*
X-69573651Y56441688D01*
X-69606418Y56463582D01*
X-69628312Y56496349D01*
X-69636000Y56535000D01*
X-69636000Y56635000D01*
X-69628312Y56673651D01*
X-69606418Y56706418D01*
X-69573651Y56728312D01*
X-69535000Y56736000D01*
X-68760000Y56736000D01*
X-68721349Y56728312D01*
G37*
G36*
X-61846349Y56728312D02*
G01*
X-61813582Y56706418D01*
X-61791688Y56673651D01*
X-61784000Y56635000D01*
X-61784000Y56535000D01*
X-61791688Y56496349D01*
X-61813582Y56463582D01*
X-61846349Y56441688D01*
X-61885000Y56434000D01*
X-62660000Y56434000D01*
X-62698651Y56441688D01*
X-62731418Y56463582D01*
X-62753312Y56496349D01*
X-62761000Y56535000D01*
X-62761000Y56635000D01*
X-62753312Y56673651D01*
X-62731418Y56706418D01*
X-62698651Y56728312D01*
X-62660000Y56736000D01*
X-61885000Y56736000D01*
X-61846349Y56728312D01*
G37*
G36*
X-68721349Y57128312D02*
G01*
X-68688582Y57106418D01*
X-68666688Y57073651D01*
X-68659000Y57035000D01*
X-68659000Y56935000D01*
X-68666688Y56896349D01*
X-68688582Y56863582D01*
X-68721349Y56841688D01*
X-68760000Y56834000D01*
X-69535000Y56834000D01*
X-69573651Y56841688D01*
X-69606418Y56863582D01*
X-69628312Y56896349D01*
X-69636000Y56935000D01*
X-69636000Y57035000D01*
X-69628312Y57073651D01*
X-69606418Y57106418D01*
X-69573651Y57128312D01*
X-69535000Y57136000D01*
X-68760000Y57136000D01*
X-68721349Y57128312D01*
G37*
G36*
X-61846349Y57128312D02*
G01*
X-61813582Y57106418D01*
X-61791688Y57073651D01*
X-61784000Y57035000D01*
X-61784000Y56935000D01*
X-61791688Y56896349D01*
X-61813582Y56863582D01*
X-61846349Y56841688D01*
X-61885000Y56834000D01*
X-62660000Y56834000D01*
X-62698651Y56841688D01*
X-62731418Y56863582D01*
X-62753312Y56896349D01*
X-62761000Y56935000D01*
X-62761000Y57035000D01*
X-62753312Y57073651D01*
X-62731418Y57106418D01*
X-62698651Y57128312D01*
X-62660000Y57136000D01*
X-61885000Y57136000D01*
X-61846349Y57128312D01*
G37*
G36*
X-74632900Y58976466D02*
G01*
X-74615048Y58980381D01*
X-74613508Y58981500D01*
X-74602192Y58983293D01*
X-74600000Y58984200D01*
X-73316197Y58984200D01*
X-73306553Y58983363D01*
X-73304640Y58983029D01*
X-73304634Y58983028D01*
X-73132405Y58952918D01*
X-73132398Y58952916D01*
X-73129996Y58952496D01*
X-73118323Y58949117D01*
X-73116060Y58948186D01*
X-73116059Y58948185D01*
X-72954583Y58881712D01*
X-72954580Y58881711D01*
X-72952320Y58880780D01*
X-72941651Y58874962D01*
X-72939650Y58873570D01*
X-72939638Y58873563D01*
X-72796312Y58773828D01*
X-72796308Y58773824D01*
X-72794297Y58772425D01*
X-72785134Y58764443D01*
X-72663370Y58632531D01*
X-72656145Y58622760D01*
X-72654912Y58620646D01*
X-72654910Y58620643D01*
X-72582618Y58496689D01*
X-72565704Y58467687D01*
X-72560757Y58456587D01*
X-72560009Y58454254D01*
X-72560007Y58454251D01*
X-72506648Y58287994D01*
X-72506647Y58287989D01*
X-72505898Y58285655D01*
X-72503462Y58273749D01*
X-72486843Y58095799D01*
X-72486600Y58090592D01*
X-72486600Y58089259D01*
X-72486979Y58082757D01*
X-72507600Y57906348D01*
X-72510171Y57894913D01*
X-72567251Y57726094D01*
X-72572147Y57715444D01*
X-72663117Y57562205D01*
X-72670122Y57552808D01*
X-72790996Y57421861D01*
X-72799804Y57414128D01*
X-72945288Y57311209D01*
X-72955512Y57305478D01*
X-73119232Y57235097D01*
X-73130425Y57231621D01*
X-73305125Y57196876D01*
X-73316049Y57195800D01*
X-73318255Y57195800D01*
X-74592873Y57195800D01*
X-74600000Y57195800D01*
X-74619683Y57203953D01*
X-74629113Y57204509D01*
X-74630167Y57204300D01*
X-74631196Y57203873D01*
X-74809236Y57168459D01*
X-74990764Y57168459D01*
X-75168804Y57203873D01*
X-75336513Y57273341D01*
X-75487448Y57374192D01*
X-75615808Y57502552D01*
X-75716659Y57653487D01*
X-75786127Y57821196D01*
X-75821541Y57999236D01*
X-75821541Y58180764D01*
X-75786127Y58358804D01*
X-75716659Y58526513D01*
X-75615808Y58677448D01*
X-75487448Y58805808D01*
X-75336513Y58906659D01*
X-75168804Y58976127D01*
X-74990764Y59011541D01*
X-74809236Y59011541D01*
X-74632900Y58976466D01*
G37*
G36*
X-56251196Y58976127D02*
G01*
X-56083487Y58906659D01*
X-55932552Y58805808D01*
X-55804192Y58677448D01*
X-55703341Y58526513D01*
X-55633873Y58358804D01*
X-55598459Y58180764D01*
X-55598459Y57999236D01*
X-55633873Y57821196D01*
X-55703341Y57653487D01*
X-55804192Y57502552D01*
X-55932552Y57374192D01*
X-56083487Y57273341D01*
X-56251196Y57203873D01*
X-56429236Y57168459D01*
X-56610764Y57168459D01*
X-56787109Y57203536D01*
X-56804967Y57199615D01*
X-56806504Y57198499D01*
X-56817807Y57196709D01*
X-56820000Y57195800D01*
X-56823541Y57195800D01*
X-58101745Y57195800D01*
X-58103951Y57195800D01*
X-58114875Y57196876D01*
X-58289575Y57231621D01*
X-58300768Y57235097D01*
X-58464488Y57305478D01*
X-58474712Y57311209D01*
X-58620196Y57414128D01*
X-58629004Y57421861D01*
X-58703616Y57502691D01*
X-58748279Y57551075D01*
X-58748282Y57551079D01*
X-58749878Y57552808D01*
X-58756883Y57562205D01*
X-58847853Y57715444D01*
X-58852749Y57726094D01*
X-58853504Y57728326D01*
X-58853506Y57728331D01*
X-58909071Y57892670D01*
X-58909072Y57892674D01*
X-58909829Y57894913D01*
X-58912400Y57906348D01*
X-58912674Y57908689D01*
X-58912675Y57908695D01*
X-58932870Y58081461D01*
X-58932871Y58081470D01*
X-58933021Y58082757D01*
X-58933400Y58089259D01*
X-58933400Y58090592D01*
X-58933157Y58095799D01*
X-58931883Y58109436D01*
X-58916766Y58271310D01*
X-58916766Y58271312D01*
X-58916538Y58273749D01*
X-58914102Y58285655D01*
X-58913356Y58287980D01*
X-58913353Y58287994D01*
X-58859994Y58454251D01*
X-58859990Y58454262D01*
X-58859243Y58456587D01*
X-58854296Y58467687D01*
X-58853067Y58469796D01*
X-58853062Y58469805D01*
X-58765091Y58620643D01*
X-58765085Y58620652D01*
X-58763855Y58622760D01*
X-58756630Y58632531D01*
X-58668969Y58727498D01*
X-58636525Y58762646D01*
X-58636524Y58762648D01*
X-58634866Y58764443D01*
X-58625703Y58772425D01*
X-58623698Y58773821D01*
X-58623689Y58773828D01*
X-58480363Y58873563D01*
X-58480347Y58873572D01*
X-58478349Y58874962D01*
X-58467680Y58880780D01*
X-58465425Y58881709D01*
X-58465418Y58881712D01*
X-58303942Y58948185D01*
X-58303939Y58948186D01*
X-58301677Y58949117D01*
X-58290004Y58952496D01*
X-58287605Y58952916D01*
X-58287596Y58952918D01*
X-58115367Y58983028D01*
X-58115360Y58983029D01*
X-58113447Y58983363D01*
X-58103803Y58984200D01*
X-56820000Y58984200D01*
X-56800321Y58976049D01*
X-56790887Y58975492D01*
X-56789829Y58975703D01*
X-56788804Y58976127D01*
X-56610764Y59011541D01*
X-56429236Y59011541D01*
X-56251196Y58976127D01*
G37*
G36*
X-68721349Y57528312D02*
G01*
X-68688582Y57506418D01*
X-68666688Y57473651D01*
X-68659000Y57435000D01*
X-68659000Y57335000D01*
X-68666688Y57296349D01*
X-68688582Y57263582D01*
X-68721349Y57241688D01*
X-68760000Y57234000D01*
X-69535000Y57234000D01*
X-69573651Y57241688D01*
X-69606418Y57263582D01*
X-69628312Y57296349D01*
X-69636000Y57335000D01*
X-69636000Y57435000D01*
X-69628312Y57473651D01*
X-69606418Y57506418D01*
X-69573651Y57528312D01*
X-69535000Y57536000D01*
X-68760000Y57536000D01*
X-68721349Y57528312D01*
G37*
G36*
X-61846349Y57528312D02*
G01*
X-61813582Y57506418D01*
X-61791688Y57473651D01*
X-61784000Y57435000D01*
X-61784000Y57335000D01*
X-61791688Y57296349D01*
X-61813582Y57263582D01*
X-61846349Y57241688D01*
X-61885000Y57234000D01*
X-62660000Y57234000D01*
X-62698651Y57241688D01*
X-62731418Y57263582D01*
X-62753312Y57296349D01*
X-62761000Y57335000D01*
X-62761000Y57435000D01*
X-62753312Y57473651D01*
X-62731418Y57506418D01*
X-62698651Y57528312D01*
X-62660000Y57536000D01*
X-61885000Y57536000D01*
X-61846349Y57528312D01*
G37*
G36*
X-68721349Y57928312D02*
G01*
X-68688582Y57906418D01*
X-68666688Y57873651D01*
X-68659000Y57835000D01*
X-68659000Y57735000D01*
X-68666688Y57696349D01*
X-68688582Y57663582D01*
X-68721349Y57641688D01*
X-68760000Y57634000D01*
X-69535000Y57634000D01*
X-69573651Y57641688D01*
X-69606418Y57663582D01*
X-69628312Y57696349D01*
X-69636000Y57735000D01*
X-69636000Y57835000D01*
X-69628312Y57873651D01*
X-69606418Y57906418D01*
X-69573651Y57928312D01*
X-69535000Y57936000D01*
X-68760000Y57936000D01*
X-68721349Y57928312D01*
G37*
G36*
X-61846349Y57928312D02*
G01*
X-61813582Y57906418D01*
X-61791688Y57873651D01*
X-61784000Y57835000D01*
X-61784000Y57735000D01*
X-61791688Y57696349D01*
X-61813582Y57663582D01*
X-61846349Y57641688D01*
X-61885000Y57634000D01*
X-62660000Y57634000D01*
X-62698651Y57641688D01*
X-62731418Y57663582D01*
X-62753312Y57696349D01*
X-62761000Y57735000D01*
X-62761000Y57835000D01*
X-62753312Y57873651D01*
X-62731418Y57906418D01*
X-62698651Y57928312D01*
X-62660000Y57936000D01*
X-61885000Y57936000D01*
X-61846349Y57928312D01*
G37*
G36*
X-70551907Y58421461D02*
G01*
X-70489943Y58380057D01*
X-70448539Y58318093D01*
X-70434000Y58245000D01*
X-70434000Y57965000D01*
X-70448539Y57891907D01*
X-70489943Y57829943D01*
X-70551907Y57788539D01*
X-70625000Y57774000D01*
X-70965000Y57774000D01*
X-71038093Y57788539D01*
X-71100057Y57829943D01*
X-71141461Y57891907D01*
X-71156000Y57965000D01*
X-71156000Y58245000D01*
X-71141461Y58318093D01*
X-71100057Y58380057D01*
X-71038093Y58421461D01*
X-70965000Y58436000D01*
X-70625000Y58436000D01*
X-70551907Y58421461D01*
G37*
G36*
X-60386907Y58561461D02*
G01*
X-60324943Y58520057D01*
X-60283539Y58458093D01*
X-60269000Y58385000D01*
X-60269000Y58105000D01*
X-60283539Y58031907D01*
X-60324943Y57969943D01*
X-60386907Y57928539D01*
X-60460000Y57914000D01*
X-60800000Y57914000D01*
X-60873093Y57928539D01*
X-60935057Y57969943D01*
X-60976461Y58031907D01*
X-60991000Y58105000D01*
X-60991000Y58385000D01*
X-60976461Y58458093D01*
X-60935057Y58520057D01*
X-60873093Y58561461D01*
X-60800000Y58576000D01*
X-60460000Y58576000D01*
X-60386907Y58561461D01*
G37*
G36*
X-68721349Y58328312D02*
G01*
X-68688582Y58306418D01*
X-68666688Y58273651D01*
X-68659000Y58235000D01*
X-68659000Y58135000D01*
X-68666688Y58096349D01*
X-68688582Y58063582D01*
X-68721349Y58041688D01*
X-68760000Y58034000D01*
X-69535000Y58034000D01*
X-69573651Y58041688D01*
X-69606418Y58063582D01*
X-69628312Y58096349D01*
X-69636000Y58135000D01*
X-69636000Y58235000D01*
X-69628312Y58273651D01*
X-69606418Y58306418D01*
X-69573651Y58328312D01*
X-69535000Y58336000D01*
X-68760000Y58336000D01*
X-68721349Y58328312D01*
G37*
G36*
X-61846349Y58328312D02*
G01*
X-61813582Y58306418D01*
X-61791688Y58273651D01*
X-61784000Y58235000D01*
X-61784000Y58135000D01*
X-61791688Y58096349D01*
X-61813582Y58063582D01*
X-61846349Y58041688D01*
X-61885000Y58034000D01*
X-62660000Y58034000D01*
X-62698651Y58041688D01*
X-62731418Y58063582D01*
X-62753312Y58096349D01*
X-62761000Y58135000D01*
X-62761000Y58235000D01*
X-62753312Y58273651D01*
X-62731418Y58306418D01*
X-62698651Y58328312D01*
X-62660000Y58336000D01*
X-61885000Y58336000D01*
X-61846349Y58328312D01*
G37*
G36*
X-68721349Y58728312D02*
G01*
X-68688582Y58706418D01*
X-68666688Y58673651D01*
X-68659000Y58635000D01*
X-68659000Y58535000D01*
X-68666688Y58496349D01*
X-68688582Y58463582D01*
X-68721349Y58441688D01*
X-68760000Y58434000D01*
X-69535000Y58434000D01*
X-69573651Y58441688D01*
X-69606418Y58463582D01*
X-69628312Y58496349D01*
X-69636000Y58535000D01*
X-69636000Y58635000D01*
X-69628312Y58673651D01*
X-69606418Y58706418D01*
X-69573651Y58728312D01*
X-69535000Y58736000D01*
X-68760000Y58736000D01*
X-68721349Y58728312D01*
G37*
G36*
X-61846349Y58728312D02*
G01*
X-61813582Y58706418D01*
X-61791688Y58673651D01*
X-61784000Y58635000D01*
X-61784000Y58535000D01*
X-61791688Y58496349D01*
X-61813582Y58463582D01*
X-61846349Y58441688D01*
X-61885000Y58434000D01*
X-62660000Y58434000D01*
X-62698651Y58441688D01*
X-62731418Y58463582D01*
X-62753312Y58496349D01*
X-62761000Y58535000D01*
X-62761000Y58635000D01*
X-62753312Y58673651D01*
X-62731418Y58706418D01*
X-62698651Y58728312D01*
X-62660000Y58736000D01*
X-61885000Y58736000D01*
X-61846349Y58728312D01*
G37*
G36*
X-70551907Y59381461D02*
G01*
X-70489943Y59340057D01*
X-70448539Y59278093D01*
X-70434000Y59205000D01*
X-70434000Y58925000D01*
X-70448539Y58851907D01*
X-70489943Y58789943D01*
X-70551907Y58748539D01*
X-70625000Y58734000D01*
X-70965000Y58734000D01*
X-71038093Y58748539D01*
X-71100057Y58789943D01*
X-71141461Y58851907D01*
X-71156000Y58925000D01*
X-71156000Y59205000D01*
X-71141461Y59278093D01*
X-71100057Y59340057D01*
X-71038093Y59381461D01*
X-70965000Y59396000D01*
X-70625000Y59396000D01*
X-70551907Y59381461D01*
G37*
G36*
X-68750050Y59135020D02*
G01*
X-68731666Y59127405D01*
X-68723938Y59121062D01*
X-68722378Y59119502D01*
X-68722372Y59119497D01*
X-68675503Y59072629D01*
X-68675494Y59072618D01*
X-68673938Y59071062D01*
X-68667596Y59063334D01*
X-68659981Y59044949D01*
X-68659000Y59034998D01*
X-68659000Y58935000D01*
X-68666688Y58896349D01*
X-68688582Y58863582D01*
X-68721349Y58841688D01*
X-68760000Y58834000D01*
X-69535000Y58834000D01*
X-69573651Y58841688D01*
X-69606418Y58863582D01*
X-69628312Y58896349D01*
X-69636000Y58935000D01*
X-69636000Y59035000D01*
X-69628312Y59073651D01*
X-69606418Y59106418D01*
X-69573651Y59128312D01*
X-69535000Y59136000D01*
X-68760000Y59136000D01*
X-68750050Y59135020D01*
G37*
G36*
X-61889426Y59136000D02*
G01*
X-61885000Y59136000D01*
X-61846349Y59128312D01*
X-61813582Y59106418D01*
X-61791688Y59073651D01*
X-61784000Y59035000D01*
X-61784000Y58935000D01*
X-61791688Y58896349D01*
X-61813582Y58863582D01*
X-61846349Y58841688D01*
X-61885000Y58834000D01*
X-62660000Y58834000D01*
X-62698651Y58841688D01*
X-62731418Y58863582D01*
X-62753312Y58896349D01*
X-62761000Y58935000D01*
X-62761000Y59035000D01*
X-62760020Y59044950D01*
X-62752405Y59063334D01*
X-62746062Y59071062D01*
X-62744507Y59072618D01*
X-62744497Y59072629D01*
X-62697629Y59119498D01*
X-62697613Y59119512D01*
X-62696062Y59121062D01*
X-62688334Y59127404D01*
X-62669949Y59135019D01*
X-62659998Y59136000D01*
X-62657803Y59136000D01*
X-62657793Y59136001D01*
X-61889431Y59136001D01*
X-61889426Y59136000D01*
G37*
G36*
X-60386907Y59521461D02*
G01*
X-60324943Y59480057D01*
X-60283539Y59418093D01*
X-60269000Y59345000D01*
X-60269000Y59065000D01*
X-60283539Y58991907D01*
X-60324943Y58929943D01*
X-60386907Y58888539D01*
X-60460000Y58874000D01*
X-60800000Y58874000D01*
X-60873093Y58888539D01*
X-60935057Y58929943D01*
X-60976461Y58991907D01*
X-60991000Y59065000D01*
X-60991000Y59345000D01*
X-60976461Y59418093D01*
X-60935057Y59480057D01*
X-60873093Y59521461D01*
X-60800000Y59536000D01*
X-60460000Y59536000D01*
X-60386907Y59521461D01*
G37*
G36*
X-68421349Y60103312D02*
G01*
X-68388582Y60081418D01*
X-68366688Y60048651D01*
X-68359000Y60010000D01*
X-68359000Y59235000D01*
X-68366688Y59196349D01*
X-68388582Y59163582D01*
X-68421349Y59141688D01*
X-68460000Y59134000D01*
X-68560000Y59134000D01*
X-68569950Y59134980D01*
X-68588334Y59142595D01*
X-68596062Y59148938D01*
X-68597624Y59150500D01*
X-68597629Y59150504D01*
X-68644498Y59197372D01*
X-68644508Y59197384D01*
X-68646062Y59198938D01*
X-68652404Y59206666D01*
X-68660019Y59225051D01*
X-68661000Y59235002D01*
X-68661000Y59237198D01*
X-68661001Y59237208D01*
X-68661001Y60005570D01*
X-68661000Y60005576D01*
X-68661000Y60010000D01*
X-68653312Y60048651D01*
X-68631418Y60081418D01*
X-68598651Y60103312D01*
X-68560000Y60111000D01*
X-68460000Y60111000D01*
X-68421349Y60103312D01*
G37*
G36*
X-68021349Y60103312D02*
G01*
X-67988582Y60081418D01*
X-67966688Y60048651D01*
X-67959000Y60010000D01*
X-67959000Y59235000D01*
X-67966688Y59196349D01*
X-67988582Y59163582D01*
X-68021349Y59141688D01*
X-68060000Y59134000D01*
X-68160000Y59134000D01*
X-68198651Y59141688D01*
X-68231418Y59163582D01*
X-68253312Y59196349D01*
X-68261000Y59235000D01*
X-68261000Y60010000D01*
X-68253312Y60048651D01*
X-68231418Y60081418D01*
X-68198651Y60103312D01*
X-68160000Y60111000D01*
X-68060000Y60111000D01*
X-68021349Y60103312D01*
G37*
G36*
X-67621349Y60103312D02*
G01*
X-67588582Y60081418D01*
X-67566688Y60048651D01*
X-67559000Y60010000D01*
X-67559000Y59235000D01*
X-67566688Y59196349D01*
X-67588582Y59163582D01*
X-67621349Y59141688D01*
X-67660000Y59134000D01*
X-67760000Y59134000D01*
X-67798651Y59141688D01*
X-67831418Y59163582D01*
X-67853312Y59196349D01*
X-67861000Y59235000D01*
X-67861000Y60010000D01*
X-67853312Y60048651D01*
X-67831418Y60081418D01*
X-67798651Y60103312D01*
X-67760000Y60111000D01*
X-67660000Y60111000D01*
X-67621349Y60103312D01*
G37*
G36*
X-67221349Y60103312D02*
G01*
X-67188582Y60081418D01*
X-67166688Y60048651D01*
X-67159000Y60010000D01*
X-67159000Y59235000D01*
X-67166688Y59196349D01*
X-67188582Y59163582D01*
X-67221349Y59141688D01*
X-67260000Y59134000D01*
X-67360000Y59134000D01*
X-67398651Y59141688D01*
X-67431418Y59163582D01*
X-67453312Y59196349D01*
X-67461000Y59235000D01*
X-67461000Y60010000D01*
X-67453312Y60048651D01*
X-67431418Y60081418D01*
X-67398651Y60103312D01*
X-67360000Y60111000D01*
X-67260000Y60111000D01*
X-67221349Y60103312D01*
G37*
G36*
X-66821349Y60103312D02*
G01*
X-66788582Y60081418D01*
X-66766688Y60048651D01*
X-66759000Y60010000D01*
X-66759000Y59235000D01*
X-66766688Y59196349D01*
X-66788582Y59163582D01*
X-66821349Y59141688D01*
X-66860000Y59134000D01*
X-66960000Y59134000D01*
X-66998651Y59141688D01*
X-67031418Y59163582D01*
X-67053312Y59196349D01*
X-67061000Y59235000D01*
X-67061000Y60010000D01*
X-67053312Y60048651D01*
X-67031418Y60081418D01*
X-66998651Y60103312D01*
X-66960000Y60111000D01*
X-66860000Y60111000D01*
X-66821349Y60103312D01*
G37*
G36*
X-66421349Y60103312D02*
G01*
X-66388582Y60081418D01*
X-66366688Y60048651D01*
X-66359000Y60010000D01*
X-66359000Y59235000D01*
X-66366688Y59196349D01*
X-66388582Y59163582D01*
X-66421349Y59141688D01*
X-66460000Y59134000D01*
X-66560000Y59134000D01*
X-66598651Y59141688D01*
X-66631418Y59163582D01*
X-66653312Y59196349D01*
X-66661000Y59235000D01*
X-66661000Y60010000D01*
X-66653312Y60048651D01*
X-66631418Y60081418D01*
X-66598651Y60103312D01*
X-66560000Y60111000D01*
X-66460000Y60111000D01*
X-66421349Y60103312D01*
G37*
G36*
X-66021349Y60103312D02*
G01*
X-65988582Y60081418D01*
X-65966688Y60048651D01*
X-65959000Y60010000D01*
X-65959000Y59235000D01*
X-65966688Y59196349D01*
X-65988582Y59163582D01*
X-66021349Y59141688D01*
X-66060000Y59134000D01*
X-66160000Y59134000D01*
X-66198651Y59141688D01*
X-66231418Y59163582D01*
X-66253312Y59196349D01*
X-66261000Y59235000D01*
X-66261000Y60010000D01*
X-66253312Y60048651D01*
X-66231418Y60081418D01*
X-66198651Y60103312D01*
X-66160000Y60111000D01*
X-66060000Y60111000D01*
X-66021349Y60103312D01*
G37*
G36*
X-65621349Y60103312D02*
G01*
X-65588582Y60081418D01*
X-65566688Y60048651D01*
X-65559000Y60010000D01*
X-65559000Y59235000D01*
X-65566688Y59196349D01*
X-65588582Y59163582D01*
X-65621349Y59141688D01*
X-65660000Y59134000D01*
X-65760000Y59134000D01*
X-65798651Y59141688D01*
X-65831418Y59163582D01*
X-65853312Y59196349D01*
X-65861000Y59235000D01*
X-65861000Y60010000D01*
X-65853312Y60048651D01*
X-65831418Y60081418D01*
X-65798651Y60103312D01*
X-65760000Y60111000D01*
X-65660000Y60111000D01*
X-65621349Y60103312D01*
G37*
G36*
X-65221349Y60103312D02*
G01*
X-65188582Y60081418D01*
X-65166688Y60048651D01*
X-65159000Y60010000D01*
X-65159000Y59235000D01*
X-65166688Y59196349D01*
X-65188582Y59163582D01*
X-65221349Y59141688D01*
X-65260000Y59134000D01*
X-65360000Y59134000D01*
X-65398651Y59141688D01*
X-65431418Y59163582D01*
X-65453312Y59196349D01*
X-65461000Y59235000D01*
X-65461000Y60010000D01*
X-65453312Y60048651D01*
X-65431418Y60081418D01*
X-65398651Y60103312D01*
X-65360000Y60111000D01*
X-65260000Y60111000D01*
X-65221349Y60103312D01*
G37*
G36*
X-64821349Y60103312D02*
G01*
X-64788582Y60081418D01*
X-64766688Y60048651D01*
X-64759000Y60010000D01*
X-64759000Y59235000D01*
X-64766688Y59196349D01*
X-64788582Y59163582D01*
X-64821349Y59141688D01*
X-64860000Y59134000D01*
X-64960000Y59134000D01*
X-64998651Y59141688D01*
X-65031418Y59163582D01*
X-65053312Y59196349D01*
X-65061000Y59235000D01*
X-65061000Y60010000D01*
X-65053312Y60048651D01*
X-65031418Y60081418D01*
X-64998651Y60103312D01*
X-64960000Y60111000D01*
X-64860000Y60111000D01*
X-64821349Y60103312D01*
G37*
G36*
X-64421349Y60103312D02*
G01*
X-64388582Y60081418D01*
X-64366688Y60048651D01*
X-64359000Y60010000D01*
X-64359000Y59235000D01*
X-64366688Y59196349D01*
X-64388582Y59163582D01*
X-64421349Y59141688D01*
X-64460000Y59134000D01*
X-64560000Y59134000D01*
X-64598651Y59141688D01*
X-64631418Y59163582D01*
X-64653312Y59196349D01*
X-64661000Y59235000D01*
X-64661000Y60010000D01*
X-64653312Y60048651D01*
X-64631418Y60081418D01*
X-64598651Y60103312D01*
X-64560000Y60111000D01*
X-64460000Y60111000D01*
X-64421349Y60103312D01*
G37*
G36*
X-64021349Y60103312D02*
G01*
X-63988582Y60081418D01*
X-63966688Y60048651D01*
X-63959000Y60010000D01*
X-63959000Y59235000D01*
X-63966688Y59196349D01*
X-63988582Y59163582D01*
X-64021349Y59141688D01*
X-64060000Y59134000D01*
X-64160000Y59134000D01*
X-64198651Y59141688D01*
X-64231418Y59163582D01*
X-64253312Y59196349D01*
X-64261000Y59235000D01*
X-64261000Y60010000D01*
X-64253312Y60048651D01*
X-64231418Y60081418D01*
X-64198651Y60103312D01*
X-64160000Y60111000D01*
X-64060000Y60111000D01*
X-64021349Y60103312D01*
G37*
G36*
X-63621349Y60103312D02*
G01*
X-63588582Y60081418D01*
X-63566688Y60048651D01*
X-63559000Y60010000D01*
X-63559000Y59235000D01*
X-63566688Y59196349D01*
X-63588582Y59163582D01*
X-63621349Y59141688D01*
X-63660000Y59134000D01*
X-63760000Y59134000D01*
X-63798651Y59141688D01*
X-63831418Y59163582D01*
X-63853312Y59196349D01*
X-63861000Y59235000D01*
X-63861000Y60010000D01*
X-63853312Y60048651D01*
X-63831418Y60081418D01*
X-63798651Y60103312D01*
X-63760000Y60111000D01*
X-63660000Y60111000D01*
X-63621349Y60103312D01*
G37*
G36*
X-63221349Y60103312D02*
G01*
X-63188582Y60081418D01*
X-63166688Y60048651D01*
X-63159000Y60010000D01*
X-63159000Y59235000D01*
X-63166688Y59196349D01*
X-63188582Y59163582D01*
X-63221349Y59141688D01*
X-63260000Y59134000D01*
X-63360000Y59134000D01*
X-63398651Y59141688D01*
X-63431418Y59163582D01*
X-63453312Y59196349D01*
X-63461000Y59235000D01*
X-63461000Y60010000D01*
X-63453312Y60048651D01*
X-63431418Y60081418D01*
X-63398651Y60103312D01*
X-63360000Y60111000D01*
X-63260000Y60111000D01*
X-63221349Y60103312D01*
G37*
G36*
X-62821349Y60103312D02*
G01*
X-62788582Y60081418D01*
X-62766688Y60048651D01*
X-62759000Y60010000D01*
X-62759000Y59235000D01*
X-62759980Y59225050D01*
X-62767595Y59206666D01*
X-62773938Y59198938D01*
X-62775504Y59197372D01*
X-62822372Y59150503D01*
X-62822378Y59150499D01*
X-62823938Y59148938D01*
X-62831666Y59142596D01*
X-62850051Y59134981D01*
X-62860002Y59134000D01*
X-62862208Y59134000D01*
X-62955570Y59134000D01*
X-62960000Y59134000D01*
X-62998651Y59141688D01*
X-63031418Y59163582D01*
X-63053312Y59196349D01*
X-63061000Y59235000D01*
X-63061000Y60010000D01*
X-63053312Y60048651D01*
X-63031418Y60081418D01*
X-62998651Y60103312D01*
X-62960000Y60111000D01*
X-62860000Y60111000D01*
X-62821349Y60103312D01*
G37*
G36*
X-74632900Y61516466D02*
G01*
X-74615048Y61520381D01*
X-74613508Y61521500D01*
X-74602192Y61523293D01*
X-74600000Y61524200D01*
X-73316197Y61524200D01*
X-73306553Y61523363D01*
X-73304640Y61523029D01*
X-73304634Y61523028D01*
X-73132405Y61492918D01*
X-73132398Y61492916D01*
X-73129996Y61492496D01*
X-73118323Y61489117D01*
X-73116060Y61488186D01*
X-73116059Y61488185D01*
X-72954583Y61421712D01*
X-72954580Y61421711D01*
X-72952320Y61420780D01*
X-72941651Y61414962D01*
X-72939650Y61413570D01*
X-72939638Y61413563D01*
X-72796312Y61313828D01*
X-72796308Y61313824D01*
X-72794297Y61312425D01*
X-72785134Y61304443D01*
X-72663370Y61172531D01*
X-72656145Y61162760D01*
X-72654912Y61160646D01*
X-72654910Y61160643D01*
X-72574194Y61022245D01*
X-72565704Y61007687D01*
X-72560757Y60996587D01*
X-72560009Y60994254D01*
X-72560007Y60994251D01*
X-72506648Y60827994D01*
X-72506647Y60827989D01*
X-72505898Y60825655D01*
X-72503462Y60813749D01*
X-72486843Y60635799D01*
X-72486600Y60630592D01*
X-72486600Y60629259D01*
X-72486979Y60622757D01*
X-72507600Y60446348D01*
X-72510171Y60434913D01*
X-72567251Y60266094D01*
X-72572147Y60255444D01*
X-72663117Y60102205D01*
X-72670122Y60092808D01*
X-72790996Y59961861D01*
X-72799804Y59954128D01*
X-72945288Y59851209D01*
X-72955512Y59845478D01*
X-73119232Y59775097D01*
X-73130425Y59771621D01*
X-73305125Y59736876D01*
X-73316049Y59735800D01*
X-73318255Y59735800D01*
X-74592873Y59735800D01*
X-74600000Y59735800D01*
X-74619683Y59743953D01*
X-74629113Y59744509D01*
X-74630167Y59744300D01*
X-74631196Y59743873D01*
X-74809236Y59708459D01*
X-74990764Y59708459D01*
X-75168804Y59743873D01*
X-75336513Y59813341D01*
X-75487448Y59914192D01*
X-75615808Y60042552D01*
X-75716659Y60193487D01*
X-75786127Y60361196D01*
X-75821541Y60539236D01*
X-75821541Y60720764D01*
X-75786127Y60898804D01*
X-75716659Y61066513D01*
X-75615808Y61217448D01*
X-75487448Y61345808D01*
X-75336513Y61446659D01*
X-75168804Y61516127D01*
X-74990764Y61551541D01*
X-74809236Y61551541D01*
X-74632900Y61516466D01*
G37*
G36*
X-56251196Y61516127D02*
G01*
X-56083487Y61446659D01*
X-55932552Y61345808D01*
X-55804192Y61217448D01*
X-55703341Y61066513D01*
X-55633873Y60898804D01*
X-55598459Y60720764D01*
X-55598459Y60539236D01*
X-55633873Y60361196D01*
X-55703341Y60193487D01*
X-55804192Y60042552D01*
X-55932552Y59914192D01*
X-56083487Y59813341D01*
X-56251196Y59743873D01*
X-56429236Y59708459D01*
X-56610764Y59708459D01*
X-56787109Y59743536D01*
X-56804967Y59739615D01*
X-56806504Y59738499D01*
X-56817807Y59736709D01*
X-56820000Y59735800D01*
X-56823541Y59735800D01*
X-58101745Y59735800D01*
X-58103951Y59735800D01*
X-58114875Y59736876D01*
X-58289575Y59771621D01*
X-58300768Y59775097D01*
X-58464488Y59845478D01*
X-58474712Y59851209D01*
X-58620196Y59954128D01*
X-58629004Y59961861D01*
X-58709118Y60048651D01*
X-58748279Y60091075D01*
X-58748282Y60091079D01*
X-58749878Y60092808D01*
X-58756883Y60102205D01*
X-58847853Y60255444D01*
X-58852749Y60266094D01*
X-58853504Y60268326D01*
X-58853506Y60268331D01*
X-58909071Y60432670D01*
X-58909072Y60432674D01*
X-58909829Y60434913D01*
X-58912400Y60446348D01*
X-58912674Y60448689D01*
X-58912675Y60448695D01*
X-58932870Y60621461D01*
X-58932871Y60621470D01*
X-58933021Y60622757D01*
X-58933400Y60629259D01*
X-58933400Y60630592D01*
X-58933157Y60635799D01*
X-58931883Y60649436D01*
X-58916766Y60811310D01*
X-58916766Y60811312D01*
X-58916538Y60813749D01*
X-58914102Y60825655D01*
X-58913356Y60827980D01*
X-58913353Y60827994D01*
X-58859994Y60994251D01*
X-58859990Y60994262D01*
X-58859243Y60996587D01*
X-58854296Y61007687D01*
X-58853067Y61009796D01*
X-58853062Y61009805D01*
X-58765091Y61160643D01*
X-58765085Y61160652D01*
X-58763855Y61162760D01*
X-58756630Y61172531D01*
X-58634866Y61304443D01*
X-58625703Y61312425D01*
X-58623698Y61313821D01*
X-58623689Y61313828D01*
X-58480363Y61413563D01*
X-58480347Y61413572D01*
X-58478349Y61414962D01*
X-58467680Y61420780D01*
X-58465425Y61421709D01*
X-58465418Y61421712D01*
X-58303942Y61488185D01*
X-58303939Y61488186D01*
X-58301677Y61489117D01*
X-58290004Y61492496D01*
X-58287605Y61492916D01*
X-58287596Y61492918D01*
X-58115367Y61523028D01*
X-58115360Y61523029D01*
X-58113447Y61523363D01*
X-58103803Y61524200D01*
X-56820000Y61524200D01*
X-56800321Y61516049D01*
X-56790887Y61515492D01*
X-56789829Y61515703D01*
X-56788804Y61516127D01*
X-56610764Y61551541D01*
X-56429236Y61551541D01*
X-56251196Y61516127D01*
G37*
G36*
X-61656907Y61101461D02*
G01*
X-61594943Y61060057D01*
X-61553539Y60998093D01*
X-61539000Y60925000D01*
X-61539000Y60645000D01*
X-61553539Y60571907D01*
X-61594943Y60509943D01*
X-61656907Y60468539D01*
X-61730000Y60454000D01*
X-62070000Y60454000D01*
X-62143093Y60468539D01*
X-62205057Y60509943D01*
X-62246461Y60571907D01*
X-62261000Y60645000D01*
X-62261000Y60925000D01*
X-62246461Y60998093D01*
X-62205057Y61060057D01*
X-62143093Y61101461D01*
X-62070000Y61116000D01*
X-61730000Y61116000D01*
X-61656907Y61101461D01*
G37*
G36*
X-63970483Y61097118D02*
G01*
X-63953938Y61086062D01*
X-63942882Y61069517D01*
X-63939000Y61050000D01*
X-63939000Y60520000D01*
X-63942882Y60500483D01*
X-63953938Y60483938D01*
X-63970483Y60472882D01*
X-63990000Y60469000D01*
X-64460000Y60469000D01*
X-64479517Y60472882D01*
X-64496062Y60483938D01*
X-64507118Y60500483D01*
X-64511000Y60520000D01*
X-64511000Y61050000D01*
X-64507118Y61069517D01*
X-64496062Y61086062D01*
X-64479517Y61097118D01*
X-64460000Y61101000D01*
X-63990000Y61101000D01*
X-63970483Y61097118D01*
G37*
G36*
X-62940483Y61097118D02*
G01*
X-62923938Y61086062D01*
X-62912882Y61069517D01*
X-62909000Y61050000D01*
X-62909000Y60520000D01*
X-62912882Y60500483D01*
X-62923938Y60483938D01*
X-62940483Y60472882D01*
X-62960000Y60469000D01*
X-63430000Y60469000D01*
X-63449517Y60472882D01*
X-63466062Y60483938D01*
X-63477118Y60500483D01*
X-63481000Y60520000D01*
X-63481000Y61050000D01*
X-63477118Y61069517D01*
X-63466062Y61086062D01*
X-63449517Y61097118D01*
X-63430000Y61101000D01*
X-62960000Y61101000D01*
X-62940483Y61097118D01*
G37*
G36*
X-65976907Y61611461D02*
G01*
X-65914943Y61570057D01*
X-65873539Y61508093D01*
X-65859000Y61435000D01*
X-65859000Y61095000D01*
X-65873539Y61021907D01*
X-65914943Y60959943D01*
X-65976907Y60918539D01*
X-66050000Y60904000D01*
X-66330000Y60904000D01*
X-66403093Y60918539D01*
X-66465057Y60959943D01*
X-66506461Y61021907D01*
X-66521000Y61095000D01*
X-66521000Y61435000D01*
X-66506461Y61508093D01*
X-66465057Y61570057D01*
X-66403093Y61611461D01*
X-66330000Y61626000D01*
X-66050000Y61626000D01*
X-65976907Y61611461D01*
G37*
G36*
X-65016907Y61611461D02*
G01*
X-64954943Y61570057D01*
X-64913539Y61508093D01*
X-64899000Y61435000D01*
X-64899000Y61095000D01*
X-64913539Y61021907D01*
X-64954943Y60959943D01*
X-65016907Y60918539D01*
X-65090000Y60904000D01*
X-65370000Y60904000D01*
X-65443093Y60918539D01*
X-65505057Y60959943D01*
X-65546461Y61021907D01*
X-65561000Y61095000D01*
X-65561000Y61435000D01*
X-65546461Y61508093D01*
X-65505057Y61570057D01*
X-65443093Y61611461D01*
X-65370000Y61626000D01*
X-65090000Y61626000D01*
X-65016907Y61611461D01*
G37*
G36*
X-61656907Y62061461D02*
G01*
X-61594943Y62020057D01*
X-61553539Y61958093D01*
X-61539000Y61885000D01*
X-61539000Y61605000D01*
X-61553539Y61531907D01*
X-61594943Y61469943D01*
X-61656907Y61428539D01*
X-61730000Y61414000D01*
X-62070000Y61414000D01*
X-62143093Y61428539D01*
X-62205057Y61469943D01*
X-62246461Y61531907D01*
X-62261000Y61605000D01*
X-62261000Y61885000D01*
X-62246461Y61958093D01*
X-62205057Y62020057D01*
X-62143093Y62061461D01*
X-62070000Y62076000D01*
X-61730000Y62076000D01*
X-61656907Y62061461D01*
G37*
G36*
X-63970483Y62047118D02*
G01*
X-63953938Y62036062D01*
X-63942882Y62019517D01*
X-63939000Y62000000D01*
X-63939000Y61470000D01*
X-63942882Y61450483D01*
X-63953938Y61433938D01*
X-63970483Y61422882D01*
X-63990000Y61419000D01*
X-64460000Y61419000D01*
X-64479517Y61422882D01*
X-64496062Y61433938D01*
X-64507118Y61450483D01*
X-64511000Y61470000D01*
X-64511000Y62000000D01*
X-64507118Y62019517D01*
X-64496062Y62036062D01*
X-64479517Y62047118D01*
X-64460000Y62051000D01*
X-63990000Y62051000D01*
X-63970483Y62047118D01*
G37*
G36*
X-62940483Y62047118D02*
G01*
X-62923938Y62036062D01*
X-62912882Y62019517D01*
X-62909000Y62000000D01*
X-62909000Y61470000D01*
X-62912882Y61450483D01*
X-62923938Y61433938D01*
X-62940483Y61422882D01*
X-62960000Y61419000D01*
X-63430000Y61419000D01*
X-63449517Y61422882D01*
X-63466062Y61433938D01*
X-63477118Y61450483D01*
X-63481000Y61470000D01*
X-63481000Y62000000D01*
X-63477118Y62019517D01*
X-63466062Y62036062D01*
X-63449517Y62047118D01*
X-63430000Y62051000D01*
X-62960000Y62051000D01*
X-62940483Y62047118D01*
G37*
G36*
X-68973081Y63365700D02*
G01*
X-68907872Y63322128D01*
X-68864300Y63256919D01*
X-68849000Y63180000D01*
X-68849000Y62155000D01*
X-68864300Y62078081D01*
X-68907872Y62012872D01*
X-68973081Y61969300D01*
X-69050000Y61954000D01*
X-69350000Y61954000D01*
X-69426919Y61969300D01*
X-69492128Y62012872D01*
X-69535700Y62078081D01*
X-69551000Y62155000D01*
X-69551000Y63180000D01*
X-69535700Y63256919D01*
X-69492128Y63322128D01*
X-69426919Y63365700D01*
X-69350000Y63381000D01*
X-69050000Y63381000D01*
X-68973081Y63365700D01*
G37*
G36*
X-67073081Y63365700D02*
G01*
X-67007872Y63322128D01*
X-66964300Y63256919D01*
X-66949000Y63180000D01*
X-66949000Y62155000D01*
X-66964300Y62078081D01*
X-67007872Y62012872D01*
X-67073081Y61969300D01*
X-67150000Y61954000D01*
X-67450000Y61954000D01*
X-67526919Y61969300D01*
X-67592128Y62012872D01*
X-67635700Y62078081D01*
X-67651000Y62155000D01*
X-67651000Y63180000D01*
X-67635700Y63256919D01*
X-67592128Y63322128D01*
X-67526919Y63365700D01*
X-67450000Y63381000D01*
X-67150000Y63381000D01*
X-67073081Y63365700D01*
G37*
G36*
X-74632900Y64056466D02*
G01*
X-74615048Y64060381D01*
X-74613508Y64061500D01*
X-74602192Y64063293D01*
X-74600000Y64064200D01*
X-73316197Y64064200D01*
X-73306553Y64063363D01*
X-73304640Y64063029D01*
X-73304634Y64063028D01*
X-73132405Y64032918D01*
X-73132398Y64032916D01*
X-73129996Y64032496D01*
X-73118323Y64029117D01*
X-73116060Y64028186D01*
X-73116059Y64028185D01*
X-72954583Y63961712D01*
X-72954580Y63961711D01*
X-72952320Y63960780D01*
X-72941651Y63954962D01*
X-72939650Y63953570D01*
X-72939638Y63953563D01*
X-72796312Y63853828D01*
X-72796308Y63853824D01*
X-72794297Y63852425D01*
X-72785134Y63844443D01*
X-72663370Y63712531D01*
X-72656145Y63702760D01*
X-72654912Y63700646D01*
X-72654910Y63700643D01*
X-72566939Y63549805D01*
X-72565704Y63547687D01*
X-72560757Y63536587D01*
X-72560009Y63534254D01*
X-72560007Y63534251D01*
X-72506648Y63367994D01*
X-72506647Y63367989D01*
X-72505898Y63365655D01*
X-72503462Y63353749D01*
X-72486843Y63175799D01*
X-72486600Y63170592D01*
X-72486600Y63169259D01*
X-72486979Y63162757D01*
X-72507600Y62986348D01*
X-72510171Y62974913D01*
X-72567251Y62806094D01*
X-72572147Y62795444D01*
X-72663117Y62642205D01*
X-72670122Y62632808D01*
X-72790996Y62501861D01*
X-72799804Y62494128D01*
X-72945288Y62391209D01*
X-72955512Y62385478D01*
X-73119232Y62315097D01*
X-73130425Y62311621D01*
X-73305125Y62276876D01*
X-73316049Y62275800D01*
X-73318255Y62275800D01*
X-74592873Y62275800D01*
X-74600000Y62275800D01*
X-74619683Y62283953D01*
X-74629113Y62284509D01*
X-74630167Y62284300D01*
X-74631196Y62283873D01*
X-74809236Y62248459D01*
X-74990764Y62248459D01*
X-75168804Y62283873D01*
X-75336513Y62353341D01*
X-75487448Y62454192D01*
X-75615808Y62582552D01*
X-75716659Y62733487D01*
X-75786127Y62901196D01*
X-75821541Y63079236D01*
X-75821541Y63260764D01*
X-75786127Y63438804D01*
X-75716659Y63606513D01*
X-75615808Y63757448D01*
X-75487448Y63885808D01*
X-75336513Y63986659D01*
X-75168804Y64056127D01*
X-74990764Y64091541D01*
X-74809236Y64091541D01*
X-74632900Y64056466D01*
G37*
G36*
X-56251196Y64056127D02*
G01*
X-56083487Y63986659D01*
X-55932552Y63885808D01*
X-55804192Y63757448D01*
X-55703341Y63606513D01*
X-55633873Y63438804D01*
X-55598459Y63260764D01*
X-55598459Y63079236D01*
X-55633873Y62901196D01*
X-55703341Y62733487D01*
X-55804192Y62582552D01*
X-55932552Y62454192D01*
X-56083487Y62353341D01*
X-56251196Y62283873D01*
X-56429236Y62248459D01*
X-56610764Y62248459D01*
X-56787109Y62283536D01*
X-56804967Y62279615D01*
X-56806504Y62278499D01*
X-56817807Y62276709D01*
X-56820000Y62275800D01*
X-56823541Y62275800D01*
X-58101745Y62275800D01*
X-58103951Y62275800D01*
X-58114875Y62276876D01*
X-58289575Y62311621D01*
X-58300768Y62315097D01*
X-58464488Y62385478D01*
X-58474712Y62391209D01*
X-58568088Y62457265D01*
X-58618271Y62492766D01*
X-58618273Y62492768D01*
X-58620196Y62494128D01*
X-58629004Y62501861D01*
X-58703616Y62582691D01*
X-58748279Y62631075D01*
X-58748282Y62631079D01*
X-58749878Y62632808D01*
X-58756883Y62642205D01*
X-58847853Y62795444D01*
X-58852749Y62806094D01*
X-58853504Y62808326D01*
X-58853506Y62808331D01*
X-58909071Y62972670D01*
X-58909072Y62972674D01*
X-58909829Y62974913D01*
X-58912400Y62986348D01*
X-58912674Y62988689D01*
X-58912675Y62988695D01*
X-58932870Y63161461D01*
X-58932871Y63161470D01*
X-58933021Y63162757D01*
X-58933400Y63169259D01*
X-58933400Y63170592D01*
X-58933157Y63175799D01*
X-58931883Y63189436D01*
X-58916766Y63351310D01*
X-58916766Y63351312D01*
X-58916538Y63353749D01*
X-58914102Y63365655D01*
X-58913356Y63367980D01*
X-58913353Y63367994D01*
X-58859994Y63534251D01*
X-58859990Y63534262D01*
X-58859243Y63536587D01*
X-58854296Y63547687D01*
X-58853067Y63549796D01*
X-58853062Y63549805D01*
X-58765091Y63700643D01*
X-58765085Y63700652D01*
X-58763855Y63702760D01*
X-58756630Y63712531D01*
X-58634866Y63844443D01*
X-58625703Y63852425D01*
X-58623698Y63853821D01*
X-58623689Y63853828D01*
X-58480363Y63953563D01*
X-58480347Y63953572D01*
X-58478349Y63954962D01*
X-58467680Y63960780D01*
X-58465425Y63961709D01*
X-58465418Y63961712D01*
X-58303942Y64028185D01*
X-58303939Y64028186D01*
X-58301677Y64029117D01*
X-58290004Y64032496D01*
X-58287605Y64032916D01*
X-58287596Y64032918D01*
X-58115367Y64063028D01*
X-58115360Y64063029D01*
X-58113447Y64063363D01*
X-58103803Y64064200D01*
X-56820000Y64064200D01*
X-56800321Y64056049D01*
X-56790887Y64055492D01*
X-56789829Y64055703D01*
X-56788804Y64056127D01*
X-56610764Y64091541D01*
X-56429236Y64091541D01*
X-56251196Y64056127D01*
G37*
G36*
X-61643821Y62966842D02*
G01*
X-61583478Y62926522D01*
X-61543158Y62866179D01*
X-61529000Y62795000D01*
X-61529000Y62525000D01*
X-61543158Y62453821D01*
X-61583478Y62393478D01*
X-61643821Y62353158D01*
X-61715000Y62339000D01*
X-62085000Y62339000D01*
X-62156179Y62353158D01*
X-62216522Y62393478D01*
X-62256842Y62453821D01*
X-62271000Y62525000D01*
X-62271000Y62795000D01*
X-62256842Y62866179D01*
X-62216522Y62926522D01*
X-62156179Y62966842D01*
X-62085000Y62981000D01*
X-61715000Y62981000D01*
X-61643821Y62966842D01*
G37*
G36*
X-64040483Y64282118D02*
G01*
X-64023938Y64271062D01*
X-64012882Y64254517D01*
X-64009000Y64235000D01*
X-64009000Y62535000D01*
X-64012882Y62515483D01*
X-64023938Y62498938D01*
X-64040483Y62487882D01*
X-64060000Y62484000D01*
X-64760000Y62484000D01*
X-64779517Y62487882D01*
X-64796062Y62498938D01*
X-64807118Y62515483D01*
X-64811000Y62535000D01*
X-64811000Y64235000D01*
X-64807118Y64254517D01*
X-64796062Y64271062D01*
X-64779517Y64282118D01*
X-64760000Y64286000D01*
X-64060000Y64286000D01*
X-64040483Y64282118D01*
G37*
G36*
X-62640483Y64282118D02*
G01*
X-62623938Y64271062D01*
X-62612882Y64254517D01*
X-62609000Y64235000D01*
X-62609000Y62535000D01*
X-62612882Y62515483D01*
X-62623938Y62498938D01*
X-62640483Y62487882D01*
X-62660000Y62484000D01*
X-63360000Y62484000D01*
X-63379517Y62487882D01*
X-63396062Y62498938D01*
X-63407118Y62515483D01*
X-63411000Y62535000D01*
X-63411000Y64235000D01*
X-63407118Y64254517D01*
X-63396062Y64271062D01*
X-63379517Y64282118D01*
X-63360000Y64286000D01*
X-62660000Y64286000D01*
X-62640483Y64282118D01*
G37*
G36*
X-70546907Y63641461D02*
G01*
X-70484943Y63600057D01*
X-70443539Y63538093D01*
X-70429000Y63465000D01*
X-70429000Y63185000D01*
X-70443539Y63111907D01*
X-70484943Y63049943D01*
X-70546907Y63008539D01*
X-70620000Y62994000D01*
X-70960000Y62994000D01*
X-71033093Y63008539D01*
X-71095057Y63049943D01*
X-71136461Y63111907D01*
X-71151000Y63185000D01*
X-71151000Y63465000D01*
X-71136461Y63538093D01*
X-71095057Y63600057D01*
X-71033093Y63641461D01*
X-70960000Y63656000D01*
X-70620000Y63656000D01*
X-70546907Y63641461D01*
G37*
G36*
X-61643821Y63986842D02*
G01*
X-61583478Y63946522D01*
X-61543158Y63886179D01*
X-61529000Y63815000D01*
X-61529000Y63545000D01*
X-61543158Y63473821D01*
X-61583478Y63413478D01*
X-61643821Y63373158D01*
X-61715000Y63359000D01*
X-62085000Y63359000D01*
X-62156179Y63373158D01*
X-62216522Y63413478D01*
X-62256842Y63473821D01*
X-62271000Y63545000D01*
X-62271000Y63815000D01*
X-62256842Y63886179D01*
X-62216522Y63946522D01*
X-62156179Y63986842D01*
X-62085000Y64001000D01*
X-61715000Y64001000D01*
X-61643821Y63986842D01*
G37*
G36*
X-70546907Y64601461D02*
G01*
X-70484943Y64560057D01*
X-70443539Y64498093D01*
X-70429000Y64425000D01*
X-70429000Y64145000D01*
X-70443539Y64071907D01*
X-70484943Y64009943D01*
X-70546907Y63968539D01*
X-70620000Y63954000D01*
X-70960000Y63954000D01*
X-71033093Y63968539D01*
X-71095057Y64009943D01*
X-71136461Y64071907D01*
X-71151000Y64145000D01*
X-71151000Y64425000D01*
X-71136461Y64498093D01*
X-71095057Y64560057D01*
X-71033093Y64601461D01*
X-70960000Y64616000D01*
X-70620000Y64616000D01*
X-70546907Y64601461D01*
G37*
G36*
X-68023081Y65640700D02*
G01*
X-67957872Y65597128D01*
X-67914300Y65531919D01*
X-67899000Y65455000D01*
X-67899000Y64430000D01*
X-67914300Y64353081D01*
X-67957872Y64287872D01*
X-68023081Y64244300D01*
X-68100000Y64229000D01*
X-68400000Y64229000D01*
X-68476919Y64244300D01*
X-68542128Y64287872D01*
X-68585700Y64353081D01*
X-68601000Y64430000D01*
X-68601000Y65455000D01*
X-68585700Y65531919D01*
X-68542128Y65597128D01*
X-68476919Y65640700D01*
X-68400000Y65656000D01*
X-68100000Y65656000D01*
X-68023081Y65640700D01*
G37*
G36*
X-74632900Y66596466D02*
G01*
X-74615048Y66600381D01*
X-74613508Y66601500D01*
X-74602192Y66603293D01*
X-74600000Y66604200D01*
X-73316197Y66604200D01*
X-73306553Y66603363D01*
X-73304640Y66603029D01*
X-73304634Y66603028D01*
X-73132405Y66572918D01*
X-73132398Y66572916D01*
X-73129996Y66572496D01*
X-73118323Y66569117D01*
X-73116060Y66568186D01*
X-73116059Y66568185D01*
X-72954583Y66501712D01*
X-72954580Y66501711D01*
X-72952320Y66500780D01*
X-72941651Y66494962D01*
X-72939650Y66493570D01*
X-72939638Y66493563D01*
X-72796312Y66393828D01*
X-72796308Y66393824D01*
X-72794297Y66392425D01*
X-72785134Y66384443D01*
X-72663370Y66252531D01*
X-72656145Y66242760D01*
X-72654912Y66240646D01*
X-72654910Y66240643D01*
X-72566939Y66089805D01*
X-72565704Y66087687D01*
X-72560757Y66076587D01*
X-72560009Y66074254D01*
X-72560007Y66074251D01*
X-72506648Y65907994D01*
X-72506647Y65907989D01*
X-72505898Y65905655D01*
X-72503462Y65893749D01*
X-72486843Y65715799D01*
X-72486600Y65710592D01*
X-72486600Y65709259D01*
X-72486979Y65702757D01*
X-72507600Y65526348D01*
X-72510171Y65514913D01*
X-72567251Y65346094D01*
X-72572147Y65335444D01*
X-72663117Y65182205D01*
X-72670122Y65172808D01*
X-72790996Y65041861D01*
X-72799804Y65034128D01*
X-72945288Y64931209D01*
X-72955512Y64925478D01*
X-73119232Y64855097D01*
X-73130425Y64851621D01*
X-73305125Y64816876D01*
X-73316049Y64815800D01*
X-73318255Y64815800D01*
X-74592873Y64815800D01*
X-74600000Y64815800D01*
X-74619683Y64823953D01*
X-74629113Y64824509D01*
X-74630167Y64824300D01*
X-74631196Y64823873D01*
X-74809236Y64788459D01*
X-74990764Y64788459D01*
X-75168804Y64823873D01*
X-75336513Y64893341D01*
X-75487448Y64994192D01*
X-75615808Y65122552D01*
X-75716659Y65273487D01*
X-75786127Y65441196D01*
X-75821541Y65619236D01*
X-75821541Y65800764D01*
X-75786127Y65978804D01*
X-75716659Y66146513D01*
X-75615808Y66297448D01*
X-75487448Y66425808D01*
X-75336513Y66526659D01*
X-75168804Y66596127D01*
X-74990764Y66631541D01*
X-74809236Y66631541D01*
X-74632900Y66596466D01*
G37*
G36*
X-56251196Y66596127D02*
G01*
X-56083487Y66526659D01*
X-55932552Y66425808D01*
X-55804192Y66297448D01*
X-55703341Y66146513D01*
X-55633873Y65978804D01*
X-55598459Y65800764D01*
X-55598459Y65619236D01*
X-55633873Y65441196D01*
X-55703341Y65273487D01*
X-55804192Y65122552D01*
X-55932552Y64994192D01*
X-56083487Y64893341D01*
X-56251196Y64823873D01*
X-56429236Y64788459D01*
X-56610764Y64788459D01*
X-56787109Y64823536D01*
X-56804967Y64819615D01*
X-56806504Y64818499D01*
X-56817807Y64816709D01*
X-56820000Y64815800D01*
X-56823541Y64815800D01*
X-58101745Y64815800D01*
X-58103951Y64815800D01*
X-58114875Y64816876D01*
X-58289575Y64851621D01*
X-58300768Y64855097D01*
X-58464488Y64925478D01*
X-58474712Y64931209D01*
X-58620196Y65034128D01*
X-58629004Y65041861D01*
X-58703616Y65122691D01*
X-58748279Y65171075D01*
X-58748282Y65171079D01*
X-58749878Y65172808D01*
X-58756883Y65182205D01*
X-58847853Y65335444D01*
X-58852749Y65346094D01*
X-58853504Y65348326D01*
X-58853506Y65348331D01*
X-58909071Y65512670D01*
X-58909072Y65512674D01*
X-58909829Y65514913D01*
X-58912400Y65526348D01*
X-58912674Y65528689D01*
X-58912675Y65528695D01*
X-58932870Y65701461D01*
X-58932871Y65701470D01*
X-58933021Y65702757D01*
X-58933400Y65709259D01*
X-58933400Y65710592D01*
X-58933157Y65715799D01*
X-58916538Y65893749D01*
X-58914102Y65905655D01*
X-58913356Y65907980D01*
X-58913353Y65907994D01*
X-58859994Y66074251D01*
X-58859990Y66074262D01*
X-58859243Y66076587D01*
X-58854296Y66087687D01*
X-58853067Y66089796D01*
X-58853062Y66089805D01*
X-58765091Y66240643D01*
X-58765085Y66240652D01*
X-58763855Y66242760D01*
X-58756630Y66252531D01*
X-58634866Y66384443D01*
X-58625703Y66392425D01*
X-58623698Y66393821D01*
X-58623689Y66393828D01*
X-58480363Y66493563D01*
X-58480347Y66493572D01*
X-58478349Y66494962D01*
X-58467680Y66500780D01*
X-58465425Y66501709D01*
X-58465418Y66501712D01*
X-58303942Y66568185D01*
X-58303939Y66568186D01*
X-58301677Y66569117D01*
X-58290004Y66572496D01*
X-58287605Y66572916D01*
X-58287596Y66572918D01*
X-58115367Y66603028D01*
X-58115360Y66603029D01*
X-58113447Y66603363D01*
X-58103803Y66604200D01*
X-56820000Y66604200D01*
X-56800321Y66596049D01*
X-56790887Y66595492D01*
X-56789829Y66595703D01*
X-56788804Y66596127D01*
X-56610764Y66631541D01*
X-56429236Y66631541D01*
X-56251196Y66596127D01*
G37*
G36*
X-67358821Y66776842D02*
G01*
X-67298478Y66736522D01*
X-67258158Y66676179D01*
X-67244000Y66605000D01*
X-67244000Y66335000D01*
X-67258158Y66263821D01*
X-67298478Y66203478D01*
X-67358821Y66163158D01*
X-67430000Y66149000D01*
X-67800000Y66149000D01*
X-67871179Y66163158D01*
X-67931522Y66203478D01*
X-67971842Y66263821D01*
X-67986000Y66335000D01*
X-67986000Y66605000D01*
X-67971842Y66676179D01*
X-67931522Y66736522D01*
X-67871179Y66776842D01*
X-67800000Y66791000D01*
X-67430000Y66791000D01*
X-67358821Y66776842D01*
G37*
G36*
X-66088821Y66776842D02*
G01*
X-66028478Y66736522D01*
X-65988158Y66676179D01*
X-65974000Y66605000D01*
X-65974000Y66335000D01*
X-65988158Y66263821D01*
X-66028478Y66203478D01*
X-66088821Y66163158D01*
X-66160000Y66149000D01*
X-66530000Y66149000D01*
X-66601179Y66163158D01*
X-66661522Y66203478D01*
X-66701842Y66263821D01*
X-66716000Y66335000D01*
X-66716000Y66605000D01*
X-66701842Y66676179D01*
X-66661522Y66736522D01*
X-66601179Y66776842D01*
X-66530000Y66791000D01*
X-66160000Y66791000D01*
X-66088821Y66776842D01*
G37*
G36*
X-64818821Y66776842D02*
G01*
X-64758478Y66736522D01*
X-64718158Y66676179D01*
X-64704000Y66605000D01*
X-64704000Y66335000D01*
X-64718158Y66263821D01*
X-64758478Y66203478D01*
X-64818821Y66163158D01*
X-64890000Y66149000D01*
X-65260000Y66149000D01*
X-65331179Y66163158D01*
X-65391522Y66203478D01*
X-65431842Y66263821D01*
X-65446000Y66335000D01*
X-65446000Y66605000D01*
X-65431842Y66676179D01*
X-65391522Y66736522D01*
X-65331179Y66776842D01*
X-65260000Y66791000D01*
X-64890000Y66791000D01*
X-64818821Y66776842D01*
G37*
G36*
X-63548821Y66776842D02*
G01*
X-63488478Y66736522D01*
X-63448158Y66676179D01*
X-63434000Y66605000D01*
X-63434000Y66335000D01*
X-63448158Y66263821D01*
X-63488478Y66203478D01*
X-63548821Y66163158D01*
X-63620000Y66149000D01*
X-63990000Y66149000D01*
X-64061179Y66163158D01*
X-64121522Y66203478D01*
X-64161842Y66263821D01*
X-64176000Y66335000D01*
X-64176000Y66605000D01*
X-64161842Y66676179D01*
X-64121522Y66736522D01*
X-64061179Y66776842D01*
X-63990000Y66791000D01*
X-63620000Y66791000D01*
X-63548821Y66776842D01*
G37*
G36*
X-67358821Y67796842D02*
G01*
X-67298478Y67756522D01*
X-67258158Y67696179D01*
X-67244000Y67625000D01*
X-67244000Y67355000D01*
X-67258158Y67283821D01*
X-67298478Y67223478D01*
X-67358821Y67183158D01*
X-67430000Y67169000D01*
X-67800000Y67169000D01*
X-67871179Y67183158D01*
X-67931522Y67223478D01*
X-67971842Y67283821D01*
X-67986000Y67355000D01*
X-67986000Y67625000D01*
X-67971842Y67696179D01*
X-67931522Y67756522D01*
X-67871179Y67796842D01*
X-67800000Y67811000D01*
X-67430000Y67811000D01*
X-67358821Y67796842D01*
G37*
G36*
X-66088821Y67796842D02*
G01*
X-66028478Y67756522D01*
X-65988158Y67696179D01*
X-65974000Y67625000D01*
X-65974000Y67355000D01*
X-65988158Y67283821D01*
X-66028478Y67223478D01*
X-66088821Y67183158D01*
X-66160000Y67169000D01*
X-66530000Y67169000D01*
X-66601179Y67183158D01*
X-66661522Y67223478D01*
X-66701842Y67283821D01*
X-66716000Y67355000D01*
X-66716000Y67625000D01*
X-66701842Y67696179D01*
X-66661522Y67756522D01*
X-66601179Y67796842D01*
X-66530000Y67811000D01*
X-66160000Y67811000D01*
X-66088821Y67796842D01*
G37*
G36*
X-64818821Y67796842D02*
G01*
X-64758478Y67756522D01*
X-64718158Y67696179D01*
X-64704000Y67625000D01*
X-64704000Y67355000D01*
X-64718158Y67283821D01*
X-64758478Y67223478D01*
X-64818821Y67183158D01*
X-64890000Y67169000D01*
X-65260000Y67169000D01*
X-65331179Y67183158D01*
X-65391522Y67223478D01*
X-65431842Y67283821D01*
X-65446000Y67355000D01*
X-65446000Y67625000D01*
X-65431842Y67696179D01*
X-65391522Y67756522D01*
X-65331179Y67796842D01*
X-65260000Y67811000D01*
X-64890000Y67811000D01*
X-64818821Y67796842D01*
G37*
G36*
X-63548821Y67796842D02*
G01*
X-63488478Y67756522D01*
X-63448158Y67696179D01*
X-63434000Y67625000D01*
X-63434000Y67355000D01*
X-63448158Y67283821D01*
X-63488478Y67223478D01*
X-63548821Y67183158D01*
X-63620000Y67169000D01*
X-63990000Y67169000D01*
X-64061179Y67183158D01*
X-64121522Y67223478D01*
X-64161842Y67283821D01*
X-64176000Y67355000D01*
X-64176000Y67625000D01*
X-64161842Y67696179D01*
X-64121522Y67756522D01*
X-64061179Y67796842D01*
X-63990000Y67811000D01*
X-63620000Y67811000D01*
X-63548821Y67796842D01*
G37*
G36*
X-74632900Y69136466D02*
G01*
X-74615048Y69140381D01*
X-74613508Y69141500D01*
X-74602192Y69143293D01*
X-74600000Y69144200D01*
X-73316197Y69144200D01*
X-73306553Y69143363D01*
X-73304640Y69143029D01*
X-73304634Y69143028D01*
X-73132405Y69112918D01*
X-73132398Y69112916D01*
X-73129996Y69112496D01*
X-73118323Y69109117D01*
X-73116060Y69108186D01*
X-73116059Y69108185D01*
X-72954583Y69041712D01*
X-72954580Y69041711D01*
X-72952320Y69040780D01*
X-72941651Y69034962D01*
X-72939650Y69033570D01*
X-72939638Y69033563D01*
X-72796312Y68933828D01*
X-72796308Y68933824D01*
X-72794297Y68932425D01*
X-72785134Y68924443D01*
X-72663370Y68792531D01*
X-72656145Y68782760D01*
X-72654912Y68780646D01*
X-72654910Y68780643D01*
X-72566939Y68629805D01*
X-72565704Y68627687D01*
X-72560757Y68616587D01*
X-72560009Y68614254D01*
X-72560007Y68614251D01*
X-72506648Y68447994D01*
X-72506647Y68447989D01*
X-72505898Y68445655D01*
X-72503462Y68433749D01*
X-72486843Y68255799D01*
X-72486600Y68250592D01*
X-72486600Y68249259D01*
X-72486979Y68242757D01*
X-72507600Y68066348D01*
X-72510171Y68054913D01*
X-72567251Y67886094D01*
X-72572147Y67875444D01*
X-72663117Y67722205D01*
X-72670122Y67712808D01*
X-72790996Y67581861D01*
X-72799804Y67574128D01*
X-72945288Y67471209D01*
X-72955512Y67465478D01*
X-73119232Y67395097D01*
X-73130425Y67391621D01*
X-73305125Y67356876D01*
X-73316049Y67355800D01*
X-73318255Y67355800D01*
X-74592873Y67355800D01*
X-74600000Y67355800D01*
X-74619683Y67363953D01*
X-74629113Y67364509D01*
X-74630167Y67364300D01*
X-74631196Y67363873D01*
X-74809236Y67328459D01*
X-74990764Y67328459D01*
X-75168804Y67363873D01*
X-75336513Y67433341D01*
X-75487448Y67534192D01*
X-75615808Y67662552D01*
X-75716659Y67813487D01*
X-75786127Y67981196D01*
X-75821541Y68159236D01*
X-75821541Y68340764D01*
X-75786127Y68518804D01*
X-75716659Y68686513D01*
X-75615808Y68837448D01*
X-75487448Y68965808D01*
X-75336513Y69066659D01*
X-75168804Y69136127D01*
X-74990764Y69171541D01*
X-74809236Y69171541D01*
X-74632900Y69136466D01*
G37*
G36*
X-56251196Y69136127D02*
G01*
X-56083487Y69066659D01*
X-55932552Y68965808D01*
X-55804192Y68837448D01*
X-55703341Y68686513D01*
X-55633873Y68518804D01*
X-55598459Y68340764D01*
X-55598459Y68159236D01*
X-55633873Y67981196D01*
X-55703341Y67813487D01*
X-55804192Y67662552D01*
X-55932552Y67534192D01*
X-56083487Y67433341D01*
X-56251196Y67363873D01*
X-56429236Y67328459D01*
X-56610764Y67328459D01*
X-56787109Y67363536D01*
X-56804967Y67359615D01*
X-56806504Y67358499D01*
X-56817807Y67356709D01*
X-56820000Y67355800D01*
X-56823541Y67355800D01*
X-58101745Y67355800D01*
X-58103951Y67355800D01*
X-58114875Y67356876D01*
X-58289575Y67391621D01*
X-58300768Y67395097D01*
X-58464488Y67465478D01*
X-58474712Y67471209D01*
X-58620196Y67574128D01*
X-58629004Y67581861D01*
X-58703616Y67662691D01*
X-58748279Y67711075D01*
X-58748282Y67711079D01*
X-58749878Y67712808D01*
X-58756883Y67722205D01*
X-58847853Y67875444D01*
X-58852749Y67886094D01*
X-58853504Y67888326D01*
X-58853506Y67888331D01*
X-58909071Y68052670D01*
X-58909072Y68052674D01*
X-58909829Y68054913D01*
X-58912400Y68066348D01*
X-58912674Y68068689D01*
X-58912675Y68068695D01*
X-58932870Y68241461D01*
X-58932871Y68241470D01*
X-58933021Y68242757D01*
X-58933400Y68249259D01*
X-58933400Y68250592D01*
X-58933157Y68255799D01*
X-58916538Y68433749D01*
X-58914102Y68445655D01*
X-58913356Y68447980D01*
X-58913353Y68447994D01*
X-58859994Y68614251D01*
X-58859990Y68614262D01*
X-58859243Y68616587D01*
X-58854296Y68627687D01*
X-58853067Y68629796D01*
X-58853062Y68629805D01*
X-58765091Y68780643D01*
X-58765085Y68780652D01*
X-58763855Y68782760D01*
X-58756630Y68792531D01*
X-58634866Y68924443D01*
X-58625703Y68932425D01*
X-58623698Y68933821D01*
X-58623689Y68933828D01*
X-58480363Y69033563D01*
X-58480347Y69033572D01*
X-58478349Y69034962D01*
X-58467680Y69040780D01*
X-58465425Y69041709D01*
X-58465418Y69041712D01*
X-58303942Y69108185D01*
X-58303939Y69108186D01*
X-58301677Y69109117D01*
X-58290004Y69112496D01*
X-58287605Y69112916D01*
X-58287596Y69112918D01*
X-58115367Y69143028D01*
X-58115360Y69143029D01*
X-58113447Y69143363D01*
X-58103803Y69144200D01*
X-56820000Y69144200D01*
X-56800321Y69136049D01*
X-56790887Y69135492D01*
X-56789829Y69135703D01*
X-56788804Y69136127D01*
X-56610764Y69171541D01*
X-56429236Y69171541D01*
X-56251196Y69136127D01*
G37*
G36*
X-68615483Y69147118D02*
G01*
X-68598938Y69136062D01*
X-68587882Y69119517D01*
X-68587442Y69117302D01*
X-68571553Y69093522D01*
X-68523447Y69093522D01*
X-68507559Y69117303D01*
X-68507118Y69119517D01*
X-68496062Y69136062D01*
X-68479517Y69147118D01*
X-68460000Y69151000D01*
X-67860000Y69151000D01*
X-67840483Y69147118D01*
X-67823938Y69136062D01*
X-67812882Y69119517D01*
X-67809000Y69100000D01*
X-67809000Y68100000D01*
X-67812882Y68080483D01*
X-67823938Y68063938D01*
X-67840483Y68052882D01*
X-67860000Y68049000D01*
X-68460000Y68049000D01*
X-68479517Y68052882D01*
X-68496062Y68063938D01*
X-68507118Y68080483D01*
X-68507559Y68082699D01*
X-68523447Y68106479D01*
X-68571553Y68106479D01*
X-68587442Y68082700D01*
X-68587882Y68080483D01*
X-68598938Y68063938D01*
X-68615483Y68052882D01*
X-68635000Y68049000D01*
X-69235000Y68049000D01*
X-69254517Y68052882D01*
X-69271062Y68063938D01*
X-69282118Y68080483D01*
X-69286000Y68100000D01*
X-69286000Y69100000D01*
X-69282118Y69119517D01*
X-69271062Y69136062D01*
X-69254517Y69147118D01*
X-69235000Y69151000D01*
X-68635000Y69151000D01*
X-68615483Y69147118D01*
G37*
G36*
X-67290483Y69147118D02*
G01*
X-67273938Y69136062D01*
X-67262882Y69119517D01*
X-67259000Y69100000D01*
X-67259000Y68100000D01*
X-67262882Y68080483D01*
X-67273938Y68063938D01*
X-67290483Y68052882D01*
X-67310000Y68049000D01*
X-67610000Y68049000D01*
X-67629517Y68052882D01*
X-67646062Y68063938D01*
X-67657118Y68080483D01*
X-67661000Y68100000D01*
X-67661000Y69100000D01*
X-67657118Y69119517D01*
X-67646062Y69136062D01*
X-67629517Y69147118D01*
X-67610000Y69151000D01*
X-67310000Y69151000D01*
X-67290483Y69147118D01*
G37*
G36*
X-66790483Y69147118D02*
G01*
X-66773938Y69136062D01*
X-66762882Y69119517D01*
X-66759000Y69100000D01*
X-66759000Y68100000D01*
X-66762882Y68080483D01*
X-66773938Y68063938D01*
X-66790483Y68052882D01*
X-66810000Y68049000D01*
X-67110000Y68049000D01*
X-67129517Y68052882D01*
X-67146062Y68063938D01*
X-67157118Y68080483D01*
X-67161000Y68100000D01*
X-67161000Y69100000D01*
X-67157118Y69119517D01*
X-67146062Y69136062D01*
X-67129517Y69147118D01*
X-67110000Y69151000D01*
X-66810000Y69151000D01*
X-66790483Y69147118D01*
G37*
G36*
X-66290483Y69147118D02*
G01*
X-66273938Y69136062D01*
X-66262882Y69119517D01*
X-66259000Y69100000D01*
X-66259000Y68100000D01*
X-66262882Y68080483D01*
X-66273938Y68063938D01*
X-66290483Y68052882D01*
X-66310000Y68049000D01*
X-66610000Y68049000D01*
X-66629517Y68052882D01*
X-66646062Y68063938D01*
X-66657118Y68080483D01*
X-66661000Y68100000D01*
X-66661000Y69100000D01*
X-66657118Y69119517D01*
X-66646062Y69136062D01*
X-66629517Y69147118D01*
X-66610000Y69151000D01*
X-66310000Y69151000D01*
X-66290483Y69147118D01*
G37*
G36*
X-65790483Y69147118D02*
G01*
X-65773938Y69136062D01*
X-65762882Y69119517D01*
X-65759000Y69100000D01*
X-65759000Y68100000D01*
X-65762882Y68080483D01*
X-65773938Y68063938D01*
X-65790483Y68052882D01*
X-65810000Y68049000D01*
X-66110000Y68049000D01*
X-66129517Y68052882D01*
X-66146062Y68063938D01*
X-66157118Y68080483D01*
X-66161000Y68100000D01*
X-66161000Y69100000D01*
X-66157118Y69119517D01*
X-66146062Y69136062D01*
X-66129517Y69147118D01*
X-66110000Y69151000D01*
X-65810000Y69151000D01*
X-65790483Y69147118D01*
G37*
G36*
X-65290483Y69147118D02*
G01*
X-65273938Y69136062D01*
X-65262882Y69119517D01*
X-65259000Y69100000D01*
X-65259000Y68100000D01*
X-65262882Y68080483D01*
X-65273938Y68063938D01*
X-65290483Y68052882D01*
X-65310000Y68049000D01*
X-65610000Y68049000D01*
X-65629517Y68052882D01*
X-65646062Y68063938D01*
X-65657118Y68080483D01*
X-65661000Y68100000D01*
X-65661000Y69100000D01*
X-65657118Y69119517D01*
X-65646062Y69136062D01*
X-65629517Y69147118D01*
X-65610000Y69151000D01*
X-65310000Y69151000D01*
X-65290483Y69147118D01*
G37*
G36*
X-64790483Y69147118D02*
G01*
X-64773938Y69136062D01*
X-64762882Y69119517D01*
X-64759000Y69100000D01*
X-64759000Y68100000D01*
X-64762882Y68080483D01*
X-64773938Y68063938D01*
X-64790483Y68052882D01*
X-64810000Y68049000D01*
X-65110000Y68049000D01*
X-65129517Y68052882D01*
X-65146062Y68063938D01*
X-65157118Y68080483D01*
X-65161000Y68100000D01*
X-65161000Y69100000D01*
X-65157118Y69119517D01*
X-65146062Y69136062D01*
X-65129517Y69147118D01*
X-65110000Y69151000D01*
X-64810000Y69151000D01*
X-64790483Y69147118D01*
G37*
G36*
X-64290483Y69147118D02*
G01*
X-64273938Y69136062D01*
X-64262882Y69119517D01*
X-64259000Y69100000D01*
X-64259000Y68100000D01*
X-64262882Y68080483D01*
X-64273938Y68063938D01*
X-64290483Y68052882D01*
X-64310000Y68049000D01*
X-64610000Y68049000D01*
X-64629517Y68052882D01*
X-64646062Y68063938D01*
X-64657118Y68080483D01*
X-64661000Y68100000D01*
X-64661000Y69100000D01*
X-64657118Y69119517D01*
X-64646062Y69136062D01*
X-64629517Y69147118D01*
X-64610000Y69151000D01*
X-64310000Y69151000D01*
X-64290483Y69147118D01*
G37*
G36*
X-63790483Y69147118D02*
G01*
X-63773938Y69136062D01*
X-63762882Y69119517D01*
X-63759000Y69100000D01*
X-63759000Y68100000D01*
X-63762882Y68080483D01*
X-63773938Y68063938D01*
X-63790483Y68052882D01*
X-63810000Y68049000D01*
X-64110000Y68049000D01*
X-64129517Y68052882D01*
X-64146062Y68063938D01*
X-64157118Y68080483D01*
X-64161000Y68100000D01*
X-64161000Y69100000D01*
X-64157118Y69119517D01*
X-64146062Y69136062D01*
X-64129517Y69147118D01*
X-64110000Y69151000D01*
X-63810000Y69151000D01*
X-63790483Y69147118D01*
G37*
G36*
X-62940483Y69147118D02*
G01*
X-62923938Y69136062D01*
X-62912882Y69119517D01*
X-62912442Y69117302D01*
X-62896553Y69093522D01*
X-62848447Y69093522D01*
X-62832559Y69117303D01*
X-62832118Y69119517D01*
X-62821062Y69136062D01*
X-62804517Y69147118D01*
X-62785000Y69151000D01*
X-62185000Y69151000D01*
X-62165483Y69147118D01*
X-62148938Y69136062D01*
X-62137882Y69119517D01*
X-62134000Y69100000D01*
X-62134000Y68100000D01*
X-62137882Y68080483D01*
X-62148938Y68063938D01*
X-62165483Y68052882D01*
X-62185000Y68049000D01*
X-62785000Y68049000D01*
X-62804517Y68052882D01*
X-62821062Y68063938D01*
X-62832118Y68080483D01*
X-62832559Y68082699D01*
X-62848447Y68106479D01*
X-62896553Y68106479D01*
X-62912442Y68082700D01*
X-62912882Y68080483D01*
X-62923938Y68063938D01*
X-62940483Y68052882D01*
X-62960000Y68049000D01*
X-63560000Y68049000D01*
X-63579517Y68052882D01*
X-63596062Y68063938D01*
X-63607118Y68080483D01*
X-63611000Y68100000D01*
X-63611000Y69100000D01*
X-63607118Y69119517D01*
X-63596062Y69136062D01*
X-63579517Y69147118D01*
X-63560000Y69151000D01*
X-62960000Y69151000D01*
X-62940483Y69147118D01*
G37*
G36*
X-69817141Y70234058D02*
G01*
X-69692572Y70162138D01*
X-69590862Y70060428D01*
X-69518942Y69935859D01*
X-69481714Y69796920D01*
X-69477000Y69725000D01*
X-69477000Y68625000D01*
X-69481714Y68553080D01*
X-69518942Y68414141D01*
X-69590862Y68289572D01*
X-69692572Y68187862D01*
X-69817141Y68115942D01*
X-69956080Y68078714D01*
X-70099920Y68078714D01*
X-70238859Y68115942D01*
X-70363428Y68187862D01*
X-70465138Y68289572D01*
X-70537058Y68414141D01*
X-70574286Y68553080D01*
X-70579000Y68625000D01*
X-70579000Y69725000D01*
X-70574286Y69796920D01*
X-70537058Y69935859D01*
X-70465138Y70060428D01*
X-70363428Y70162138D01*
X-70238859Y70234058D01*
X-70099920Y70271286D01*
X-69956080Y70271286D01*
X-69817141Y70234058D01*
G37*
G36*
X-61181141Y70234058D02*
G01*
X-61056572Y70162138D01*
X-60954862Y70060428D01*
X-60882942Y69935859D01*
X-60845714Y69796920D01*
X-60841000Y69725000D01*
X-60841000Y68625000D01*
X-60845714Y68553080D01*
X-60882942Y68414141D01*
X-60954862Y68289572D01*
X-61056572Y68187862D01*
X-61181141Y68115942D01*
X-61320080Y68078714D01*
X-61463920Y68078714D01*
X-61602859Y68115942D01*
X-61727428Y68187862D01*
X-61829138Y68289572D01*
X-61901058Y68414141D01*
X-61938286Y68553080D01*
X-61943000Y68625000D01*
X-61943000Y69725000D01*
X-61938286Y69796920D01*
X-61901058Y69935859D01*
X-61829138Y70060428D01*
X-61727428Y70162138D01*
X-61602859Y70234058D01*
X-61463920Y70271286D01*
X-61320080Y70271286D01*
X-61181141Y70234058D01*
G37*
G36*
X-68456111Y70052379D02*
G01*
X-68371106Y70003301D01*
X-68301699Y69933894D01*
X-68252621Y69848889D01*
X-68227217Y69754078D01*
X-68227217Y69655922D01*
X-68252621Y69561111D01*
X-68301699Y69476106D01*
X-68371106Y69406699D01*
X-68456111Y69357621D01*
X-68550922Y69332217D01*
X-68649078Y69332217D01*
X-68743889Y69357621D01*
X-68828894Y69406699D01*
X-68898301Y69476106D01*
X-68947379Y69561111D01*
X-68972783Y69655922D01*
X-68972783Y69754078D01*
X-68947379Y69848889D01*
X-68898301Y69933894D01*
X-68828894Y70003301D01*
X-68743889Y70052379D01*
X-68649078Y70077783D01*
X-68550922Y70077783D01*
X-68456111Y70052379D01*
G37*
G36*
X-62676111Y70052379D02*
G01*
X-62591106Y70003301D01*
X-62521699Y69933894D01*
X-62472621Y69848889D01*
X-62447217Y69754078D01*
X-62447217Y69655922D01*
X-62472621Y69561111D01*
X-62521699Y69476106D01*
X-62591106Y69406699D01*
X-62676111Y69357621D01*
X-62770922Y69332217D01*
X-62869078Y69332217D01*
X-62963889Y69357621D01*
X-63048894Y69406699D01*
X-63118301Y69476106D01*
X-63167379Y69561111D01*
X-63192783Y69655922D01*
X-63192783Y69754078D01*
X-63167379Y69848889D01*
X-63118301Y69933894D01*
X-63048894Y70003301D01*
X-62963889Y70052379D01*
X-62869078Y70077783D01*
X-62770922Y70077783D01*
X-62676111Y70052379D01*
G37*
G36*
X-74632900Y71676466D02*
G01*
X-74615048Y71680381D01*
X-74613508Y71681500D01*
X-74602192Y71683293D01*
X-74600000Y71684200D01*
X-73316197Y71684200D01*
X-73306553Y71683363D01*
X-73304640Y71683029D01*
X-73304634Y71683028D01*
X-73132405Y71652918D01*
X-73132398Y71652916D01*
X-73129996Y71652496D01*
X-73118323Y71649117D01*
X-73116060Y71648186D01*
X-73116059Y71648185D01*
X-72954583Y71581712D01*
X-72954580Y71581711D01*
X-72952320Y71580780D01*
X-72941651Y71574962D01*
X-72939650Y71573570D01*
X-72939638Y71573563D01*
X-72796312Y71473828D01*
X-72796308Y71473824D01*
X-72794297Y71472425D01*
X-72785134Y71464443D01*
X-72663370Y71332531D01*
X-72656145Y71322760D01*
X-72654912Y71320646D01*
X-72654910Y71320643D01*
X-72566939Y71169805D01*
X-72565704Y71167687D01*
X-72560757Y71156587D01*
X-72560009Y71154254D01*
X-72560007Y71154251D01*
X-72506648Y70987994D01*
X-72506647Y70987989D01*
X-72505898Y70985655D01*
X-72503462Y70973749D01*
X-72486843Y70795799D01*
X-72486600Y70790592D01*
X-72486600Y70789259D01*
X-72486979Y70782757D01*
X-72507600Y70606348D01*
X-72510171Y70594913D01*
X-72567251Y70426094D01*
X-72572147Y70415444D01*
X-72663117Y70262205D01*
X-72670122Y70252808D01*
X-72790996Y70121861D01*
X-72799804Y70114128D01*
X-72945288Y70011209D01*
X-72955512Y70005478D01*
X-73119232Y69935097D01*
X-73130425Y69931621D01*
X-73305125Y69896876D01*
X-73316049Y69895800D01*
X-73318255Y69895800D01*
X-74592873Y69895800D01*
X-74600000Y69895800D01*
X-74619683Y69903953D01*
X-74629113Y69904509D01*
X-74630167Y69904300D01*
X-74631196Y69903873D01*
X-74809236Y69868459D01*
X-74990764Y69868459D01*
X-75168804Y69903873D01*
X-75336513Y69973341D01*
X-75487448Y70074192D01*
X-75615808Y70202552D01*
X-75716659Y70353487D01*
X-75786127Y70521196D01*
X-75821541Y70699236D01*
X-75821541Y70880764D01*
X-75786127Y71058804D01*
X-75716659Y71226513D01*
X-75615808Y71377448D01*
X-75487448Y71505808D01*
X-75336513Y71606659D01*
X-75168804Y71676127D01*
X-74990764Y71711541D01*
X-74809236Y71711541D01*
X-74632900Y71676466D01*
G37*
G36*
X-56251196Y71676127D02*
G01*
X-56083487Y71606659D01*
X-55932552Y71505808D01*
X-55804192Y71377448D01*
X-55703341Y71226513D01*
X-55633873Y71058804D01*
X-55598459Y70880764D01*
X-55598459Y70699236D01*
X-55633873Y70521196D01*
X-55703341Y70353487D01*
X-55804192Y70202552D01*
X-55932552Y70074192D01*
X-56083487Y69973341D01*
X-56251196Y69903873D01*
X-56429236Y69868459D01*
X-56610764Y69868459D01*
X-56787109Y69903536D01*
X-56804967Y69899615D01*
X-56806504Y69898499D01*
X-56817807Y69896709D01*
X-56820000Y69895800D01*
X-56823541Y69895800D01*
X-58101745Y69895800D01*
X-58103951Y69895800D01*
X-58114875Y69896876D01*
X-58289575Y69931621D01*
X-58300768Y69935097D01*
X-58464488Y70005478D01*
X-58474712Y70011209D01*
X-58620196Y70114128D01*
X-58629004Y70121861D01*
X-58703616Y70202691D01*
X-58748279Y70251075D01*
X-58748282Y70251079D01*
X-58749878Y70252808D01*
X-58756883Y70262205D01*
X-58847853Y70415444D01*
X-58852749Y70426094D01*
X-58853504Y70428326D01*
X-58853506Y70428331D01*
X-58909071Y70592670D01*
X-58909072Y70592674D01*
X-58909829Y70594913D01*
X-58912400Y70606348D01*
X-58912674Y70608689D01*
X-58912675Y70608695D01*
X-58932870Y70781461D01*
X-58932871Y70781470D01*
X-58933021Y70782757D01*
X-58933400Y70789259D01*
X-58933400Y70790592D01*
X-58933157Y70795799D01*
X-58916538Y70973749D01*
X-58914102Y70985655D01*
X-58913356Y70987980D01*
X-58913353Y70987994D01*
X-58859994Y71154251D01*
X-58859990Y71154262D01*
X-58859243Y71156587D01*
X-58854296Y71167687D01*
X-58853067Y71169796D01*
X-58853062Y71169805D01*
X-58765091Y71320643D01*
X-58765085Y71320652D01*
X-58763855Y71322760D01*
X-58756630Y71332531D01*
X-58634866Y71464443D01*
X-58625703Y71472425D01*
X-58623698Y71473821D01*
X-58623689Y71473828D01*
X-58480363Y71573563D01*
X-58480347Y71573572D01*
X-58478349Y71574962D01*
X-58467680Y71580780D01*
X-58465425Y71581709D01*
X-58465418Y71581712D01*
X-58303942Y71648185D01*
X-58303939Y71648186D01*
X-58301677Y71649117D01*
X-58290004Y71652496D01*
X-58287605Y71652916D01*
X-58287596Y71652918D01*
X-58115367Y71683028D01*
X-58115360Y71683029D01*
X-58113447Y71683363D01*
X-58103803Y71684200D01*
X-56820000Y71684200D01*
X-56800321Y71676049D01*
X-56790887Y71675492D01*
X-56789829Y71675703D01*
X-56788804Y71676127D01*
X-56610764Y71711541D01*
X-56429236Y71711541D01*
X-56251196Y71676127D01*
G37*
G36*
X-74632900Y74216466D02*
G01*
X-74615048Y74220381D01*
X-74613508Y74221500D01*
X-74602192Y74223293D01*
X-74600000Y74224200D01*
X-73316197Y74224200D01*
X-73306553Y74223363D01*
X-73304640Y74223029D01*
X-73304634Y74223028D01*
X-73132405Y74192918D01*
X-73132398Y74192916D01*
X-73129996Y74192496D01*
X-73118323Y74189117D01*
X-73116060Y74188186D01*
X-73116059Y74188185D01*
X-72954583Y74121712D01*
X-72954580Y74121711D01*
X-72952320Y74120780D01*
X-72941651Y74114962D01*
X-72939650Y74113570D01*
X-72939638Y74113563D01*
X-72796312Y74013828D01*
X-72796308Y74013824D01*
X-72794297Y74012425D01*
X-72785134Y74004443D01*
X-72663370Y73872531D01*
X-72656145Y73862760D01*
X-72654912Y73860646D01*
X-72654910Y73860643D01*
X-72576921Y73726920D01*
X-72565704Y73707687D01*
X-72560757Y73696587D01*
X-72560009Y73694254D01*
X-72560007Y73694251D01*
X-72506648Y73527994D01*
X-72506647Y73527989D01*
X-72505898Y73525655D01*
X-72503462Y73513749D01*
X-72486843Y73335799D01*
X-72486600Y73330592D01*
X-72486600Y73329259D01*
X-72486979Y73322757D01*
X-72507600Y73146348D01*
X-72510171Y73134913D01*
X-72567251Y72966094D01*
X-72572147Y72955444D01*
X-72663117Y72802205D01*
X-72670122Y72792808D01*
X-72790996Y72661861D01*
X-72799804Y72654128D01*
X-72945288Y72551209D01*
X-72955512Y72545478D01*
X-73119232Y72475097D01*
X-73130425Y72471621D01*
X-73305125Y72436876D01*
X-73316049Y72435800D01*
X-73318255Y72435800D01*
X-74592873Y72435800D01*
X-74600000Y72435800D01*
X-74619683Y72443953D01*
X-74629113Y72444509D01*
X-74630167Y72444300D01*
X-74631196Y72443873D01*
X-74809236Y72408459D01*
X-74990764Y72408459D01*
X-75168804Y72443873D01*
X-75336513Y72513341D01*
X-75487448Y72614192D01*
X-75615808Y72742552D01*
X-75716659Y72893487D01*
X-75786127Y73061196D01*
X-75821541Y73239236D01*
X-75821541Y73420764D01*
X-75786127Y73598804D01*
X-75716659Y73766513D01*
X-75615808Y73917448D01*
X-75487448Y74045808D01*
X-75336513Y74146659D01*
X-75168804Y74216127D01*
X-74990764Y74251541D01*
X-74809236Y74251541D01*
X-74632900Y74216466D01*
G37*
G36*
X-56251196Y74216127D02*
G01*
X-56083487Y74146659D01*
X-55932552Y74045808D01*
X-55804192Y73917448D01*
X-55703341Y73766513D01*
X-55633873Y73598804D01*
X-55598459Y73420764D01*
X-55598459Y73239236D01*
X-55633873Y73061196D01*
X-55703341Y72893487D01*
X-55804192Y72742552D01*
X-55932552Y72614192D01*
X-56083487Y72513341D01*
X-56251196Y72443873D01*
X-56429236Y72408459D01*
X-56610764Y72408459D01*
X-56787109Y72443536D01*
X-56804967Y72439615D01*
X-56806504Y72438499D01*
X-56817807Y72436709D01*
X-56820000Y72435800D01*
X-56823541Y72435800D01*
X-58101745Y72435800D01*
X-58103951Y72435800D01*
X-58114875Y72436876D01*
X-58289575Y72471621D01*
X-58300768Y72475097D01*
X-58464488Y72545478D01*
X-58474712Y72551209D01*
X-58620196Y72654128D01*
X-58629004Y72661861D01*
X-58703616Y72742691D01*
X-58748279Y72791075D01*
X-58748282Y72791079D01*
X-58749878Y72792808D01*
X-58756883Y72802205D01*
X-58847853Y72955444D01*
X-58852749Y72966094D01*
X-58853504Y72968326D01*
X-58853506Y72968331D01*
X-58909071Y73132670D01*
X-58909072Y73132674D01*
X-58909829Y73134913D01*
X-58912400Y73146348D01*
X-58912674Y73148689D01*
X-58912675Y73148695D01*
X-58932870Y73321461D01*
X-58932871Y73321470D01*
X-58933021Y73322757D01*
X-58933400Y73329259D01*
X-58933400Y73330592D01*
X-58933157Y73335799D01*
X-58916538Y73513749D01*
X-58914102Y73525655D01*
X-58913356Y73527980D01*
X-58913353Y73527994D01*
X-58859994Y73694251D01*
X-58859990Y73694262D01*
X-58859243Y73696587D01*
X-58854296Y73707687D01*
X-58853067Y73709796D01*
X-58853062Y73709805D01*
X-58765091Y73860643D01*
X-58765085Y73860652D01*
X-58763855Y73862760D01*
X-58756630Y73872531D01*
X-58634866Y74004443D01*
X-58625703Y74012425D01*
X-58623698Y74013821D01*
X-58623689Y74013828D01*
X-58480363Y74113563D01*
X-58480347Y74113572D01*
X-58478349Y74114962D01*
X-58467680Y74120780D01*
X-58465425Y74121709D01*
X-58465418Y74121712D01*
X-58303942Y74188185D01*
X-58303939Y74188186D01*
X-58301677Y74189117D01*
X-58290004Y74192496D01*
X-58287605Y74192916D01*
X-58287596Y74192918D01*
X-58115367Y74223028D01*
X-58115360Y74223029D01*
X-58113447Y74223363D01*
X-58103803Y74224200D01*
X-56820000Y74224200D01*
X-56800321Y74216049D01*
X-56790887Y74215492D01*
X-56789829Y74215703D01*
X-56788804Y74216127D01*
X-56610764Y74251541D01*
X-56429236Y74251541D01*
X-56251196Y74216127D01*
G37*
G36*
X-69817141Y74164058D02*
G01*
X-69692572Y74092138D01*
X-69590862Y73990428D01*
X-69518942Y73865859D01*
X-69481714Y73726920D01*
X-69477000Y73655000D01*
X-69477000Y73055000D01*
X-69481714Y72983080D01*
X-69518942Y72844141D01*
X-69590862Y72719572D01*
X-69692572Y72617862D01*
X-69817141Y72545942D01*
X-69956080Y72508714D01*
X-70099920Y72508714D01*
X-70238859Y72545942D01*
X-70363428Y72617862D01*
X-70465138Y72719572D01*
X-70537058Y72844141D01*
X-70574286Y72983080D01*
X-70579000Y73055000D01*
X-70579000Y73655000D01*
X-70574286Y73726920D01*
X-70537058Y73865859D01*
X-70465138Y73990428D01*
X-70363428Y74092138D01*
X-70238859Y74164058D01*
X-70099920Y74201286D01*
X-69956080Y74201286D01*
X-69817141Y74164058D01*
G37*
G36*
X-61181141Y74164058D02*
G01*
X-61056572Y74092138D01*
X-60954862Y73990428D01*
X-60882942Y73865859D01*
X-60845714Y73726920D01*
X-60841000Y73655000D01*
X-60841000Y73055000D01*
X-60845714Y72983080D01*
X-60882942Y72844141D01*
X-60954862Y72719572D01*
X-61056572Y72617862D01*
X-61181141Y72545942D01*
X-61320080Y72508714D01*
X-61463920Y72508714D01*
X-61602859Y72545942D01*
X-61727428Y72617862D01*
X-61829138Y72719572D01*
X-61901058Y72844141D01*
X-61938286Y72983080D01*
X-61943000Y73055000D01*
X-61943000Y73655000D01*
X-61938286Y73726920D01*
X-61901058Y73865859D01*
X-61829138Y73990428D01*
X-61727428Y74092138D01*
X-61602859Y74164058D01*
X-61463920Y74201286D01*
X-61320080Y74201286D01*
X-61181141Y74164058D01*
G37*
%LPD*%
M02*
