%TF.GenerationSoftware,KiCad,Pcbnew,9.0.7*%
%TF.CreationDate,2026-01-28T18:20:07-05:00*%
%TF.ProjectId,DIPSTICKPRO_2354,44495053-5449-4434-9b50-524f5f323335,0*%
%TF.SameCoordinates,Original*%
%TF.FileFunction,Copper,L1,Top*%
%TF.FilePolarity,Positive*%
%FSLAX46Y46*%
G04 Gerber Fmt 4.6, Leading zero omitted, Abs format (unit mm)*
G04 Created by KiCad (PCBNEW 9.0.7) date 2026-01-28 18:20:07*
%MOMM*%
%LPD*%
G01*
G04 APERTURE LIST*
G04 Aperture macros list*
%AMRoundRect*
0 Rectangle with rounded corners*
0 $1 Rounding radius*
0 $2 $3 $4 $5 $6 $7 $8 $9 X,Y pos of 4 corners*
0 Add a 4 corners polygon primitive as box body*
4,1,4,$2,$3,$4,$5,$6,$7,$8,$9,$2,$3,0*
0 Add four circle primitives for the rounded corners*
1,1,$1+$1,$2,$3*
1,1,$1+$1,$4,$5*
1,1,$1+$1,$6,$7*
1,1,$1+$1,$8,$9*
0 Add four rect primitives between the rounded corners*
20,1,$1+$1,$2,$3,$4,$5,0*
20,1,$1+$1,$4,$5,$6,$7,0*
20,1,$1+$1,$6,$7,$8,$9,0*
20,1,$1+$1,$8,$9,$2,$3,0*%
%AMFreePoly0*
4,1,18,-0.100000,0.387500,-0.096194,0.406634,-0.085355,0.422855,-0.069134,0.433694,-0.050000,0.437500,0.050000,0.437500,0.069134,0.433694,0.085355,0.422855,0.096194,0.406634,0.100000,0.387500,0.100000,-0.387500,0.096194,-0.406634,0.085355,-0.422855,0.069134,-0.433694,0.050000,-0.437500,-0.050000,-0.437500,-0.100000,-0.387500,-0.100000,0.387500,-0.100000,0.387500,$1*%
%AMFreePoly1*
4,1,18,-0.100000,0.387500,-0.096194,0.406634,-0.085355,0.422855,-0.069134,0.433694,-0.050000,0.437500,0.050000,0.437500,0.069134,0.433694,0.085355,0.422855,0.096194,0.406634,0.100000,0.387500,0.100000,-0.387500,0.050000,-0.437500,-0.050000,-0.437500,-0.069134,-0.433694,-0.085355,-0.422855,-0.096194,-0.406634,-0.100000,-0.387500,-0.100000,0.387500,-0.100000,0.387500,$1*%
%AMFreePoly2*
4,1,18,-0.437500,0.050000,-0.387500,0.100000,0.387500,0.100000,0.406634,0.096194,0.422855,0.085355,0.433694,0.069134,0.437500,0.050000,0.437500,-0.050000,0.433694,-0.069134,0.422855,-0.085355,0.406634,-0.096194,0.387500,-0.100000,-0.387500,-0.100000,-0.406634,-0.096194,-0.422855,-0.085355,-0.433694,-0.069134,-0.437500,-0.050000,-0.437500,0.050000,-0.437500,0.050000,$1*%
%AMFreePoly3*
4,1,18,-0.437500,0.050000,-0.433694,0.069134,-0.422855,0.085355,-0.406634,0.096194,-0.387500,0.100000,0.387500,0.100000,0.406634,0.096194,0.422855,0.085355,0.433694,0.069134,0.437500,0.050000,0.437500,-0.050000,0.433694,-0.069134,0.422855,-0.085355,0.406634,-0.096194,0.387500,-0.100000,-0.387500,-0.100000,-0.437500,-0.050000,-0.437500,0.050000,-0.437500,0.050000,$1*%
%AMFreePoly4*
4,1,18,-0.100000,0.387500,-0.096194,0.406634,-0.085355,0.422855,-0.069134,0.433694,-0.050000,0.437500,0.050000,0.437500,0.100000,0.387500,0.100000,-0.387500,0.096194,-0.406634,0.085355,-0.422855,0.069134,-0.433694,0.050000,-0.437500,-0.050000,-0.437500,-0.069134,-0.433694,-0.085355,-0.422855,-0.096194,-0.406634,-0.100000,-0.387500,-0.100000,0.387500,-0.100000,0.387500,$1*%
%AMFreePoly5*
4,1,18,-0.100000,0.387500,-0.050000,0.437500,0.050000,0.437500,0.069134,0.433694,0.085355,0.422855,0.096194,0.406634,0.100000,0.387500,0.100000,-0.387500,0.096194,-0.406634,0.085355,-0.422855,0.069134,-0.433694,0.050000,-0.437500,-0.050000,-0.437500,-0.069134,-0.433694,-0.085355,-0.422855,-0.096194,-0.406634,-0.100000,-0.387500,-0.100000,0.387500,-0.100000,0.387500,$1*%
%AMFreePoly6*
4,1,18,-0.437500,0.050000,-0.433694,0.069134,-0.422855,0.085355,-0.406634,0.096194,-0.387500,0.100000,0.387500,0.100000,0.406634,0.096194,0.422855,0.085355,0.433694,0.069134,0.437500,0.050000,0.437500,-0.050000,0.387500,-0.100000,-0.387500,-0.100000,-0.406634,-0.096194,-0.422855,-0.085355,-0.433694,-0.069134,-0.437500,-0.050000,-0.437500,0.050000,-0.437500,0.050000,$1*%
%AMFreePoly7*
4,1,18,-0.437500,0.050000,-0.433694,0.069134,-0.422855,0.085355,-0.406634,0.096194,-0.387500,0.100000,0.387500,0.100000,0.437500,0.050000,0.437500,-0.050000,0.433694,-0.069134,0.422855,-0.085355,0.406634,-0.096194,0.387500,-0.100000,-0.387500,-0.100000,-0.406634,-0.096194,-0.422855,-0.085355,-0.433694,-0.069134,-0.437500,-0.050000,-0.437500,0.050000,-0.437500,0.050000,$1*%
%AMFreePoly8*
4,1,19,1.270000,-0.838200,-0.013951,-0.838200,-0.188651,-0.803455,-0.352371,-0.733074,-0.497855,-0.630155,-0.618729,-0.499208,-0.709699,-0.345969,-0.766779,-0.177150,-0.787400,-0.000741,-0.787400,0.000592,-0.770781,0.178542,-0.715922,0.349474,-0.625481,0.504547,-0.503717,0.636459,-0.356363,0.738996,-0.190360,0.807333,-0.013803,0.838200,1.270000,0.838200,1.270000,-0.838200,1.270000,-0.838200,
$1*%
%AMFreePoly9*
4,1,19,1.270000,-0.838200,-0.013803,-0.838200,-0.190360,-0.807333,-0.356363,-0.738996,-0.503717,-0.636459,-0.625481,-0.504547,-0.715922,-0.349474,-0.770781,-0.178542,-0.787400,-0.000592,-0.787400,0.000741,-0.766779,0.177150,-0.709699,0.345969,-0.618729,0.499208,-0.497855,0.630155,-0.352371,0.733074,-0.188651,0.803455,-0.013951,0.838200,1.270000,0.838200,1.270000,-0.838200,1.270000,-0.838200,
$1*%
G04 Aperture macros list end*
%TA.AperFunction,SMDPad,CuDef*%
%ADD10RoundRect,0.140000X-0.170000X0.140000X-0.170000X-0.140000X0.170000X-0.140000X0.170000X0.140000X0*%
%TD*%
%TA.AperFunction,SMDPad,CuDef*%
%ADD11RoundRect,0.135000X-0.185000X0.135000X-0.185000X-0.135000X0.185000X-0.135000X0.185000X0.135000X0*%
%TD*%
%TA.AperFunction,SMDPad,CuDef*%
%ADD12RoundRect,0.150000X0.150000X-0.512500X0.150000X0.512500X-0.150000X0.512500X-0.150000X-0.512500X0*%
%TD*%
%TA.AperFunction,SMDPad,CuDef*%
%ADD13RoundRect,0.140000X0.140000X0.170000X-0.140000X0.170000X-0.140000X-0.170000X0.140000X-0.170000X0*%
%TD*%
%TA.AperFunction,ComponentPad*%
%ADD14C,0.600000*%
%TD*%
%TA.AperFunction,SMDPad,CuDef*%
%ADD15RoundRect,0.153000X1.547000X-1.547000X1.547000X1.547000X-1.547000X1.547000X-1.547000X-1.547000X0*%
%TD*%
%TA.AperFunction,SMDPad,CuDef*%
%ADD16FreePoly0,0.000000*%
%TD*%
%TA.AperFunction,SMDPad,CuDef*%
%ADD17RoundRect,0.050000X-0.050000X-0.387500X0.050000X-0.387500X0.050000X0.387500X-0.050000X0.387500X0*%
%TD*%
%TA.AperFunction,SMDPad,CuDef*%
%ADD18FreePoly1,0.000000*%
%TD*%
%TA.AperFunction,SMDPad,CuDef*%
%ADD19FreePoly2,0.000000*%
%TD*%
%TA.AperFunction,SMDPad,CuDef*%
%ADD20RoundRect,0.050000X-0.387500X-0.050000X0.387500X-0.050000X0.387500X0.050000X-0.387500X0.050000X0*%
%TD*%
%TA.AperFunction,SMDPad,CuDef*%
%ADD21FreePoly3,0.000000*%
%TD*%
%TA.AperFunction,SMDPad,CuDef*%
%ADD22FreePoly4,0.000000*%
%TD*%
%TA.AperFunction,SMDPad,CuDef*%
%ADD23FreePoly5,0.000000*%
%TD*%
%TA.AperFunction,SMDPad,CuDef*%
%ADD24FreePoly6,0.000000*%
%TD*%
%TA.AperFunction,SMDPad,CuDef*%
%ADD25FreePoly7,0.000000*%
%TD*%
%TA.AperFunction,SMDPad,CuDef*%
%ADD26R,0.470000X0.530000*%
%TD*%
%TA.AperFunction,SMDPad,CuDef*%
%ADD27R,0.700000X1.700000*%
%TD*%
%TA.AperFunction,SMDPad,CuDef*%
%ADD28RoundRect,0.135000X0.135000X0.185000X-0.135000X0.185000X-0.135000X-0.185000X0.135000X-0.185000X0*%
%TD*%
%TA.AperFunction,SMDPad,CuDef*%
%ADD29RoundRect,0.250000X0.750000X-0.275000X0.750000X0.275000X-0.750000X0.275000X-0.750000X-0.275000X0*%
%TD*%
%TA.AperFunction,SMDPad,CuDef*%
%ADD30R,1.400000X1.200000*%
%TD*%
%TA.AperFunction,SMDPad,CuDef*%
%ADD31RoundRect,0.135000X-0.135000X-0.185000X0.135000X-0.185000X0.135000X0.185000X-0.135000X0.185000X0*%
%TD*%
%TA.AperFunction,SMDPad,CuDef*%
%ADD32R,0.600000X1.000000*%
%TD*%
%TA.AperFunction,ComponentPad*%
%ADD33O,1.000000X1.600000*%
%TD*%
%TA.AperFunction,ComponentPad*%
%ADD34O,1.000000X2.100000*%
%TD*%
%TA.AperFunction,SMDPad,CuDef*%
%ADD35R,0.300000X1.000000*%
%TD*%
%TA.AperFunction,SMDPad,CuDef*%
%ADD36RoundRect,0.140000X-0.140000X-0.170000X0.140000X-0.170000X0.140000X0.170000X-0.140000X0.170000X0*%
%TD*%
%TA.AperFunction,ComponentPad*%
%ADD37FreePoly8,0.000000*%
%TD*%
%TA.AperFunction,ComponentPad*%
%ADD38C,1.750000*%
%TD*%
%TA.AperFunction,SMDPad,CuDef*%
%ADD39RoundRect,0.250000X-0.750000X0.275000X-0.750000X-0.275000X0.750000X-0.275000X0.750000X0.275000X0*%
%TD*%
%TA.AperFunction,ComponentPad*%
%ADD40FreePoly9,180.000000*%
%TD*%
%TA.AperFunction,ComponentPad*%
%ADD41C,1.900000*%
%TD*%
%TA.AperFunction,ComponentPad*%
%ADD42FreePoly9,270.000000*%
%TD*%
%TA.AperFunction,ViaPad*%
%ADD43C,0.400000*%
%TD*%
%TA.AperFunction,ViaPad*%
%ADD44C,0.600000*%
%TD*%
%TA.AperFunction,Conductor*%
%ADD45C,0.200000*%
%TD*%
%TA.AperFunction,Conductor*%
%ADD46C,0.400000*%
%TD*%
G04 APERTURE END LIST*
D10*
%TO.P,C15,2*%
%TO.N,GND*%
X-70795000Y53305000D03*
%TO.P,C15,1*%
%TO.N,+3V3*%
X-70795000Y54265000D03*
%TD*%
D11*
%TO.P,R1,2*%
%TO.N,GND*%
X-63805000Y66470000D03*
%TO.P,R1,1*%
%TO.N,Net-(J2-CC1)*%
X-63805000Y67490000D03*
%TD*%
D12*
%TO.P,U2,3,VI*%
%TO.N,VBUS*%
X-68250000Y64942500D03*
%TO.P,U2,2,VO*%
%TO.N,+3V3*%
X-67300000Y62667500D03*
%TO.P,U2,1,GND*%
%TO.N,GND*%
X-69200000Y62667500D03*
%TD*%
D13*
%TO.P,C12,2*%
%TO.N,GND*%
X-66190000Y61265000D03*
%TO.P,C12,1*%
%TO.N,+3V3*%
X-65230000Y61265000D03*
%TD*%
D10*
%TO.P,C14,2*%
%TO.N,GND*%
X-60630000Y53165000D03*
%TO.P,C14,1*%
%TO.N,+3V3*%
X-60630000Y54125000D03*
%TD*%
D13*
%TO.P,C16,2*%
%TO.N,GND*%
X-63650000Y51105000D03*
%TO.P,C16,1*%
%TO.N,+3V3*%
X-62690000Y51105000D03*
%TD*%
D11*
%TO.P,R7,2*%
%TO.N,Net-(U1-USB_DP)*%
X-66345000Y66470000D03*
%TO.P,R7,1*%
%TO.N,/USB_D+*%
X-66345000Y67490000D03*
%TD*%
D10*
%TO.P,C1,2*%
%TO.N,GND*%
X-70790000Y63325000D03*
%TO.P,C1,1*%
%TO.N,VBUS*%
X-70790000Y64285000D03*
%TD*%
%TO.P,C13,2*%
%TO.N,GND*%
X-70795000Y58105000D03*
%TO.P,C13,1*%
%TO.N,+3V3*%
X-70795000Y59065000D03*
%TD*%
D11*
%TO.P,R8,2*%
%TO.N,Net-(U1-USB_DM)*%
X-65075000Y66470000D03*
%TO.P,R8,1*%
%TO.N,/USB_D-*%
X-65075000Y67490000D03*
%TD*%
D14*
%TO.P,U1,61,GND*%
%TO.N,GND*%
X-64335000Y54810000D03*
X-64335000Y56185000D03*
X-64335000Y57560000D03*
X-65710000Y54810000D03*
D15*
X-65710000Y56185000D03*
D14*
X-65710000Y56185000D03*
X-65710000Y57560000D03*
X-67085000Y54810000D03*
X-67085000Y56185000D03*
X-67085000Y57560000D03*
D16*
%TO.P,U1,60,QSPI_SS*%
%TO.N,/QSPI_SS*%
X-68510000Y59622500D03*
D17*
%TO.P,U1,59,QSPI_SD1*%
%TO.N,/QSPI_SD1*%
X-68110000Y59622500D03*
%TO.P,U1,58,QSPI_SD2*%
%TO.N,/QSPI_SD2*%
X-67710000Y59622500D03*
%TO.P,U1,57,QSPI_SD0*%
%TO.N,/QSPI_SD0*%
X-67310000Y59622500D03*
%TO.P,U1,56,QSPI_SCLK*%
%TO.N,/QSPI_SCLK*%
X-66910000Y59622500D03*
%TO.P,U1,55,QSPI_SD3*%
%TO.N,/QSPI_SD3*%
X-66510000Y59622500D03*
%TO.P,U1,54,QSPI_IOVDD*%
%TO.N,+3V3*%
X-66110000Y59622500D03*
%TO.P,U1,53,USB_OTP_VDD*%
X-65710000Y59622500D03*
%TO.P,U1,52,USB_DP*%
%TO.N,Net-(U1-USB_DP)*%
X-65310000Y59622500D03*
%TO.P,U1,51,USB_DM*%
%TO.N,Net-(U1-USB_DM)*%
X-64910000Y59622500D03*
%TO.P,U1,50,VREG_FB*%
%TO.N,+1V1*%
X-64510000Y59622500D03*
%TO.P,U1,49,VREG_VIN*%
%TO.N,+3V3*%
X-64110000Y59622500D03*
%TO.P,U1,48,VREG_LX*%
%TO.N,/VREG_LX*%
X-63710000Y59622500D03*
%TO.P,U1,47,VREG_PGND*%
%TO.N,GND*%
X-63310000Y59622500D03*
D18*
%TO.P,U1,46,VREG_AVDD*%
%TO.N,/VREG_AVDD*%
X-62910000Y59622500D03*
D19*
%TO.P,U1,45,IOVDD*%
%TO.N,+3V3*%
X-62272500Y58985000D03*
D20*
%TO.P,U1,44,ADC_AVDD*%
X-62272500Y58585000D03*
%TO.P,U1,43,GPIO29_ADC3*%
%TO.N,/GPIO29_ADC3*%
X-62272500Y58185000D03*
%TO.P,U1,42,GPIO28_ADC2*%
%TO.N,/GPIO28_ADC2*%
X-62272500Y57785000D03*
%TO.P,U1,41,GPIO27_ADC1*%
%TO.N,/GPIO27_ADC1*%
X-62272500Y57385000D03*
%TO.P,U1,40,GPIO26_ADC0*%
%TO.N,/GPIO26_ADC0*%
X-62272500Y56985000D03*
%TO.P,U1,39,DVDD*%
%TO.N,+1V1*%
X-62272500Y56585000D03*
%TO.P,U1,38,IOVDD*%
%TO.N,+3V3*%
X-62272500Y56185000D03*
%TO.P,U1,37,GPIO25*%
%TO.N,/GPIO25*%
X-62272500Y55785000D03*
%TO.P,U1,36,GPIO24*%
%TO.N,/GPIO24*%
X-62272500Y55385000D03*
%TO.P,U1,35,GPIO23*%
%TO.N,/GPIO23*%
X-62272500Y54985000D03*
%TO.P,U1,34,GPIO22*%
%TO.N,/GPIO22*%
X-62272500Y54585000D03*
%TO.P,U1,33,GPIO21*%
%TO.N,/GPIO21*%
X-62272500Y54185000D03*
%TO.P,U1,32,GPIO20*%
%TO.N,/GPIO20*%
X-62272500Y53785000D03*
D21*
%TO.P,U1,31,GPIO19*%
%TO.N,/GPIO19*%
X-62272500Y53385000D03*
D22*
%TO.P,U1,30,IOVDD*%
%TO.N,+3V3*%
X-62910000Y52747500D03*
D17*
%TO.P,U1,29,GPIO18*%
%TO.N,/GPIO18*%
X-63310000Y52747500D03*
%TO.P,U1,28,GPIO17*%
%TO.N,/GPIO17*%
X-63710000Y52747500D03*
%TO.P,U1,27,GPIO16*%
%TO.N,/GPIO16*%
X-64110000Y52747500D03*
%TO.P,U1,26,RUN*%
%TO.N,/RUN*%
X-64510000Y52747500D03*
%TO.P,U1,25,SWD*%
%TO.N,/SWD*%
X-64910000Y52747500D03*
%TO.P,U1,24,SWCLK*%
%TO.N,/SWCLK*%
X-65310000Y52747500D03*
%TO.P,U1,23,DVDD*%
%TO.N,+1V1*%
X-65710000Y52747500D03*
%TO.P,U1,22,XOUT*%
%TO.N,/XOUT*%
X-66110000Y52747500D03*
%TO.P,U1,21,XIN*%
%TO.N,/XIN*%
X-66510000Y52747500D03*
%TO.P,U1,20,IOVDD*%
%TO.N,+3V3*%
X-66910000Y52747500D03*
%TO.P,U1,19,GPIO15*%
%TO.N,/GPIO15*%
X-67310000Y52747500D03*
%TO.P,U1,18,GPIO14*%
%TO.N,/GPIO14*%
X-67710000Y52747500D03*
%TO.P,U1,17,GPIO13*%
%TO.N,/GPIO13*%
X-68110000Y52747500D03*
D23*
%TO.P,U1,16,GPIO12*%
%TO.N,/GPIO12*%
X-68510000Y52747500D03*
D24*
%TO.P,U1,15,GPIO11*%
%TO.N,/GPIO11*%
X-69147500Y53385000D03*
D20*
%TO.P,U1,14,GPIO10*%
%TO.N,/GPIO10*%
X-69147500Y53785000D03*
%TO.P,U1,13,GPIO9*%
%TO.N,/GPIO9*%
X-69147500Y54185000D03*
%TO.P,U1,12,GPIO8*%
%TO.N,/GPIO8*%
X-69147500Y54585000D03*
%TO.P,U1,11,IOVDD*%
%TO.N,+3V3*%
X-69147500Y54985000D03*
%TO.P,U1,10,GPIO7*%
%TO.N,/GPIO7*%
X-69147500Y55385000D03*
%TO.P,U1,9,GPIO6*%
%TO.N,/GPIO6*%
X-69147500Y55785000D03*
%TO.P,U1,8,GPIO5*%
%TO.N,/GPIO5*%
X-69147500Y56185000D03*
%TO.P,U1,7,GPIO4*%
%TO.N,/GPIO4*%
X-69147500Y56585000D03*
%TO.P,U1,6,DVDD*%
%TO.N,+1V1*%
X-69147500Y56985000D03*
%TO.P,U1,5,GPIO3*%
%TO.N,/GPIO3*%
X-69147500Y57385000D03*
%TO.P,U1,4,GPIO2*%
%TO.N,/GPIO2*%
X-69147500Y57785000D03*
%TO.P,U1,3,GPIO1*%
%TO.N,/GPIO1*%
X-69147500Y58185000D03*
%TO.P,U1,2,GPIO0*%
%TO.N,/GPIO0*%
X-69147500Y58585000D03*
D25*
%TO.P,U1,1,IOVDD*%
%TO.N,+3V3*%
X-69147500Y58985000D03*
%TD*%
D10*
%TO.P,C17,2*%
%TO.N,GND*%
X-60630000Y58245000D03*
%TO.P,C17,1*%
%TO.N,+3V3*%
X-60630000Y59205000D03*
%TD*%
D26*
%TO.P,C7,2*%
%TO.N,GND*%
X-63195000Y61735000D03*
%TO.P,C7,1*%
%TO.N,+1V1*%
X-64225000Y61735000D03*
%TD*%
D27*
%TO.P,L1,2,2*%
%TO.N,/VREG_LX*%
X-63010000Y63385000D03*
%TO.P,L1,1,1*%
%TO.N,+1V1*%
X-64410000Y63385000D03*
%TD*%
D10*
%TO.P,C9,2*%
%TO.N,GND*%
X-61900000Y60785000D03*
%TO.P,C9,1*%
%TO.N,/VREG_AVDD*%
X-61900000Y61745000D03*
%TD*%
D28*
%TO.P,R4,2*%
%TO.N,GND*%
X-61140000Y51105000D03*
%TO.P,R4,1*%
%TO.N,Net-(R4-Pad1)*%
X-60120000Y51105000D03*
%TD*%
D29*
%TO.P,SW1,2,2*%
%TO.N,/~{USB_BOOT}*%
X-70155000Y49520000D03*
%TO.P,SW1,1,1*%
%TO.N,GND*%
X-70155000Y45070000D03*
%TD*%
D11*
%TO.P,R3,2*%
%TO.N,GND*%
X-67615000Y66470000D03*
%TO.P,R3,1*%
%TO.N,Net-(J2-CC2)*%
X-67615000Y67490000D03*
%TD*%
%TO.P,R5,2*%
%TO.N,/VREG_AVDD*%
X-61900000Y62660000D03*
%TO.P,R5,1*%
%TO.N,+3V3*%
X-61900000Y63680000D03*
%TD*%
D30*
%TO.P,Y1,4,4*%
%TO.N,GND*%
X-66810000Y46875000D03*
%TO.P,Y1,3,3*%
%TO.N,Net-(C4-Pad1)*%
X-64610000Y46875000D03*
%TO.P,Y1,2,2*%
%TO.N,GND*%
X-64610000Y45175000D03*
%TO.P,Y1,1,1*%
%TO.N,/XIN*%
X-66810000Y45175000D03*
%TD*%
D31*
%TO.P,R2,2*%
%TO.N,Net-(C4-Pad1)*%
X-63930000Y49835000D03*
%TO.P,R2,1*%
%TO.N,/XOUT*%
X-64950000Y49835000D03*
%TD*%
D32*
%TO.P,J2,VBUS,VBUS*%
%TO.N,VBUS*%
X-68160000Y68600000D03*
X-63260000Y68600000D03*
D33*
%TO.P,J2,S,SHIELD*%
%TO.N,unconnected-(J2-SHIELD-PadS)*%
X-70028000Y73355000D03*
D34*
%TO.P,J2,NC3,NC*%
%TO.N,unconnected-(J2-NC-PadNC3)*%
X-70028000Y69175000D03*
%TO.P,J2,NC2,NC*%
%TO.N,unconnected-(J2-NC-PadNC2)*%
X-61392000Y69175000D03*
D33*
%TO.P,J2,NC1,NC*%
%TO.N,unconnected-(J2-NC-PadNC1)*%
X-61392000Y73355000D03*
D32*
%TO.P,J2,GND,GND*%
%TO.N,GND*%
X-68935000Y68600000D03*
X-62485000Y68600000D03*
D35*
%TO.P,J2,B8,NC*%
%TO.N,unconnected-(J2-NC-PadB8)*%
X-63960000Y68600000D03*
%TO.P,J2,B7,D-*%
%TO.N,/USB_D-*%
X-64960000Y68600000D03*
%TO.P,J2,B6,D+*%
%TO.N,/USB_D+*%
X-66460000Y68600000D03*
%TO.P,J2,B5,CC2*%
%TO.N,Net-(J2-CC2)*%
X-67460000Y68600000D03*
%TO.P,J2,A8,NC*%
%TO.N,unconnected-(J2-NC-PadA8)*%
X-66960000Y68600000D03*
%TO.P,J2,A7,D-*%
%TO.N,/USB_D-*%
X-65960000Y68600000D03*
%TO.P,J2,A6,D+*%
%TO.N,/USB_D+*%
X-65460000Y68600000D03*
%TO.P,J2,A5,CC1*%
%TO.N,Net-(J2-CC1)*%
X-64460000Y68600000D03*
%TD*%
D36*
%TO.P,C10,2*%
%TO.N,GND*%
X-65230000Y51105000D03*
%TO.P,C10,1*%
%TO.N,+1V1*%
X-66190000Y51105000D03*
%TD*%
%TO.P,C3,2*%
%TO.N,GND*%
X-66500000Y48565000D03*
%TO.P,C3,1*%
%TO.N,/XIN*%
X-67460000Y48565000D03*
%TD*%
D37*
%TO.P,J6,13,Pin_13*%
%TO.N,/GPIO19*%
X-58090000Y42850000D03*
D38*
X-56520000Y42850000D03*
D37*
%TO.P,J6,12,Pin_12*%
%TO.N,/GPIO20*%
X-58090000Y45390000D03*
D38*
X-56520000Y45390000D03*
D37*
%TO.P,J6,11,Pin_11*%
%TO.N,/GPIO21*%
X-58090000Y47930000D03*
D38*
X-56520000Y47930000D03*
D37*
%TO.P,J6,10,Pin_10*%
%TO.N,/GPIO22*%
X-58090000Y50470000D03*
D38*
X-56520000Y50470000D03*
D37*
%TO.P,J6,9,Pin_9*%
%TO.N,/GPIO26_ADC0*%
X-58090000Y53010000D03*
D38*
X-56520000Y53010000D03*
D37*
%TO.P,J6,8,Pin_8*%
%TO.N,/GPIO27_ADC1*%
X-58090000Y55550000D03*
D38*
X-56520000Y55550000D03*
D37*
%TO.P,J6,7,Pin_7*%
%TO.N,/GPIO28_ADC2*%
X-58090000Y58090000D03*
D38*
X-56520000Y58090000D03*
D37*
%TO.P,J6,6,Pin_6*%
%TO.N,/GPIO29_ADC3*%
X-58090000Y60630000D03*
D38*
X-56520000Y60630000D03*
D37*
%TO.P,J6,5,Pin_5*%
%TO.N,+3V3*%
X-58090000Y63170000D03*
D38*
X-56520000Y63170000D03*
D37*
%TO.P,J6,4,Pin_4*%
%TO.N,/RUN*%
X-58090000Y65710000D03*
D38*
X-56520000Y65710000D03*
D37*
%TO.P,J6,3,Pin_3*%
%TO.N,GND*%
X-58090000Y68250000D03*
D38*
X-56520000Y68250000D03*
D37*
%TO.P,J6,2,Pin_2*%
%TO.N,VBUS*%
X-58090000Y70790000D03*
D38*
X-56520000Y70790000D03*
D37*
%TO.P,J6,1,Pin_1*%
%TO.N,/USB_D-*%
X-58090000Y73330000D03*
D38*
X-56520000Y73330000D03*
%TD*%
D10*
%TO.P,C8,2*%
%TO.N,GND*%
X-70790000Y55705000D03*
%TO.P,C8,1*%
%TO.N,+1V1*%
X-70790000Y56665000D03*
%TD*%
D31*
%TO.P,R6,2*%
%TO.N,/~{USB_BOOT}*%
X-70280000Y51105000D03*
%TO.P,R6,1*%
%TO.N,/QSPI_SS*%
X-71300000Y51105000D03*
%TD*%
D13*
%TO.P,C18,2*%
%TO.N,GND*%
X-68730000Y51105000D03*
%TO.P,C18,1*%
%TO.N,+3V3*%
X-67770000Y51105000D03*
%TD*%
D26*
%TO.P,C6,2*%
%TO.N,GND*%
X-63195000Y60785000D03*
%TO.P,C6,1*%
%TO.N,+3V3*%
X-64225000Y60785000D03*
%TD*%
D39*
%TO.P,SW2,2,2*%
%TO.N,/RUN*%
X-61265000Y45070000D03*
%TO.P,SW2,1,1*%
%TO.N,Net-(R4-Pad1)*%
X-61265000Y49520000D03*
%TD*%
D10*
%TO.P,C11,2*%
%TO.N,GND*%
X-60630000Y55705000D03*
%TO.P,C11,1*%
%TO.N,+1V1*%
X-60630000Y56665000D03*
%TD*%
D13*
%TO.P,C4,2*%
%TO.N,GND*%
X-64920000Y48565000D03*
%TO.P,C4,1*%
%TO.N,Net-(C4-Pad1)*%
X-63960000Y48565000D03*
%TD*%
D38*
%TO.P,J5,13,Pin_13*%
%TO.N,/GPIO9*%
X-74900000Y42850000D03*
D40*
X-73330000Y42850000D03*
D38*
%TO.P,J5,12,Pin_12*%
%TO.N,/GPIO8*%
X-74900000Y45390000D03*
D40*
X-73330000Y45390000D03*
D38*
%TO.P,J5,11,Pin_11*%
%TO.N,/GPIO7*%
X-74900000Y47930000D03*
D40*
X-73330000Y47930000D03*
D38*
%TO.P,J5,10,Pin_10*%
%TO.N,/GPIO6*%
X-74900000Y50470000D03*
D40*
X-73330000Y50470000D03*
D38*
%TO.P,J5,9,Pin_9*%
%TO.N,/GPIO5*%
X-74900000Y53010000D03*
D40*
X-73330000Y53010000D03*
D38*
%TO.P,J5,8,Pin_8*%
%TO.N,/GPIO4*%
X-74900000Y55550000D03*
D40*
X-73330000Y55550000D03*
D38*
%TO.P,J5,7,Pin_7*%
%TO.N,/GPIO3*%
X-74900000Y58090000D03*
D40*
X-73330000Y58090000D03*
D38*
%TO.P,J5,6,Pin_6*%
%TO.N,/GPIO2*%
X-74900000Y60630000D03*
D40*
X-73330000Y60630000D03*
D38*
%TO.P,J5,5,Pin_5*%
%TO.N,GND*%
X-74900000Y63170000D03*
D40*
X-73330000Y63170000D03*
D38*
%TO.P,J5,4,Pin_4*%
X-74900000Y65710000D03*
D40*
X-73330000Y65710000D03*
D38*
%TO.P,J5,3,Pin_3*%
%TO.N,/GPIO1*%
X-74900000Y68250000D03*
D40*
X-73330000Y68250000D03*
D38*
%TO.P,J5,2,Pin_2*%
%TO.N,/GPIO0*%
X-74900000Y70790000D03*
D40*
X-73330000Y70790000D03*
D38*
%TO.P,J5,1,Pin_1*%
%TO.N,/USB_D+*%
X-74900000Y73330000D03*
D40*
X-73330000Y73330000D03*
%TD*%
D41*
%TO.P,J7,5,Pin_5*%
%TO.N,/GPIO14*%
X-60630000Y41280000D03*
D42*
X-60630000Y42850000D03*
D41*
%TO.P,J7,4,Pin_4*%
%TO.N,/GPIO13*%
X-63170000Y41280000D03*
D42*
X-63170000Y42850000D03*
D41*
%TO.P,J7,3,Pin_3*%
%TO.N,/GPIO12*%
X-65710000Y41280000D03*
D42*
X-65710000Y42850000D03*
D41*
%TO.P,J7,2,Pin_2*%
%TO.N,/GPIO11*%
X-68250000Y41280000D03*
D42*
X-68250000Y42850000D03*
D41*
%TO.P,J7,1,Pin_1*%
%TO.N,/GPIO10*%
X-70790000Y41280000D03*
D42*
X-70790000Y42850000D03*
%TD*%
D43*
%TO.N,GND*%
X-63932000Y64567000D03*
X-59868000Y59614000D03*
X-67488000Y65837000D03*
X-62154000Y52756000D03*
X-59868000Y62916000D03*
X-68351600Y48717400D03*
X-71298000Y58471000D03*
X-59868000Y58217000D03*
D44*
X-69012000Y67488000D03*
D43*
X-63195000Y60376000D03*
X-63710000Y62992200D03*
X-68885000Y65837000D03*
X-66472000Y49708000D03*
X-63170000Y51740000D03*
X-68707200Y43942200D03*
X-65202000Y64313000D03*
X-59940000Y56730000D03*
X-66700600Y64338400D03*
X-65583000Y50597000D03*
X-70180400Y59436200D03*
D44*
X-62408000Y67488000D03*
D43*
X-62480000Y62210000D03*
X-64186000Y65964000D03*
X-70282000Y44094600D03*
X-71552000Y56693000D03*
X-59868000Y64440000D03*
X-70155000Y51867000D03*
%TO.N,/GPIO14*%
X-67894400Y51765400D03*
%TO.N,+3V3*%
X-67691200Y58801200D03*
X-68051388Y54228849D03*
D44*
X-61265000Y63680000D03*
X-66061070Y58686000D03*
D43*
X-63449400Y58699600D03*
D44*
X-65329000Y63678000D03*
D43*
X-66167200Y53772000D03*
X-63271600Y56083400D03*
X-65227400Y53772000D03*
%TO.N,Net-(U1-USB_DM)*%
X-64922600Y58852000D03*
X-65075000Y65837000D03*
%TO.N,/GPIO13*%
X-68392461Y51931420D03*
%TO.N,/GPIO12*%
X-68808800Y52908400D03*
%TO.N,/GPIO11*%
X-68402400Y53543400D03*
%TO.N,/GPIO10*%
X-69596200Y50978000D03*
%TO.N,/GPIO9*%
X-70104200Y52400400D03*
%TO.N,/GPIO8*%
X-68478600Y54534000D03*
%TO.N,/GPIO7*%
X-68123000Y55448400D03*
%TO.N,/GPIO6*%
X-68123000Y55973403D03*
%TO.N,/GPIO5*%
X-68326200Y56515200D03*
%TO.N,/GPIO1*%
X-68529400Y58191600D03*
%TO.N,/GPIO0*%
X-69875600Y58471000D03*
%TO.N,/GPIO29_ADC3*%
X-62916000Y58217000D03*
X-59741000Y58979000D03*
%TO.N,/GPIO26_ADC0*%
X-63017600Y56997800D03*
%TO.N,/GPIO22*%
X-61584088Y54638219D03*
%TO.N,/GPIO21*%
X-61345588Y54170517D03*
%TO.N,/GPIO20*%
X-61569800Y53695800D03*
%TO.N,/GPIO19*%
X-61569800Y53170797D03*
%TO.N,/RUN*%
X-59207600Y56007200D03*
%TO.N,/SWD*%
X-64744800Y51740000D03*
%TO.N,/SWCLK*%
X-65252800Y51892400D03*
%TO.N,/QSPI_SS*%
X-71451806Y54027406D03*
X-68910400Y59436200D03*
%TO.N,Net-(U1-USB_DP)*%
X-65445789Y58895599D03*
X-66345000Y65837000D03*
%TD*%
D45*
%TO.N,+1V1*%
X-70375385Y56665000D02*
X-70790000Y56665000D01*
X-64225000Y63200000D02*
X-64410000Y63385000D01*
X-64465400Y58136000D02*
X-64389200Y58136000D01*
X-65710000Y51585000D02*
X-65710000Y52747500D01*
X-70055385Y56985000D02*
X-70375385Y56665000D01*
X-63991418Y58136000D02*
X-63837109Y57981691D01*
X-69147500Y56985000D02*
X-70055385Y56985000D01*
X-64370000Y58155200D02*
X-64389200Y58136000D01*
X-60710000Y56585000D02*
X-60630000Y56665000D01*
X-64510000Y59622500D02*
X-64465400Y59577900D01*
X-67661000Y54466418D02*
X-67661000Y56972400D01*
X-69147500Y56985000D02*
X-67673600Y56985000D01*
X-64389200Y58136000D02*
X-64287600Y58136000D01*
X-66190000Y51105000D02*
X-65710000Y51585000D01*
X-67661000Y56972400D02*
X-67661000Y57903582D01*
X-63759000Y56591400D02*
X-63714400Y56546800D01*
X-63759000Y55367400D02*
X-63759000Y54466418D01*
X-63837109Y57981691D02*
X-63759000Y57903582D01*
X-63714400Y56546800D02*
X-62310700Y56546800D01*
X-65710000Y52747500D02*
X-65710000Y54234000D01*
X-64510000Y59622500D02*
X-64510000Y60118000D01*
X-67428582Y54234000D02*
X-67661000Y54466418D01*
X-64686000Y61274000D02*
X-64225000Y61735000D01*
X-63759000Y56591400D02*
X-63759000Y55367400D01*
X-63991418Y54234000D02*
X-65710000Y54234000D01*
X-63759000Y54466418D02*
X-63991418Y54234000D01*
%TO.N,/GPIO13*%
X-68110000Y52213881D02*
X-68392461Y51931420D01*
X-68110000Y52747500D02*
X-68110000Y52213881D01*
%TO.N,GND*%
X-63556838Y51105000D02*
X-62995838Y50544000D01*
X-63170000Y60249000D02*
X-63310000Y60109000D01*
X-63195000Y60376000D02*
X-63195000Y60274000D01*
X-63195000Y61735000D02*
X-63195000Y60785000D01*
X-64186000Y65964000D02*
X-64186000Y66089000D01*
X-61701000Y50544000D02*
X-61140000Y51105000D01*
X-63195000Y60785000D02*
X-63195000Y60376000D01*
X-63650000Y51105000D02*
X-63556838Y51105000D01*
D46*
%TO.N,VBUS*%
X-63596000Y69383570D02*
X-63260000Y69047570D01*
X-68250000Y64942500D02*
X-68286000Y64978500D01*
X-58090000Y70790000D02*
X-62832430Y70790000D01*
X-68284000Y67751000D02*
X-68284000Y68476000D01*
X-63260000Y69047570D02*
X-63260000Y68600000D01*
X-63596000Y70026430D02*
X-63596000Y69383570D01*
X-68286000Y64978500D02*
X-68286000Y67749000D01*
X-68284000Y68476000D02*
X-68160000Y68600000D01*
D45*
X-70132500Y64942500D02*
X-70790000Y64285000D01*
X-68250000Y64942500D02*
X-70132500Y64942500D01*
D46*
X-63134000Y66129950D02*
X-64321450Y64942500D01*
X-68160000Y65032500D02*
X-68250000Y64942500D01*
X-62832430Y70790000D02*
X-63596000Y70026430D01*
X-68286000Y67749000D02*
X-68284000Y67751000D01*
X-63260000Y67956050D02*
X-63134000Y67830050D01*
X-63134000Y67830050D02*
X-63134000Y66129950D01*
X-64321450Y64942500D02*
X-68250000Y64942500D01*
X-63260000Y68600000D02*
X-63260000Y67956050D01*
D45*
%TO.N,/XIN*%
X-66510000Y52148226D02*
X-66510000Y52747500D01*
X-67072000Y51586226D02*
X-66510000Y52148226D01*
X-67761000Y46126000D02*
X-67761000Y48264000D01*
X-67072000Y48953000D02*
X-67072000Y51586226D01*
X-67460000Y48565000D02*
X-67072000Y48953000D01*
X-67761000Y48264000D02*
X-67460000Y48565000D01*
X-66810000Y45175000D02*
X-67761000Y46126000D01*
%TO.N,/XOUT*%
X-66721000Y51440838D02*
X-66721000Y50769162D01*
X-66110000Y52747500D02*
X-66110000Y52051838D01*
X-65786838Y49835000D02*
X-64950000Y49835000D01*
X-66721000Y50769162D02*
X-65786838Y49835000D01*
X-66110000Y52051838D02*
X-66721000Y51440838D01*
%TO.N,+3V3*%
X-63449400Y58699600D02*
X-63651664Y58699600D01*
X-67448400Y51105000D02*
X-67423000Y51130400D01*
X-63408000Y54321029D02*
X-63408000Y55947000D01*
X-65710000Y59622500D02*
X-65710000Y59974486D01*
X-63627015Y54102015D02*
X-62961000Y53436000D01*
X-66910000Y52244614D02*
X-66910000Y52747500D01*
X-63651664Y58699600D02*
X-64110000Y59157936D01*
X-68663968Y58934000D02*
X-66333936Y58934000D01*
X-69147500Y54985000D02*
X-70075000Y54985000D01*
X-69147500Y54985000D02*
X-68031200Y54985000D01*
X-62690000Y51105000D02*
X-62690000Y52527500D01*
X-64110000Y59157936D02*
X-64110000Y59622500D01*
X-60630000Y54125000D02*
X-60630000Y55174000D01*
X-67770000Y51105000D02*
X-67448400Y51105000D01*
%TO.N,/~{USB_BOOT}*%
X-70280000Y51105000D02*
X-70280000Y49645000D01*
X-70280000Y49645000D02*
X-70155000Y49520000D01*
X-70129600Y51255400D02*
X-70280000Y51105000D01*
%TO.N,/GPIO14*%
X-67710000Y52747500D02*
X-67710000Y51949800D01*
X-67710000Y51949800D02*
X-67894400Y51765400D01*
%TO.N,+3V3*%
X-62557900Y58699600D02*
X-63449400Y58699600D01*
D46*
X-66339500Y62667500D02*
X-65329000Y63678000D01*
D45*
X-64110000Y60670000D02*
X-64225000Y60785000D01*
X-68027600Y54252637D02*
X-68051388Y54228849D01*
X-62372500Y58885000D02*
X-62272500Y58985000D01*
X-62272500Y56185000D02*
X-62737064Y56185000D01*
X-66110000Y59157936D02*
X-66110000Y59622500D01*
D46*
X-65996789Y58750281D02*
X-66061070Y58686000D01*
D45*
X-62272500Y58985000D02*
X-62557900Y58699600D01*
X-66910000Y53863800D02*
X-66929200Y53883000D01*
X-66910000Y52747500D02*
X-66910000Y53863800D01*
X-65710000Y59622500D02*
X-66110000Y59622500D01*
X-60965838Y55174000D02*
X-61191000Y55399162D01*
X-62961000Y53231032D02*
X-62961000Y53436000D01*
D46*
X-65996789Y59271147D02*
X-65996789Y58750281D01*
D45*
X-68031200Y54985000D02*
X-68027600Y54981400D01*
X-66085936Y58686000D02*
X-66061070Y58686000D01*
X-68031200Y54985000D02*
X-68012000Y54965800D01*
D46*
X-66322501Y62667500D02*
X-65230000Y61574999D01*
D45*
X-61191000Y55399162D02*
X-61191000Y56181000D01*
X-67423000Y51130400D02*
X-67423000Y51731614D01*
X-61195000Y56185000D02*
X-62272500Y56185000D01*
X-68012000Y54965800D02*
X-68012000Y54321029D01*
X-62272500Y56185000D02*
X-63170000Y56185000D01*
X-62272500Y58985000D02*
X-60850000Y58985000D01*
X-66278200Y53883000D02*
X-66167200Y53772000D01*
X-66333936Y58934000D02*
X-65996789Y59271147D01*
X-61191000Y56181000D02*
X-61195000Y56185000D01*
X-68027600Y54981400D02*
X-68027600Y54252637D01*
X-65227400Y53772000D02*
X-65116400Y53883000D01*
D46*
X-65230000Y61265000D02*
X-65230000Y60708486D01*
D45*
X-70075000Y54985000D02*
X-70795000Y54265000D01*
X-63408000Y55947000D02*
X-63271600Y56083400D01*
X-69147500Y58985000D02*
X-70715000Y58985000D01*
X-66929200Y53883000D02*
X-66599000Y53883000D01*
X-64110000Y59157936D02*
X-63837064Y58885000D01*
X-67423000Y51731614D02*
X-66910000Y52244614D01*
X-62690000Y52527500D02*
X-62910000Y52747500D01*
X-65116400Y53883000D02*
X-63846029Y53883000D01*
D46*
X-65230000Y60708486D02*
X-65996789Y59941697D01*
X-67300000Y62667500D02*
X-66322501Y62667500D01*
X-65230000Y61574999D02*
X-65230000Y61265000D01*
D45*
X-66599000Y53883000D02*
X-66278200Y53883000D01*
X-62272500Y58585000D02*
X-62272500Y58985000D01*
X-62910000Y53180032D02*
X-62961000Y53231032D01*
X-68714968Y58985000D02*
X-68663968Y58934000D01*
X-68012000Y54321029D02*
X-67573971Y53883000D01*
X-63846029Y53883000D02*
X-63408000Y54321029D01*
X-60630000Y55174000D02*
X-60965838Y55174000D01*
D46*
X-61900000Y63680000D02*
X-61265000Y63680000D01*
D45*
X-69147500Y58985000D02*
X-68714968Y58985000D01*
X-66333936Y58934000D02*
X-66085936Y58686000D01*
X-70715000Y58985000D02*
X-70795000Y59065000D01*
D46*
X-58600000Y63680000D02*
X-58090000Y63170000D01*
X-61265000Y63680000D02*
X-58600000Y63680000D01*
X-67300000Y62667500D02*
X-66339500Y62667500D01*
D45*
X-60850000Y58985000D02*
X-60630000Y59205000D01*
X-67573971Y53883000D02*
X-66929200Y53883000D01*
X-64110000Y59622500D02*
X-64110000Y60670000D01*
X-62910000Y52747500D02*
X-62910000Y53180032D01*
D46*
X-65996789Y59941697D02*
X-65996789Y59271147D01*
D45*
X-63170000Y56185000D02*
X-63271600Y56083400D01*
%TO.N,+1V1*%
X-67673600Y56985000D02*
X-67661000Y56972400D01*
X-67428582Y58136000D02*
X-65502000Y58136000D01*
X-64465400Y59577900D02*
X-64465400Y58136000D01*
X-63759000Y57903582D02*
X-63759000Y56591400D01*
X-64510000Y59622500D02*
X-64510000Y59153411D01*
X-64287600Y58136000D02*
X-63991418Y58136000D01*
X-64225000Y61735000D02*
X-64225000Y63200000D01*
X-64686000Y60294000D02*
X-64686000Y61274000D01*
X-63759000Y55367400D02*
X-63759000Y55361000D01*
X-64510000Y60118000D02*
X-64686000Y60294000D01*
X-62272500Y56585000D02*
X-60710000Y56585000D01*
X-65502000Y58136000D02*
X-64465400Y58136000D01*
X-65710000Y54234000D02*
X-67428582Y54234000D01*
X-62310700Y56546800D02*
X-62272500Y56585000D01*
X-67661000Y57903582D02*
X-67428582Y58136000D01*
%TO.N,Net-(U1-USB_DM)*%
X-64910000Y59622500D02*
X-64910000Y58864600D01*
X-64910000Y58864600D02*
X-64922600Y58852000D01*
%TO.N,Net-(J2-CC2)*%
X-67615000Y67490000D02*
X-67460000Y67645000D01*
X-67460000Y67645000D02*
X-67460000Y68600000D01*
%TO.N,/GPIO12*%
X-68647900Y52747500D02*
X-68808800Y52908400D01*
X-68510000Y52747500D02*
X-68647900Y52747500D01*
%TO.N,/GPIO11*%
X-68509800Y53436000D02*
X-68402400Y53543400D01*
X-68714968Y53385000D02*
X-68663968Y53436000D01*
X-68663968Y53436000D02*
X-68509800Y53436000D01*
X-69147500Y53385000D02*
X-68714968Y53385000D01*
%TO.N,/GPIO10*%
X-69596200Y52530211D02*
X-69596200Y50978000D01*
X-69610679Y53785000D02*
X-69836000Y53559679D01*
X-69147500Y53785000D02*
X-69610679Y53785000D01*
X-69836000Y53559679D02*
X-69836000Y52770011D01*
X-69836000Y52770011D02*
X-69596200Y52530211D01*
%TO.N,/GPIO9*%
X-70187000Y53046162D02*
X-70187000Y52483200D01*
X-70187000Y53705067D02*
X-69707067Y54185000D01*
X-69707067Y54185000D02*
X-69147500Y54185000D01*
X-70187000Y52483200D02*
X-70104200Y52400400D01*
X-70187000Y53046162D02*
X-70187000Y53705067D01*
%TO.N,/GPIO8*%
X-68529600Y54585000D02*
X-68478600Y54534000D01*
X-69147500Y54585000D02*
X-68529600Y54585000D01*
%TO.N,/GPIO7*%
X-69147500Y55385000D02*
X-68186400Y55385000D01*
X-68186400Y55385000D02*
X-68123000Y55448400D01*
%TO.N,/GPIO6*%
X-68424211Y55785000D02*
X-68235808Y55973403D01*
X-69147500Y55785000D02*
X-68424211Y55785000D01*
X-68235808Y55973403D02*
X-68123000Y55973403D01*
%TO.N,/GPIO5*%
X-69147500Y56185000D02*
X-68656400Y56185000D01*
X-68656400Y56185000D02*
X-68326200Y56515200D01*
%TO.N,/GPIO4*%
X-69958997Y56238067D02*
X-69612064Y56585000D01*
X-70454162Y55174000D02*
X-72954000Y55174000D01*
X-69612064Y56585000D02*
X-69147500Y56585000D01*
X-69958997Y55669165D02*
X-70454162Y55174000D01*
X-69958997Y55669165D02*
X-69958997Y56238067D01*
X-72954000Y55174000D02*
X-73330000Y55550000D01*
%TO.N,/GPIO3*%
X-70151773Y57385000D02*
X-70313774Y57223000D01*
X-72463000Y57223000D02*
X-73330000Y58090000D01*
X-70313774Y57223000D02*
X-72463000Y57223000D01*
X-69147500Y57385000D02*
X-70151773Y57385000D01*
%TO.N,/GPIO2*%
X-70248162Y57785000D02*
X-70459162Y57574000D01*
X-71130838Y57574000D02*
X-73330000Y59773162D01*
X-69147500Y57785000D02*
X-70248162Y57785000D01*
X-73330000Y59773162D02*
X-73330000Y60630000D01*
X-70459162Y57574000D02*
X-71130838Y57574000D01*
%TO.N,/GPIO1*%
X-68536000Y58185000D02*
X-68529400Y58191600D01*
X-69147500Y58185000D02*
X-68536000Y58185000D01*
%TO.N,/GPIO0*%
X-69761600Y58585000D02*
X-69875600Y58471000D01*
X-69147500Y58585000D02*
X-69761600Y58585000D01*
%TO.N,/GPIO29_ADC3*%
X-62272500Y58185000D02*
X-62884000Y58185000D01*
X-62884000Y58185000D02*
X-62916000Y58217000D01*
X-59741000Y58979000D02*
X-58090000Y60630000D01*
%TO.N,/GPIO28_ADC2*%
X-61807936Y57785000D02*
X-62272500Y57785000D01*
X-58466000Y57714000D02*
X-61736936Y57714000D01*
X-58090000Y58090000D02*
X-58466000Y57714000D01*
X-61736936Y57714000D02*
X-61807936Y57785000D01*
%TO.N,/GPIO27_ADC1*%
X-62272500Y57385000D02*
X-62250500Y57363000D01*
X-62250500Y57363000D02*
X-59903000Y57363000D01*
X-59903000Y57363000D02*
X-58090000Y55550000D01*
%TO.N,/GPIO26_ADC0*%
X-62272500Y56985000D02*
X-63004800Y56985000D01*
X-63004800Y56985000D02*
X-63017600Y56997800D01*
%TO.N,/GPIO22*%
X-62272500Y54585000D02*
X-61637307Y54585000D01*
X-61637307Y54585000D02*
X-61584088Y54638219D01*
%TO.N,/GPIO21*%
X-61360071Y54185000D02*
X-61345588Y54170517D01*
X-62272500Y54185000D02*
X-61360071Y54185000D01*
%TO.N,/GPIO20*%
X-62272500Y53785000D02*
X-61659000Y53785000D01*
X-61659000Y53785000D02*
X-61569800Y53695800D01*
%TO.N,/GPIO19*%
X-61682608Y53170797D02*
X-61569800Y53170797D01*
X-61896811Y53385000D02*
X-61682608Y53170797D01*
X-62272500Y53385000D02*
X-61896811Y53385000D01*
%TO.N,/RUN*%
X-64181000Y51953936D02*
X-64510000Y52282936D01*
X-64181000Y50927200D02*
X-64181000Y50769162D01*
X-62516000Y46321000D02*
X-61265000Y45070000D01*
X-62516000Y49290628D02*
X-62516000Y46321000D01*
X-59207600Y47127400D02*
X-59207600Y56007200D01*
X-64181000Y50927200D02*
X-64181000Y51953936D01*
X-61265000Y45070000D02*
X-59207600Y47127400D01*
X-63856438Y50444600D02*
X-63669972Y50444600D01*
X-64510000Y52282936D02*
X-64510000Y52747500D01*
X-63669972Y50444600D02*
X-62516000Y49290628D01*
X-64181000Y50769162D02*
X-63856438Y50444600D01*
%TO.N,/SWD*%
X-64744800Y51740000D02*
X-64744800Y52021347D01*
X-64744800Y52021347D02*
X-64910000Y52186547D01*
X-64910000Y52186547D02*
X-64910000Y52747500D01*
%TO.N,/SWCLK*%
X-65310000Y51949600D02*
X-65252800Y51892400D01*
X-65310000Y52747500D02*
X-65310000Y51949600D01*
%TO.N,/QSPI_SS*%
X-71300000Y51105000D02*
X-71451806Y51256806D01*
X-68724100Y59622500D02*
X-68910400Y59436200D01*
X-68510000Y59622500D02*
X-68724100Y59622500D01*
X-71230000Y51035000D02*
X-71300000Y51105000D01*
X-71451806Y51256806D02*
X-71451806Y54027406D01*
%TO.N,/USB_D+*%
X-73330000Y73330000D02*
X-72212400Y72212400D01*
X-72212400Y72212400D02*
X-69372400Y72212400D01*
X-65944628Y67490000D02*
X-66345000Y67490000D01*
X-66470000Y68590000D02*
X-66460000Y68600000D01*
X-65460000Y68600000D02*
X-65460000Y67974628D01*
X-69372400Y72212400D02*
X-66460000Y69300000D01*
X-66460000Y67605000D02*
X-66460000Y68600000D01*
X-65460000Y67974628D02*
X-65944628Y67490000D01*
X-66345000Y67490000D02*
X-66460000Y67605000D01*
X-66460000Y69300000D02*
X-66460000Y68600000D01*
%TO.N,/USB_D-*%
X-64960000Y67605000D02*
X-65075000Y67490000D01*
X-59116000Y72304000D02*
X-58090000Y73330000D01*
X-64960000Y69300000D02*
X-61956000Y72304000D01*
X-64960000Y68600000D02*
X-64960000Y69300000D01*
X-65960000Y69300000D02*
X-65909000Y69351000D01*
X-61956000Y72304000D02*
X-59116000Y72304000D01*
X-65909000Y69351000D02*
X-65011000Y69351000D01*
X-65011000Y69351000D02*
X-64960000Y69300000D01*
X-65960000Y68600000D02*
X-65960000Y69300000D01*
X-64960000Y68600000D02*
X-64960000Y67605000D01*
%TO.N,Net-(C4-Pad1)*%
X-63960000Y47525000D02*
X-64610000Y46875000D01*
X-63960000Y48565000D02*
X-63960000Y47525000D01*
X-63960000Y48565000D02*
X-63960000Y49805000D01*
X-63960000Y49805000D02*
X-63930000Y49835000D01*
%TO.N,/VREG_LX*%
X-63010000Y63385000D02*
X-63010000Y62872000D01*
X-63010000Y62872000D02*
X-63710000Y62172000D01*
X-63710000Y62172000D02*
X-63710000Y59622500D01*
%TO.N,Net-(R4-Pad1)*%
X-60190000Y51035000D02*
X-60120000Y51105000D01*
X-61265000Y49520000D02*
X-60120000Y50665000D01*
X-60120000Y50665000D02*
X-60120000Y51105000D01*
%TO.N,/VREG_AVDD*%
X-61339000Y60479162D02*
X-61339000Y61184000D01*
X-61339000Y61184000D02*
X-61900000Y61745000D01*
X-62195662Y59622500D02*
X-61339000Y60479162D01*
X-61900000Y62660000D02*
X-61900000Y61745000D01*
X-62910000Y59622500D02*
X-62195662Y59622500D01*
%TO.N,Net-(U1-USB_DP)*%
X-65310000Y59622500D02*
X-65310000Y59157936D01*
X-65310000Y59622500D02*
X-65310000Y59102411D01*
X-66345000Y65837000D02*
X-66345000Y66470000D01*
X-65445789Y58966622D02*
X-65445789Y58895599D01*
X-65310000Y59102411D02*
X-65445789Y58966622D01*
%TO.N,Net-(U1-USB_DM)*%
X-65075000Y65837000D02*
X-65075000Y66470000D01*
%TO.N,Net-(J2-CC1)*%
X-64460000Y68600000D02*
X-64460000Y67900000D01*
X-64050000Y67490000D02*
X-63805000Y67490000D01*
X-64460000Y67900000D02*
X-64050000Y67490000D01*
%TO.N,GND*%
X-64186000Y66089000D02*
X-63805000Y66470000D01*
X-63310000Y60109000D02*
X-63310000Y59622500D01*
X-63195000Y60274000D02*
X-63170000Y60249000D01*
X-62995838Y50544000D02*
X-61701000Y50544000D01*
%TD*%
%TA.AperFunction,Conductor*%
%TO.N,GND*%
G36*
X-71030693Y54903815D02*
G01*
X-70984938Y54851011D01*
X-70974994Y54781853D01*
X-71004019Y54718297D01*
X-71047646Y54686066D01*
X-71132016Y54648814D01*
X-71208813Y54572017D01*
X-71252682Y54472663D01*
X-71254678Y54465327D01*
X-71291274Y54405808D01*
X-71354239Y54375522D01*
X-71397498Y54377667D01*
X-71397606Y54376845D01*
X-71405661Y54377906D01*
X-71405662Y54377906D01*
X-71497950Y54377906D01*
X-71587094Y54354020D01*
X-71587095Y54354020D01*
X-71587097Y54354019D01*
X-71587100Y54354018D01*
X-71667012Y54307880D01*
X-71667021Y54307873D01*
X-71732273Y54242621D01*
X-71732280Y54242612D01*
X-71778418Y54162700D01*
X-71778419Y54162697D01*
X-71778420Y54162695D01*
X-71778420Y54162694D01*
X-71802306Y54073550D01*
X-71802306Y53981262D01*
X-71778600Y53892789D01*
X-71778419Y53892116D01*
X-71778418Y53892113D01*
X-71732279Y53812200D01*
X-71732277Y53812198D01*
X-71732275Y53812194D01*
X-71732273Y53812192D01*
X-71727932Y53806535D01*
X-71702736Y53741366D01*
X-71702306Y53731046D01*
X-71702306Y51417588D01*
X-71712872Y51367502D01*
X-71717729Y51356503D01*
X-71717730Y51356499D01*
X-71720500Y51332625D01*
X-71720500Y50877385D01*
X-71720498Y50877362D01*
X-71717731Y50853505D01*
X-71717731Y50853502D01*
X-71674620Y50755865D01*
X-71674617Y50755861D01*
X-71674616Y50755859D01*
X-71599141Y50680384D01*
X-71599138Y50680383D01*
X-71599137Y50680382D01*
X-71501501Y50637271D01*
X-71501500Y50637271D01*
X-71501498Y50637270D01*
X-71477623Y50634500D01*
X-71122378Y50634501D01*
X-71098502Y50637270D01*
X-71000865Y50680381D01*
X-71000864Y50680382D01*
X-71000859Y50680384D01*
X-70925384Y50755859D01*
X-70903434Y50805570D01*
X-70858349Y50858946D01*
X-70791562Y50879474D01*
X-70724280Y50860636D01*
X-70692213Y50831731D01*
X-70682770Y50819620D01*
X-70654616Y50755859D01*
X-70579141Y50680384D01*
X-70571613Y50677060D01*
X-70556713Y50657951D01*
X-70550660Y50642646D01*
X-70540248Y50629896D01*
X-70534630Y50602121D01*
X-70531014Y50592979D01*
X-70531886Y50588555D01*
X-70530500Y50581704D01*
X-70530500Y50319500D01*
X-70550185Y50252461D01*
X-70602989Y50206706D01*
X-70654500Y50195500D01*
X-70936518Y50195500D01*
X-71017481Y50182677D01*
X-71030304Y50180646D01*
X-71143342Y50123050D01*
X-71143343Y50123049D01*
X-71143348Y50123046D01*
X-71233046Y50033348D01*
X-71233049Y50033343D01*
X-71290648Y49920302D01*
X-71305500Y49826525D01*
X-71305500Y49213483D01*
X-71297324Y49161864D01*
X-71290646Y49119696D01*
X-71233050Y49006658D01*
X-71233048Y49006656D01*
X-71233046Y49006653D01*
X-71143348Y48916955D01*
X-71143346Y48916954D01*
X-71143342Y48916950D01*
X-71033419Y48860941D01*
X-71030302Y48859353D01*
X-70936525Y48844501D01*
X-70936519Y48844500D01*
X-69373482Y48844501D01*
X-69279696Y48859354D01*
X-69166658Y48916950D01*
X-69076950Y49006658D01*
X-69019354Y49119696D01*
X-69019354Y49119698D01*
X-69019353Y49119699D01*
X-69004501Y49213476D01*
X-69004500Y49213481D01*
X-69004501Y49826518D01*
X-69019354Y49920304D01*
X-69076950Y50033342D01*
X-69076954Y50033346D01*
X-69076955Y50033348D01*
X-69166653Y50123046D01*
X-69166656Y50123048D01*
X-69166658Y50123050D01*
X-69246202Y50163580D01*
X-69279699Y50180648D01*
X-69373476Y50195500D01*
X-69373481Y50195500D01*
X-69905500Y50195500D01*
X-69972539Y50215185D01*
X-70018294Y50267989D01*
X-70029500Y50319500D01*
X-70029500Y50581704D01*
X-70009815Y50648743D01*
X-69989912Y50672537D01*
X-69982020Y50679872D01*
X-69980859Y50680384D01*
X-69972854Y50688390D01*
X-69971213Y50689914D01*
X-69941906Y50704551D01*
X-69913163Y50720246D01*
X-69910813Y50720078D01*
X-69908704Y50721131D01*
X-69876137Y50717600D01*
X-69843471Y50715264D01*
X-69840760Y50713763D01*
X-69839242Y50713598D01*
X-69836576Y50711446D01*
X-69818532Y50701453D01*
X-69818450Y50701594D01*
X-69731494Y50651389D01*
X-69731493Y50651389D01*
X-69731488Y50651386D01*
X-69642344Y50627500D01*
X-69642342Y50627500D01*
X-69550058Y50627500D01*
X-69550056Y50627500D01*
X-69460912Y50651386D01*
X-69380988Y50697531D01*
X-69315731Y50762788D01*
X-69269586Y50842712D01*
X-69245700Y50931856D01*
X-69245700Y51024144D01*
X-69269586Y51113288D01*
X-69269589Y51113294D01*
X-69315729Y51193210D01*
X-69320077Y51198876D01*
X-69345270Y51264046D01*
X-69345700Y51274361D01*
X-69345700Y52580038D01*
X-69345701Y52580041D01*
X-69346424Y52581786D01*
X-69383836Y52672108D01*
X-69454303Y52742575D01*
X-69549181Y52837453D01*
X-69563885Y52864381D01*
X-69580477Y52890199D01*
X-69581369Y52896400D01*
X-69582666Y52898776D01*
X-69585500Y52925134D01*
X-69585500Y53010500D01*
X-69565815Y53077539D01*
X-69513011Y53123294D01*
X-69461500Y53134500D01*
X-69272681Y53134500D01*
X-69205642Y53114815D01*
X-69159887Y53062011D01*
X-69149943Y52992853D01*
X-69152906Y52978408D01*
X-69159300Y52954546D01*
X-69159300Y52954544D01*
X-69159300Y52862256D01*
X-69146587Y52814809D01*
X-69135413Y52773110D01*
X-69135412Y52773107D01*
X-69089274Y52693195D01*
X-69089271Y52693191D01*
X-69089269Y52693188D01*
X-69024012Y52627931D01*
X-69024009Y52627930D01*
X-69024006Y52627927D01*
X-68944094Y52581789D01*
X-68944092Y52581788D01*
X-68944091Y52581788D01*
X-68944088Y52581786D01*
X-68854944Y52557900D01*
X-68854941Y52557900D01*
X-68852407Y52557221D01*
X-68792746Y52520856D01*
X-68762217Y52458010D01*
X-68760500Y52437446D01*
X-68760500Y52340248D01*
X-68748869Y52281771D01*
X-68748868Y52281770D01*
X-68709114Y52222275D01*
X-68688236Y52155598D01*
X-68704829Y52091384D01*
X-68719074Y52066712D01*
X-68719074Y52066711D01*
X-68719075Y52066709D01*
X-68719075Y52066708D01*
X-68742961Y51977564D01*
X-68742961Y51885276D01*
X-68732726Y51847077D01*
X-68719074Y51796130D01*
X-68719073Y51796127D01*
X-68672935Y51716215D01*
X-68672932Y51716211D01*
X-68672930Y51716208D01*
X-68607673Y51650951D01*
X-68607670Y51650950D01*
X-68607667Y51650947D01*
X-68527755Y51604809D01*
X-68527754Y51604809D01*
X-68527749Y51604806D01*
X-68438605Y51580920D01*
X-68438603Y51580920D01*
X-68346320Y51580920D01*
X-68346317Y51580920D01*
X-68308538Y51591043D01*
X-68238691Y51589380D01*
X-68180829Y51550218D01*
X-68153324Y51485990D01*
X-68163012Y51421183D01*
X-68197681Y51342665D01*
X-68197682Y51342662D01*
X-68200500Y51318375D01*
X-68200500Y50891635D01*
X-68200498Y50891612D01*
X-68197683Y50867341D01*
X-68197682Y50867338D01*
X-68153814Y50767985D01*
X-68153813Y50767984D01*
X-68077016Y50691187D01*
X-67977662Y50647318D01*
X-67953373Y50644500D01*
X-67586628Y50644501D01*
X-67562338Y50647318D01*
X-67496584Y50676352D01*
X-67427309Y50685423D01*
X-67364124Y50655600D01*
X-67327093Y50596351D01*
X-67322500Y50562917D01*
X-67322500Y49149500D01*
X-67342185Y49082461D01*
X-67394989Y49036706D01*
X-67446499Y49025500D01*
X-67643366Y49025500D01*
X-67643389Y49025498D01*
X-67667660Y49022683D01*
X-67667663Y49022682D01*
X-67767016Y48978814D01*
X-67843813Y48902017D01*
X-67887682Y48802665D01*
X-67887682Y48802663D01*
X-67890500Y48778375D01*
X-67890500Y48540123D01*
X-67910185Y48473084D01*
X-67926819Y48452442D01*
X-67973363Y48405899D01*
X-67973364Y48405898D01*
X-68011500Y48313830D01*
X-68011500Y46076171D01*
X-67973364Y45984103D01*
X-67696819Y45707558D01*
X-67663334Y45646235D01*
X-67660500Y45619877D01*
X-67660500Y44560180D01*
X-67660500Y44560178D01*
X-67660501Y44560178D01*
X-67651769Y44516283D01*
X-67651766Y44516276D01*
X-67618505Y44466497D01*
X-67618504Y44466496D01*
X-67568722Y44433233D01*
X-67568719Y44433233D01*
X-67568718Y44433232D01*
X-67524823Y44424500D01*
X-67524820Y44424500D01*
X-66095178Y44424500D01*
X-66051283Y44433232D01*
X-66051283Y44433233D01*
X-66051278Y44433233D01*
X-66001496Y44466496D01*
X-65968233Y44516278D01*
X-65965506Y44529985D01*
X-65959500Y44560178D01*
X-65959500Y45789823D01*
X-65968232Y45833718D01*
X-65968233Y45833719D01*
X-65968233Y45833722D01*
X-66001496Y45883504D01*
X-66007623Y45887598D01*
X-66051276Y45916766D01*
X-66051283Y45916769D01*
X-66095178Y45925500D01*
X-66095180Y45925500D01*
X-67154877Y45925500D01*
X-67221916Y45945185D01*
X-67242558Y45961819D01*
X-67474181Y46193442D01*
X-67507666Y46254765D01*
X-67510500Y46281123D01*
X-67510500Y47980501D01*
X-67490815Y48047540D01*
X-67438011Y48093295D01*
X-67386500Y48104501D01*
X-67276634Y48104501D01*
X-67276628Y48104501D01*
X-67252338Y48107318D01*
X-67152984Y48151187D01*
X-67076187Y48227984D01*
X-67032318Y48327338D01*
X-67029500Y48351627D01*
X-67029501Y48589877D01*
X-67020857Y48619317D01*
X-67014334Y48649303D01*
X-67010580Y48654318D01*
X-67009817Y48656916D01*
X-66993183Y48677557D01*
X-66947547Y48723194D01*
X-66947543Y48723197D01*
X-66930104Y48740636D01*
X-66930103Y48740636D01*
X-66859636Y48811103D01*
X-66821500Y48903172D01*
X-66821500Y50216040D01*
X-66801815Y50283079D01*
X-66749011Y50328834D01*
X-66679853Y50338778D01*
X-66616297Y50309753D01*
X-66609819Y50303721D01*
X-65999203Y49693105D01*
X-65999202Y49693103D01*
X-65928735Y49622636D01*
X-65891899Y49607378D01*
X-65836665Y49584499D01*
X-65836664Y49584499D01*
X-65722576Y49584499D01*
X-65722568Y49584500D01*
X-65448969Y49584500D01*
X-65381930Y49564815D01*
X-65336175Y49512011D01*
X-65335535Y49510587D01*
X-65324619Y49485864D01*
X-65324617Y49485862D01*
X-65324616Y49485859D01*
X-65249141Y49410384D01*
X-65249138Y49410383D01*
X-65249137Y49410382D01*
X-65151501Y49367271D01*
X-65151500Y49367271D01*
X-65151498Y49367270D01*
X-65127623Y49364500D01*
X-64772378Y49364501D01*
X-64748502Y49367270D01*
X-64650865Y49410381D01*
X-64650864Y49410382D01*
X-64650859Y49410384D01*
X-64575384Y49485859D01*
X-64553434Y49535570D01*
X-64508349Y49588946D01*
X-64441562Y49609474D01*
X-64374280Y49590636D01*
X-64339707Y49558404D01*
X-64331918Y49547691D01*
X-64304616Y49485859D01*
X-64239932Y49421175D01*
X-64234207Y49413301D01*
X-64225599Y49389200D01*
X-64213334Y49366739D01*
X-64211508Y49349750D01*
X-64210705Y49347503D01*
X-64211089Y49345853D01*
X-64210500Y49340381D01*
X-64210500Y49082890D01*
X-64230185Y49015851D01*
X-64264418Y48980593D01*
X-64267016Y48978814D01*
X-64343814Y48902015D01*
X-64387682Y48802665D01*
X-64387682Y48802663D01*
X-64390500Y48778375D01*
X-64390500Y48351635D01*
X-64390498Y48351612D01*
X-64387683Y48327341D01*
X-64387682Y48327338D01*
X-64343814Y48227985D01*
X-64343813Y48227984D01*
X-64267016Y48151187D01*
X-64267011Y48151185D01*
X-64264426Y48149414D01*
X-64260795Y48144966D01*
X-64258891Y48143062D01*
X-64259084Y48142870D01*
X-64220242Y48095289D01*
X-64210500Y48047112D01*
X-64210500Y47749500D01*
X-64230185Y47682461D01*
X-64282989Y47636706D01*
X-64334500Y47625500D01*
X-65324822Y47625500D01*
X-65368718Y47616769D01*
X-65368725Y47616766D01*
X-65418504Y47583505D01*
X-65418505Y47583504D01*
X-65451766Y47533725D01*
X-65451769Y47533718D01*
X-65460500Y47489823D01*
X-65460500Y47489820D01*
X-65460500Y46260180D01*
X-65460500Y46260178D01*
X-65460501Y46260178D01*
X-65451769Y46216283D01*
X-65451766Y46216276D01*
X-65418505Y46166497D01*
X-65418504Y46166496D01*
X-65368722Y46133233D01*
X-65368719Y46133233D01*
X-65368718Y46133232D01*
X-65324823Y46124500D01*
X-65324820Y46124500D01*
X-63895178Y46124500D01*
X-63851283Y46133232D01*
X-63851283Y46133233D01*
X-63851278Y46133233D01*
X-63801496Y46166496D01*
X-63768233Y46216278D01*
X-63760577Y46254765D01*
X-63759500Y46260178D01*
X-63759500Y47329797D01*
X-63750061Y47377250D01*
X-63747638Y47383102D01*
X-63747636Y47383103D01*
X-63709500Y47475172D01*
X-63709500Y48047112D01*
X-63689815Y48114151D01*
X-63655574Y48149414D01*
X-63652992Y48151184D01*
X-63652984Y48151187D01*
X-63576187Y48227984D01*
X-63532318Y48327338D01*
X-63529500Y48351627D01*
X-63529501Y48778372D01*
X-63532318Y48802662D01*
X-63576187Y48902016D01*
X-63652984Y48978813D01*
X-63652985Y48978814D01*
X-63655582Y48980593D01*
X-63659215Y48985044D01*
X-63660528Y48986357D01*
X-63666703Y48989177D01*
X-63681941Y49012888D01*
X-63699762Y49034722D01*
X-63701502Y49043325D01*
X-63704477Y49047955D01*
X-63709500Y49082890D01*
X-63709500Y49294863D01*
X-63689815Y49361902D01*
X-63637011Y49407657D01*
X-63635674Y49408259D01*
X-63630859Y49410384D01*
X-63555384Y49485859D01*
X-63512270Y49583502D01*
X-63509500Y49607377D01*
X-63509501Y49630506D01*
X-63489819Y49697543D01*
X-63437017Y49743299D01*
X-63367859Y49753246D01*
X-63304302Y49724223D01*
X-63297820Y49718188D01*
X-62802819Y49223187D01*
X-62769334Y49161864D01*
X-62766500Y49135506D01*
X-62766500Y46271171D01*
X-62728364Y46179103D01*
X-62325508Y45776247D01*
X-62292023Y45714924D01*
X-62297007Y45645232D01*
X-62325508Y45600885D01*
X-62343046Y45583348D01*
X-62343049Y45583343D01*
X-62343050Y45583342D01*
X-62362249Y45545663D01*
X-62400648Y45470302D01*
X-62415500Y45376525D01*
X-62415500Y44763483D01*
X-62404708Y44695343D01*
X-62400646Y44669696D01*
X-62343050Y44556658D01*
X-62343048Y44556656D01*
X-62343046Y44556653D01*
X-62253348Y44466955D01*
X-62253346Y44466954D01*
X-62253342Y44466950D01*
X-62140306Y44409355D01*
X-62140302Y44409353D01*
X-62046525Y44394501D01*
X-62046519Y44394500D01*
X-60483482Y44394501D01*
X-60389696Y44409354D01*
X-60276658Y44466950D01*
X-60186950Y44556658D01*
X-60129354Y44669696D01*
X-60129354Y44669698D01*
X-60129353Y44669699D01*
X-60114501Y44763476D01*
X-60114500Y44763481D01*
X-60114501Y45376518D01*
X-60129354Y45470304D01*
X-60186950Y45583342D01*
X-60186954Y45583346D01*
X-60186955Y45583348D01*
X-60204493Y45600886D01*
X-60237978Y45662209D01*
X-60232994Y45731901D01*
X-60204495Y45776246D01*
X-58995236Y46985503D01*
X-58957100Y47077572D01*
X-58957100Y47153456D01*
X-58937415Y47220495D01*
X-58884611Y47266250D01*
X-58815453Y47276194D01*
X-58751897Y47247169D01*
X-58741991Y47237569D01*
X-58702117Y47194373D01*
X-58677660Y47172899D01*
X-58532176Y47069980D01*
X-58503784Y47054067D01*
X-58340064Y46983686D01*
X-58308983Y46974032D01*
X-58134283Y46939287D01*
X-58134276Y46939287D01*
X-58134274Y46939286D01*
X-58103951Y46936300D01*
X-57244500Y46936300D01*
X-57177461Y46916615D01*
X-57131706Y46863811D01*
X-57120500Y46812300D01*
X-57120500Y46507700D01*
X-57140185Y46440661D01*
X-57192989Y46394906D01*
X-57244500Y46383700D01*
X-58103804Y46383700D01*
X-58130568Y46381379D01*
X-58130598Y46381375D01*
X-58307134Y46350512D01*
X-58307145Y46350509D01*
X-58339551Y46341128D01*
X-58339559Y46341125D01*
X-58505551Y46272792D01*
X-58505552Y46272792D01*
X-58535185Y46256633D01*
X-58682533Y46154101D01*
X-58682541Y46154094D01*
X-58707978Y46131933D01*
X-58707979Y46131932D01*
X-58829744Y46000019D01*
X-58829749Y46000012D01*
X-58849804Y45972889D01*
X-58940245Y45817816D01*
X-58940249Y45817809D01*
X-58953982Y45786997D01*
X-58953985Y45786990D01*
X-59008844Y45616056D01*
X-59008844Y45616055D01*
X-59015605Y45583017D01*
X-59015606Y45583012D01*
X-59032226Y45405052D01*
X-59032227Y45405041D01*
X-59032899Y45390625D01*
X-59032900Y45390581D01*
X-59032900Y45389244D01*
X-59031848Y45371192D01*
X-59011229Y45194809D01*
X-59011225Y45194786D01*
X-59004088Y45163043D01*
X-59004087Y45163041D01*
X-58947012Y44994235D01*
X-58947011Y44994234D01*
X-58947009Y44994229D01*
X-58947007Y44994224D01*
X-58933412Y44964652D01*
X-58842442Y44811413D01*
X-58822991Y44785320D01*
X-58702117Y44654373D01*
X-58677660Y44632899D01*
X-58532176Y44529980D01*
X-58503784Y44514067D01*
X-58340064Y44443686D01*
X-58308983Y44434032D01*
X-58134283Y44399287D01*
X-58134276Y44399287D01*
X-58134274Y44399286D01*
X-58103951Y44396300D01*
X-57244500Y44396300D01*
X-57177461Y44376615D01*
X-57131706Y44323811D01*
X-57120500Y44272300D01*
X-57120500Y43967700D01*
X-57140185Y43900661D01*
X-57192989Y43854906D01*
X-57244500Y43843700D01*
X-58103804Y43843700D01*
X-58130568Y43841379D01*
X-58130598Y43841375D01*
X-58307134Y43810512D01*
X-58307145Y43810509D01*
X-58339551Y43801128D01*
X-58339559Y43801125D01*
X-58505551Y43732792D01*
X-58505552Y43732792D01*
X-58535185Y43716633D01*
X-58682533Y43614101D01*
X-58682541Y43614094D01*
X-58707978Y43591933D01*
X-58707979Y43591932D01*
X-58829744Y43460019D01*
X-58829749Y43460012D01*
X-58849804Y43432889D01*
X-58940245Y43277816D01*
X-58940249Y43277809D01*
X-58953982Y43246997D01*
X-58953985Y43246990D01*
X-59008844Y43076056D01*
X-59008844Y43076055D01*
X-59015605Y43043017D01*
X-59015606Y43043012D01*
X-59032226Y42865052D01*
X-59032227Y42865041D01*
X-59032899Y42850625D01*
X-59032900Y42850581D01*
X-59032900Y42849244D01*
X-59031848Y42831192D01*
X-59011229Y42654809D01*
X-59011225Y42654786D01*
X-59004088Y42623043D01*
X-59004087Y42623041D01*
X-58947012Y42454235D01*
X-58947011Y42454234D01*
X-58947009Y42454229D01*
X-58947007Y42454224D01*
X-58933412Y42424652D01*
X-58842442Y42271413D01*
X-58822991Y42245320D01*
X-58822988Y42245317D01*
X-58702114Y42114370D01*
X-58683105Y42097680D01*
X-58645716Y42038656D01*
X-58646173Y41968788D01*
X-58684331Y41910258D01*
X-58748075Y41881649D01*
X-58764919Y41880500D01*
X-59512300Y41880500D01*
X-59579339Y41900185D01*
X-59625094Y41952989D01*
X-59636300Y42004500D01*
X-59636300Y42863951D01*
X-59639286Y42894274D01*
X-59639287Y42894276D01*
X-59639287Y42894283D01*
X-59674032Y43068983D01*
X-59683686Y43100064D01*
X-59754067Y43263784D01*
X-59769980Y43292176D01*
X-59872899Y43437660D01*
X-59877185Y43442541D01*
X-59894370Y43462114D01*
X-59900722Y43467978D01*
X-60025320Y43582991D01*
X-60051413Y43602442D01*
X-60204652Y43693412D01*
X-60234224Y43707007D01*
X-60234229Y43707009D01*
X-60234234Y43707011D01*
X-60234235Y43707012D01*
X-60403041Y43764087D01*
X-60403043Y43764088D01*
X-60434786Y43771225D01*
X-60434791Y43771226D01*
X-60434796Y43771227D01*
X-60434801Y43771228D01*
X-60434809Y43771229D01*
X-60611192Y43791848D01*
X-60629244Y43792900D01*
X-60629259Y43792900D01*
X-60630592Y43792900D01*
X-60630603Y43792900D01*
X-60630625Y43792899D01*
X-60645041Y43792227D01*
X-60645052Y43792226D01*
X-60823012Y43775606D01*
X-60823017Y43775605D01*
X-60856055Y43768844D01*
X-60856056Y43768844D01*
X-61026990Y43713985D01*
X-61026997Y43713982D01*
X-61057809Y43700249D01*
X-61057816Y43700245D01*
X-61212889Y43609804D01*
X-61240012Y43589749D01*
X-61240019Y43589744D01*
X-61371932Y43467979D01*
X-61371933Y43467978D01*
X-61394094Y43442541D01*
X-61394101Y43442533D01*
X-61496633Y43295185D01*
X-61512792Y43265552D01*
X-61512792Y43265551D01*
X-61581125Y43099559D01*
X-61581128Y43099551D01*
X-61590509Y43067145D01*
X-61590512Y43067134D01*
X-61621375Y42890598D01*
X-61621379Y42890568D01*
X-61623700Y42863805D01*
X-61623700Y42004500D01*
X-61643385Y41937461D01*
X-61696189Y41891706D01*
X-61747700Y41880500D01*
X-62052300Y41880500D01*
X-62119339Y41900185D01*
X-62165094Y41952989D01*
X-62176300Y42004500D01*
X-62176300Y42863951D01*
X-62179286Y42894274D01*
X-62179287Y42894276D01*
X-62179287Y42894283D01*
X-62214032Y43068983D01*
X-62223686Y43100064D01*
X-62294067Y43263784D01*
X-62309980Y43292176D01*
X-62412899Y43437660D01*
X-62417185Y43442541D01*
X-62434370Y43462114D01*
X-62440722Y43467978D01*
X-62565320Y43582991D01*
X-62591413Y43602442D01*
X-62744652Y43693412D01*
X-62774224Y43707007D01*
X-62774229Y43707009D01*
X-62774234Y43707011D01*
X-62774235Y43707012D01*
X-62943041Y43764087D01*
X-62943043Y43764088D01*
X-62974786Y43771225D01*
X-62974791Y43771226D01*
X-62974796Y43771227D01*
X-62974801Y43771228D01*
X-62974809Y43771229D01*
X-63151192Y43791848D01*
X-63169244Y43792900D01*
X-63169259Y43792900D01*
X-63170592Y43792900D01*
X-63170603Y43792900D01*
X-63170625Y43792899D01*
X-63185041Y43792227D01*
X-63185052Y43792226D01*
X-63363012Y43775606D01*
X-63363017Y43775605D01*
X-63396055Y43768844D01*
X-63396056Y43768844D01*
X-63566990Y43713985D01*
X-63566997Y43713982D01*
X-63597809Y43700249D01*
X-63597816Y43700245D01*
X-63752889Y43609804D01*
X-63780012Y43589749D01*
X-63780019Y43589744D01*
X-63911932Y43467979D01*
X-63911933Y43467978D01*
X-63934094Y43442541D01*
X-63934101Y43442533D01*
X-64036633Y43295185D01*
X-64052792Y43265552D01*
X-64052792Y43265551D01*
X-64121125Y43099559D01*
X-64121128Y43099551D01*
X-64130509Y43067145D01*
X-64130512Y43067134D01*
X-64161375Y42890598D01*
X-64161379Y42890568D01*
X-64163700Y42863805D01*
X-64163700Y42004500D01*
X-64183385Y41937461D01*
X-64236189Y41891706D01*
X-64287700Y41880500D01*
X-64592300Y41880500D01*
X-64659339Y41900185D01*
X-64705094Y41952989D01*
X-64716300Y42004500D01*
X-64716300Y42863951D01*
X-64719286Y42894274D01*
X-64719287Y42894276D01*
X-64719287Y42894283D01*
X-64754032Y43068983D01*
X-64763686Y43100064D01*
X-64834067Y43263784D01*
X-64849980Y43292176D01*
X-64952899Y43437660D01*
X-64957185Y43442541D01*
X-64974370Y43462114D01*
X-64980722Y43467978D01*
X-65105320Y43582991D01*
X-65131413Y43602442D01*
X-65284652Y43693412D01*
X-65314224Y43707007D01*
X-65314229Y43707009D01*
X-65314234Y43707011D01*
X-65314235Y43707012D01*
X-65483041Y43764087D01*
X-65483043Y43764088D01*
X-65514786Y43771225D01*
X-65514791Y43771226D01*
X-65514796Y43771227D01*
X-65514801Y43771228D01*
X-65514809Y43771229D01*
X-65691192Y43791848D01*
X-65709244Y43792900D01*
X-65709259Y43792900D01*
X-65710592Y43792900D01*
X-65710603Y43792900D01*
X-65710625Y43792899D01*
X-65725041Y43792227D01*
X-65725052Y43792226D01*
X-65903012Y43775606D01*
X-65903017Y43775605D01*
X-65936055Y43768844D01*
X-65936056Y43768844D01*
X-66106990Y43713985D01*
X-66106997Y43713982D01*
X-66137809Y43700249D01*
X-66137816Y43700245D01*
X-66292889Y43609804D01*
X-66320012Y43589749D01*
X-66320019Y43589744D01*
X-66451932Y43467979D01*
X-66451933Y43467978D01*
X-66474094Y43442541D01*
X-66474101Y43442533D01*
X-66576633Y43295185D01*
X-66592792Y43265552D01*
X-66592792Y43265551D01*
X-66661125Y43099559D01*
X-66661128Y43099551D01*
X-66670509Y43067145D01*
X-66670512Y43067134D01*
X-66701375Y42890598D01*
X-66701379Y42890568D01*
X-66703700Y42863805D01*
X-66703700Y42004500D01*
X-66723385Y41937461D01*
X-66776189Y41891706D01*
X-66827700Y41880500D01*
X-67132300Y41880500D01*
X-67199339Y41900185D01*
X-67245094Y41952989D01*
X-67256300Y42004500D01*
X-67256300Y42863951D01*
X-67259286Y42894274D01*
X-67259287Y42894276D01*
X-67259287Y42894283D01*
X-67294032Y43068983D01*
X-67303686Y43100064D01*
X-67374067Y43263784D01*
X-67389980Y43292176D01*
X-67492899Y43437660D01*
X-67497185Y43442541D01*
X-67514370Y43462114D01*
X-67520722Y43467978D01*
X-67645320Y43582991D01*
X-67671413Y43602442D01*
X-67824652Y43693412D01*
X-67854224Y43707007D01*
X-67854229Y43707009D01*
X-67854234Y43707011D01*
X-67854235Y43707012D01*
X-68023041Y43764087D01*
X-68023043Y43764088D01*
X-68054786Y43771225D01*
X-68054791Y43771226D01*
X-68054796Y43771227D01*
X-68054801Y43771228D01*
X-68054809Y43771229D01*
X-68231192Y43791848D01*
X-68249244Y43792900D01*
X-68249259Y43792900D01*
X-68250592Y43792900D01*
X-68250603Y43792900D01*
X-68250625Y43792899D01*
X-68265041Y43792227D01*
X-68265052Y43792226D01*
X-68443012Y43775606D01*
X-68443017Y43775605D01*
X-68476055Y43768844D01*
X-68476056Y43768844D01*
X-68646990Y43713985D01*
X-68646997Y43713982D01*
X-68677809Y43700249D01*
X-68677816Y43700245D01*
X-68832889Y43609804D01*
X-68860012Y43589749D01*
X-68860019Y43589744D01*
X-68991932Y43467979D01*
X-68991933Y43467978D01*
X-69014094Y43442541D01*
X-69014101Y43442533D01*
X-69116633Y43295185D01*
X-69132792Y43265552D01*
X-69132792Y43265551D01*
X-69201125Y43099559D01*
X-69201128Y43099551D01*
X-69210509Y43067145D01*
X-69210512Y43067134D01*
X-69241375Y42890598D01*
X-69241379Y42890568D01*
X-69243700Y42863805D01*
X-69243700Y42004500D01*
X-69263385Y41937461D01*
X-69316189Y41891706D01*
X-69367700Y41880500D01*
X-69672300Y41880500D01*
X-69739339Y41900185D01*
X-69785094Y41952989D01*
X-69796300Y42004500D01*
X-69796300Y42863951D01*
X-69799286Y42894274D01*
X-69799287Y42894276D01*
X-69799287Y42894283D01*
X-69834032Y43068983D01*
X-69843686Y43100064D01*
X-69914067Y43263784D01*
X-69929980Y43292176D01*
X-70032899Y43437660D01*
X-70037185Y43442541D01*
X-70054370Y43462114D01*
X-70060722Y43467978D01*
X-70185320Y43582991D01*
X-70211413Y43602442D01*
X-70364652Y43693412D01*
X-70394224Y43707007D01*
X-70394229Y43707009D01*
X-70394234Y43707011D01*
X-70394235Y43707012D01*
X-70563041Y43764087D01*
X-70563043Y43764088D01*
X-70594786Y43771225D01*
X-70594791Y43771226D01*
X-70594796Y43771227D01*
X-70594801Y43771228D01*
X-70594809Y43771229D01*
X-70771192Y43791848D01*
X-70789244Y43792900D01*
X-70789259Y43792900D01*
X-70790592Y43792900D01*
X-70790603Y43792900D01*
X-70790625Y43792899D01*
X-70805041Y43792227D01*
X-70805052Y43792226D01*
X-70983012Y43775606D01*
X-70983017Y43775605D01*
X-71016055Y43768844D01*
X-71016056Y43768844D01*
X-71186990Y43713985D01*
X-71186997Y43713982D01*
X-71217809Y43700249D01*
X-71217816Y43700245D01*
X-71372889Y43609804D01*
X-71400012Y43589749D01*
X-71400019Y43589744D01*
X-71531932Y43467979D01*
X-71531933Y43467978D01*
X-71554094Y43442541D01*
X-71554101Y43442533D01*
X-71656633Y43295185D01*
X-71672792Y43265552D01*
X-71672792Y43265551D01*
X-71741125Y43099559D01*
X-71741128Y43099551D01*
X-71750509Y43067145D01*
X-71750512Y43067134D01*
X-71781375Y42890598D01*
X-71781379Y42890568D01*
X-71783700Y42863805D01*
X-71783700Y42004500D01*
X-71803385Y41937461D01*
X-71856189Y41891706D01*
X-71907700Y41880500D01*
X-72655081Y41880500D01*
X-72722120Y41900185D01*
X-72767875Y41952989D01*
X-72777819Y42022147D01*
X-72748794Y42085703D01*
X-72736895Y42097680D01*
X-72717883Y42114373D01*
X-72597009Y42245320D01*
X-72577558Y42271413D01*
X-72486588Y42424652D01*
X-72472993Y42454224D01*
X-72415913Y42623043D01*
X-72408773Y42654796D01*
X-72398049Y42746535D01*
X-72388153Y42831192D01*
X-72387101Y42849244D01*
X-72387100Y42849259D01*
X-72387100Y42850592D01*
X-72387774Y42865051D01*
X-72404393Y43043001D01*
X-72411158Y43076061D01*
X-72466017Y43246993D01*
X-72479754Y43277814D01*
X-72570195Y43432887D01*
X-72590257Y43460019D01*
X-72712021Y43591931D01*
X-72712023Y43591933D01*
X-72737460Y43614094D01*
X-72737468Y43614101D01*
X-72884816Y43716633D01*
X-72884817Y43716634D01*
X-72884819Y43716635D01*
X-72914443Y43732789D01*
X-72914450Y43732792D01*
X-73080442Y43801125D01*
X-73080450Y43801128D01*
X-73112856Y43810509D01*
X-73112867Y43810512D01*
X-73289403Y43841375D01*
X-73289433Y43841379D01*
X-73316196Y43843700D01*
X-73316197Y43843700D01*
X-74175500Y43843700D01*
X-74242539Y43863385D01*
X-74288294Y43916189D01*
X-74299500Y43967700D01*
X-74299500Y44272300D01*
X-74279815Y44339339D01*
X-74227011Y44385094D01*
X-74175500Y44396300D01*
X-73316049Y44396300D01*
X-73285727Y44399286D01*
X-73285727Y44399287D01*
X-73285717Y44399287D01*
X-73111017Y44434032D01*
X-73079936Y44443686D01*
X-72916216Y44514067D01*
X-72887824Y44529980D01*
X-72742340Y44632899D01*
X-72717883Y44654373D01*
X-72597009Y44785320D01*
X-72577558Y44811413D01*
X-72486588Y44964652D01*
X-72472993Y44994224D01*
X-72415913Y45163043D01*
X-72408773Y45194796D01*
X-72398049Y45286535D01*
X-72388153Y45371192D01*
X-72387842Y45376518D01*
X-72387100Y45389259D01*
X-72387100Y45390592D01*
X-72387774Y45405051D01*
X-72404393Y45583001D01*
X-72411158Y45616061D01*
X-72466017Y45786993D01*
X-72479754Y45817814D01*
X-72570195Y45972887D01*
X-72590257Y46000019D01*
X-72712021Y46131931D01*
X-72713515Y46133233D01*
X-72737460Y46154094D01*
X-72737468Y46154101D01*
X-72884816Y46256633D01*
X-72884817Y46256634D01*
X-72884819Y46256635D01*
X-72914443Y46272789D01*
X-72914450Y46272792D01*
X-73080442Y46341125D01*
X-73080450Y46341128D01*
X-73112856Y46350509D01*
X-73112867Y46350512D01*
X-73289403Y46381375D01*
X-73289433Y46381379D01*
X-73316196Y46383700D01*
X-73316197Y46383700D01*
X-74175500Y46383700D01*
X-74242539Y46403385D01*
X-74288294Y46456189D01*
X-74299500Y46507700D01*
X-74299500Y46812300D01*
X-74279815Y46879339D01*
X-74227011Y46925094D01*
X-74175500Y46936300D01*
X-73316049Y46936300D01*
X-73285727Y46939286D01*
X-73285727Y46939287D01*
X-73285717Y46939287D01*
X-73111017Y46974032D01*
X-73079936Y46983686D01*
X-72916216Y47054067D01*
X-72887824Y47069980D01*
X-72742340Y47172899D01*
X-72717883Y47194373D01*
X-72597009Y47325320D01*
X-72577558Y47351413D01*
X-72486588Y47504652D01*
X-72472993Y47534224D01*
X-72415913Y47703043D01*
X-72408773Y47734796D01*
X-72398049Y47826535D01*
X-72388153Y47911192D01*
X-72387101Y47929244D01*
X-72387100Y47929259D01*
X-72387100Y47930592D01*
X-72387774Y47945051D01*
X-72404393Y48123001D01*
X-72411158Y48156061D01*
X-72466017Y48326993D01*
X-72479754Y48357814D01*
X-72570195Y48512887D01*
X-72590257Y48540019D01*
X-72712021Y48671931D01*
X-72712023Y48671933D01*
X-72737460Y48694094D01*
X-72737468Y48694101D01*
X-72884816Y48796633D01*
X-72884817Y48796634D01*
X-72884819Y48796635D01*
X-72914443Y48812789D01*
X-72914450Y48812792D01*
X-73080442Y48881125D01*
X-73080450Y48881128D01*
X-73112856Y48890509D01*
X-73112867Y48890512D01*
X-73289403Y48921375D01*
X-73289433Y48921379D01*
X-73316196Y48923700D01*
X-73316197Y48923700D01*
X-74175500Y48923700D01*
X-74242539Y48943385D01*
X-74288294Y48996189D01*
X-74299500Y49047700D01*
X-74299500Y49352300D01*
X-74279815Y49419339D01*
X-74227011Y49465094D01*
X-74175500Y49476300D01*
X-73316049Y49476300D01*
X-73285727Y49479286D01*
X-73285727Y49479287D01*
X-73285717Y49479287D01*
X-73111017Y49514032D01*
X-73079936Y49523686D01*
X-72916216Y49594067D01*
X-72887824Y49609980D01*
X-72742340Y49712899D01*
X-72717883Y49734373D01*
X-72597009Y49865320D01*
X-72577558Y49891413D01*
X-72486588Y50044652D01*
X-72472993Y50074224D01*
X-72472245Y50076434D01*
X-72415914Y50243041D01*
X-72415913Y50243043D01*
X-72412187Y50259614D01*
X-72408773Y50274796D01*
X-72395706Y50386583D01*
X-72388153Y50451192D01*
X-72387101Y50469244D01*
X-72387100Y50469259D01*
X-72387100Y50470592D01*
X-72387774Y50485051D01*
X-72404393Y50663001D01*
X-72406132Y50671497D01*
X-72410161Y50691188D01*
X-72411158Y50696061D01*
X-72466017Y50866993D01*
X-72479754Y50897814D01*
X-72570195Y51052887D01*
X-72590257Y51080019D01*
X-72712021Y51211931D01*
X-72737465Y51234098D01*
X-72737468Y51234101D01*
X-72884816Y51336633D01*
X-72884817Y51336634D01*
X-72884819Y51336635D01*
X-72914443Y51352789D01*
X-72914450Y51352792D01*
X-73080442Y51421125D01*
X-73080450Y51421128D01*
X-73112856Y51430509D01*
X-73112867Y51430512D01*
X-73289403Y51461375D01*
X-73289433Y51461379D01*
X-73316196Y51463700D01*
X-73316197Y51463700D01*
X-74175500Y51463700D01*
X-74242539Y51483385D01*
X-74288294Y51536189D01*
X-74299500Y51587700D01*
X-74299500Y51892300D01*
X-74279815Y51959339D01*
X-74227011Y52005094D01*
X-74175500Y52016300D01*
X-73316049Y52016300D01*
X-73285727Y52019286D01*
X-73285727Y52019287D01*
X-73285717Y52019287D01*
X-73111017Y52054032D01*
X-73079936Y52063686D01*
X-72916216Y52134067D01*
X-72887824Y52149980D01*
X-72742340Y52252899D01*
X-72717883Y52274373D01*
X-72597009Y52405320D01*
X-72577558Y52431413D01*
X-72486588Y52584652D01*
X-72472993Y52614224D01*
X-72415913Y52783043D01*
X-72408773Y52814796D01*
X-72392316Y52955584D01*
X-72388153Y52991192D01*
X-72387101Y53009244D01*
X-72387100Y53009259D01*
X-72387100Y53010592D01*
X-72387774Y53025051D01*
X-72404393Y53203001D01*
X-72407246Y53216941D01*
X-72411157Y53236055D01*
X-72411157Y53236056D01*
X-72411158Y53236061D01*
X-72466017Y53406993D01*
X-72479754Y53437814D01*
X-72570195Y53592887D01*
X-72590257Y53620019D01*
X-72712021Y53751931D01*
X-72715423Y53754895D01*
X-72737460Y53774094D01*
X-72737468Y53774101D01*
X-72884816Y53876633D01*
X-72884817Y53876634D01*
X-72884819Y53876635D01*
X-72914443Y53892789D01*
X-72937389Y53902235D01*
X-73080442Y53961125D01*
X-73080450Y53961128D01*
X-73112856Y53970509D01*
X-73112867Y53970512D01*
X-73289403Y54001375D01*
X-73289433Y54001379D01*
X-73316196Y54003700D01*
X-73316197Y54003700D01*
X-74175500Y54003700D01*
X-74242539Y54023385D01*
X-74288294Y54076189D01*
X-74299500Y54127700D01*
X-74299500Y54432300D01*
X-74279815Y54499339D01*
X-74227011Y54545094D01*
X-74175500Y54556300D01*
X-73316049Y54556300D01*
X-73285727Y54559286D01*
X-73285727Y54559287D01*
X-73285717Y54559287D01*
X-73111017Y54594032D01*
X-73079936Y54603686D01*
X-72916216Y54674067D01*
X-72887824Y54689980D01*
X-72742340Y54792899D01*
X-72717883Y54814373D01*
X-72653976Y54883606D01*
X-72594040Y54919516D01*
X-72562860Y54923500D01*
X-71097732Y54923500D01*
X-71030693Y54903815D01*
G37*
%TD.AperFunction*%
%TA.AperFunction,Conductor*%
G36*
X-59991084Y57092815D02*
G01*
X-59970442Y57076181D01*
X-59384368Y56490107D01*
X-59350883Y56428784D01*
X-59355867Y56359092D01*
X-59397739Y56303159D01*
X-59410044Y56295042D01*
X-59422806Y56287674D01*
X-59422815Y56287667D01*
X-59488067Y56222415D01*
X-59488074Y56222406D01*
X-59534212Y56142494D01*
X-59534213Y56142491D01*
X-59534214Y56142489D01*
X-59534214Y56142488D01*
X-59542785Y56110501D01*
X-59558100Y56053344D01*
X-59558100Y55961057D01*
X-59534213Y55871910D01*
X-59534212Y55871907D01*
X-59488073Y55791994D01*
X-59488071Y55791992D01*
X-59488069Y55791988D01*
X-59488067Y55791986D01*
X-59483726Y55786329D01*
X-59458530Y55721160D01*
X-59458100Y55710840D01*
X-59458100Y51387143D01*
X-59477785Y51320104D01*
X-59530589Y51274349D01*
X-59599747Y51264405D01*
X-59663303Y51293430D01*
X-59698384Y51348018D01*
X-59698502Y51347965D01*
X-59698836Y51348720D01*
X-59701077Y51352208D01*
X-59701750Y51354587D01*
X-59702271Y51356499D01*
X-59717694Y51391430D01*
X-59745381Y51454136D01*
X-59745383Y51454139D01*
X-59745384Y51454141D01*
X-59820859Y51529616D01*
X-59820862Y51529617D01*
X-59820864Y51529619D01*
X-59918500Y51572730D01*
X-59918499Y51572730D01*
X-59942377Y51575500D01*
X-60297616Y51575500D01*
X-60297639Y51575498D01*
X-60321496Y51572731D01*
X-60321499Y51572731D01*
X-60419136Y51529620D01*
X-60419144Y51529614D01*
X-60494614Y51454144D01*
X-60494619Y51454137D01*
X-60537730Y51356501D01*
X-60540500Y51332625D01*
X-60540500Y50877385D01*
X-60540498Y50877362D01*
X-60537732Y50853506D01*
X-60494861Y50756414D01*
X-60485790Y50687136D01*
X-60515614Y50623951D01*
X-60520615Y50618647D01*
X-60907443Y50231819D01*
X-60968766Y50198334D01*
X-60995124Y50195500D01*
X-62046518Y50195500D01*
X-62127481Y50182677D01*
X-62140304Y50180646D01*
X-62253342Y50123050D01*
X-62253343Y50123049D01*
X-62253348Y50123046D01*
X-62343046Y50033348D01*
X-62343049Y50033343D01*
X-62400648Y49920302D01*
X-62400648Y49920301D01*
X-62416006Y49823331D01*
X-62445935Y49760196D01*
X-62505247Y49723265D01*
X-62575110Y49724263D01*
X-62626160Y49755048D01*
X-62975187Y50104075D01*
X-63528075Y50656964D01*
X-63563161Y50671497D01*
X-63620143Y50695100D01*
X-63620144Y50695100D01*
X-63701315Y50695100D01*
X-63730756Y50703745D01*
X-63760742Y50710268D01*
X-63765758Y50714023D01*
X-63768354Y50714785D01*
X-63788996Y50731419D01*
X-63894181Y50836604D01*
X-63927666Y50897927D01*
X-63930500Y50924285D01*
X-63930500Y52003762D01*
X-63932760Y52015122D01*
X-63926534Y52084714D01*
X-63883672Y52139892D01*
X-63817783Y52163138D01*
X-63786949Y52160933D01*
X-63779748Y52159500D01*
X-63640250Y52159500D01*
X-63640249Y52159501D01*
X-63625432Y52162448D01*
X-63581771Y52171132D01*
X-63581769Y52171133D01*
X-63578892Y52173055D01*
X-63571665Y52175319D01*
X-63570487Y52175806D01*
X-63570444Y52175701D01*
X-63512215Y52193934D01*
X-63444835Y52175450D01*
X-63441108Y52173055D01*
X-63438232Y52171133D01*
X-63438230Y52171132D01*
X-63379753Y52159501D01*
X-63379750Y52159500D01*
X-63379748Y52159500D01*
X-63240250Y52159500D01*
X-63240249Y52159501D01*
X-63225432Y52162448D01*
X-63181771Y52171132D01*
X-63181769Y52171133D01*
X-63178892Y52173055D01*
X-63171665Y52175319D01*
X-63170487Y52175806D01*
X-63170444Y52175701D01*
X-63112215Y52193934D01*
X-63060050Y52183448D01*
X-63050123Y52179079D01*
X-63038231Y52171133D01*
X-63026987Y52168897D01*
X-63014550Y52163423D01*
X-62997807Y52149315D01*
X-62978401Y52139165D01*
X-62971611Y52127242D01*
X-62961120Y52118402D01*
X-62954662Y52097481D01*
X-62943825Y52078451D01*
X-62940814Y52052616D01*
X-62940512Y52051640D01*
X-62940645Y52051166D01*
X-62940500Y52049929D01*
X-62940500Y51622890D01*
X-62960185Y51555851D01*
X-62994418Y51520593D01*
X-62997016Y51518814D01*
X-63073814Y51442015D01*
X-63117682Y51342665D01*
X-63117682Y51342663D01*
X-63120500Y51318375D01*
X-63120500Y50891635D01*
X-63120498Y50891612D01*
X-63117683Y50867341D01*
X-63117682Y50867338D01*
X-63073814Y50767985D01*
X-63073813Y50767984D01*
X-62997016Y50691187D01*
X-62897662Y50647318D01*
X-62873373Y50644500D01*
X-62506628Y50644501D01*
X-62482338Y50647318D01*
X-62382984Y50691187D01*
X-62306187Y50767984D01*
X-62262318Y50867338D01*
X-62259500Y50891627D01*
X-62259501Y51318372D01*
X-62262318Y51342662D01*
X-62306187Y51442016D01*
X-62382984Y51518813D01*
X-62382985Y51518814D01*
X-62385582Y51520593D01*
X-62389215Y51525044D01*
X-62391109Y51526938D01*
X-62390918Y51527130D01*
X-62429762Y51574722D01*
X-62439500Y51622890D01*
X-62439500Y52577327D01*
X-62439501Y52577330D01*
X-62441347Y52581786D01*
X-62477636Y52669397D01*
X-62548103Y52739864D01*
X-62623181Y52814942D01*
X-62637885Y52841870D01*
X-62654477Y52867688D01*
X-62655369Y52873889D01*
X-62656666Y52876265D01*
X-62659500Y52902623D01*
X-62659500Y53010500D01*
X-62639815Y53077539D01*
X-62587011Y53123294D01*
X-62535500Y53134500D01*
X-62322328Y53134500D01*
X-62051935Y53134500D01*
X-61984896Y53114815D01*
X-61964254Y53098182D01*
X-61900899Y53034828D01*
X-61881197Y53009152D01*
X-61850269Y52955585D01*
X-61785012Y52890328D01*
X-61785009Y52890326D01*
X-61785006Y52890324D01*
X-61705094Y52844186D01*
X-61705093Y52844186D01*
X-61705088Y52844183D01*
X-61615944Y52820297D01*
X-61615942Y52820297D01*
X-61523658Y52820297D01*
X-61523656Y52820297D01*
X-61434512Y52844183D01*
X-61354588Y52890328D01*
X-61289331Y52955585D01*
X-61243186Y53035509D01*
X-61219300Y53124653D01*
X-61219300Y53216941D01*
X-61243186Y53306085D01*
X-61244627Y53308580D01*
X-61280837Y53371298D01*
X-61297311Y53439198D01*
X-61280838Y53495299D01*
X-61243186Y53560512D01*
X-61219300Y53649656D01*
X-61219300Y53694109D01*
X-61199615Y53761148D01*
X-61146811Y53806903D01*
X-61077653Y53816847D01*
X-61014097Y53787822D01*
X-61007619Y53781790D01*
X-60967016Y53741187D01*
X-60867662Y53697318D01*
X-60843373Y53694500D01*
X-60416628Y53694501D01*
X-60392338Y53697318D01*
X-60292984Y53741187D01*
X-60216187Y53817984D01*
X-60172318Y53917338D01*
X-60169500Y53941627D01*
X-60169501Y54308372D01*
X-60172318Y54332662D01*
X-60216187Y54432016D01*
X-60292984Y54508813D01*
X-60305587Y54514378D01*
X-60358963Y54559464D01*
X-60379490Y54626250D01*
X-60379500Y54627812D01*
X-60379500Y55223827D01*
X-60379501Y55223830D01*
X-60384335Y55235501D01*
X-60417636Y55315897D01*
X-60488103Y55386364D01*
X-60580171Y55424500D01*
X-60580172Y55424500D01*
X-60810715Y55424500D01*
X-60840156Y55433145D01*
X-60870142Y55439668D01*
X-60875158Y55443423D01*
X-60877754Y55444185D01*
X-60898396Y55460819D01*
X-60904181Y55466604D01*
X-60937666Y55527927D01*
X-60940500Y55554285D01*
X-60940500Y56110501D01*
X-60920815Y56177540D01*
X-60868011Y56223295D01*
X-60816505Y56234501D01*
X-60416628Y56234501D01*
X-60392338Y56237318D01*
X-60292984Y56281187D01*
X-60216187Y56357984D01*
X-60172318Y56457338D01*
X-60169500Y56481627D01*
X-60169501Y56848372D01*
X-60172318Y56872662D01*
X-60201350Y56938414D01*
X-60205789Y56972312D01*
X-60210654Y57006147D01*
X-60210317Y57006887D01*
X-60210422Y57007692D01*
X-60195838Y57038591D01*
X-60181629Y57069703D01*
X-60180945Y57070143D01*
X-60180598Y57070877D01*
X-60151621Y57088988D01*
X-60122851Y57107477D01*
X-60121796Y57107629D01*
X-60121349Y57107908D01*
X-60087916Y57112500D01*
X-60058123Y57112500D01*
X-59991084Y57092815D01*
G37*
%TD.AperFunction*%
%TA.AperFunction,Conductor*%
G36*
X-65076401Y51556424D02*
G01*
X-65026475Y51525994D01*
X-65025270Y51524789D01*
X-65025269Y51524788D01*
X-64960012Y51459531D01*
X-64960009Y51459529D01*
X-64960006Y51459527D01*
X-64880094Y51413389D01*
X-64880093Y51413389D01*
X-64880088Y51413386D01*
X-64790944Y51389500D01*
X-64790942Y51389500D01*
X-64698658Y51389500D01*
X-64698656Y51389500D01*
X-64609512Y51413386D01*
X-64609502Y51413392D01*
X-64602952Y51416104D01*
X-64533482Y51423572D01*
X-64471003Y51392296D01*
X-64435351Y51332207D01*
X-64431500Y51301542D01*
X-64431500Y50719333D01*
X-64393364Y50627265D01*
X-64214005Y50447906D01*
X-64180520Y50386583D01*
X-64185504Y50316891D01*
X-64204252Y50283526D01*
X-64219842Y50263723D01*
X-64229141Y50259616D01*
X-64304616Y50184141D01*
X-64332886Y50120117D01*
X-64342567Y50107818D01*
X-64358803Y50096269D01*
X-64371655Y50081053D01*
X-64386686Y50076434D01*
X-64399501Y50067317D01*
X-64419402Y50066379D01*
X-64438441Y50060527D01*
X-64453584Y50064767D01*
X-64469293Y50064026D01*
X-64486541Y50073995D01*
X-64505723Y50079366D01*
X-64516170Y50091121D01*
X-64529785Y50098990D01*
X-64538906Y50116702D01*
X-64552138Y50131591D01*
X-64553410Y50134376D01*
X-64575384Y50184141D01*
X-64650859Y50259616D01*
X-64650862Y50259617D01*
X-64650864Y50259619D01*
X-64748500Y50302730D01*
X-64748499Y50302730D01*
X-64772377Y50305500D01*
X-65127616Y50305500D01*
X-65127639Y50305498D01*
X-65151496Y50302731D01*
X-65151499Y50302731D01*
X-65249136Y50259620D01*
X-65249144Y50259614D01*
X-65324614Y50184144D01*
X-65324619Y50184137D01*
X-65335535Y50159413D01*
X-65347532Y50145211D01*
X-65355256Y50128297D01*
X-65369613Y50119071D01*
X-65380622Y50106037D01*
X-65398393Y50100576D01*
X-65414034Y50090523D01*
X-65446098Y50085913D01*
X-65447408Y50085510D01*
X-65448969Y50085500D01*
X-65631716Y50085500D01*
X-65698755Y50105185D01*
X-65719397Y50121819D01*
X-66037543Y50439966D01*
X-66071028Y50501289D01*
X-66066044Y50570981D01*
X-66024172Y50626914D01*
X-65990733Y50643237D01*
X-65990871Y50643550D01*
X-65982692Y50647162D01*
X-65982408Y50647300D01*
X-65982350Y50647317D01*
X-65982338Y50647318D01*
X-65882984Y50691187D01*
X-65806187Y50767984D01*
X-65762318Y50867338D01*
X-65759500Y50891627D01*
X-65759501Y51129878D01*
X-65750855Y51159326D01*
X-65744333Y51189304D01*
X-65740581Y51194318D01*
X-65739817Y51196917D01*
X-65723191Y51217550D01*
X-65585544Y51355198D01*
X-65585540Y51355200D01*
X-65568104Y51372636D01*
X-65568103Y51372636D01*
X-65497636Y51443103D01*
X-65482567Y51479484D01*
X-65438729Y51533886D01*
X-65372435Y51555953D01*
X-65335917Y51551807D01*
X-65298944Y51541900D01*
X-65298942Y51541900D01*
X-65206660Y51541900D01*
X-65206656Y51541900D01*
X-65146246Y51558087D01*
X-65076401Y51556424D01*
G37*
%TD.AperFunction*%
%TA.AperFunction,Conductor*%
G36*
X-71041843Y53839108D02*
G01*
X-71041663Y53839767D01*
X-71032667Y53837320D01*
X-71032662Y53837318D01*
X-71008373Y53834500D01*
X-70581628Y53834501D01*
X-70575795Y53835178D01*
X-70506935Y53823354D01*
X-70455397Y53776178D01*
X-70437500Y53712005D01*
X-70437500Y52527061D01*
X-70441725Y52494969D01*
X-70454700Y52446546D01*
X-70454700Y52446544D01*
X-70454700Y52354256D01*
X-70433295Y52274370D01*
X-70430813Y52265110D01*
X-70430812Y52265107D01*
X-70384674Y52185195D01*
X-70384671Y52185191D01*
X-70384669Y52185188D01*
X-70319412Y52119931D01*
X-70319409Y52119930D01*
X-70319406Y52119927D01*
X-70239494Y52073789D01*
X-70239493Y52073789D01*
X-70239488Y52073786D01*
X-70150344Y52049900D01*
X-70150342Y52049900D01*
X-70058058Y52049900D01*
X-70058056Y52049900D01*
X-70002792Y52064708D01*
X-69932944Y52063045D01*
X-69875081Y52023882D01*
X-69847577Y51959654D01*
X-69846700Y51944933D01*
X-69846700Y51660681D01*
X-69866385Y51593642D01*
X-69919189Y51547887D01*
X-69988347Y51537943D01*
X-70020786Y51547247D01*
X-70078497Y51572729D01*
X-70078499Y51572730D01*
X-70102377Y51575500D01*
X-70457616Y51575500D01*
X-70457639Y51575498D01*
X-70481496Y51572731D01*
X-70481499Y51572731D01*
X-70579136Y51529620D01*
X-70579144Y51529614D01*
X-70654614Y51454144D01*
X-70654620Y51454134D01*
X-70676568Y51404429D01*
X-70721655Y51351053D01*
X-70788441Y51330527D01*
X-70855723Y51349366D01*
X-70902138Y51401591D01*
X-70903410Y51404376D01*
X-70925384Y51454141D01*
X-71000859Y51529616D01*
X-71000862Y51529617D01*
X-71000864Y51529619D01*
X-71098500Y51572730D01*
X-71107499Y51575178D01*
X-71106648Y51578310D01*
X-71155933Y51599219D01*
X-71195290Y51656949D01*
X-71201306Y51695103D01*
X-71201306Y53721481D01*
X-71181621Y53788520D01*
X-71128817Y53834275D01*
X-71059659Y53844219D01*
X-71041843Y53839108D01*
G37*
%TD.AperFunction*%
%TA.AperFunction,Conductor*%
G36*
X-64079501Y57865815D02*
G01*
X-64058859Y57849181D01*
X-64056546Y57846868D01*
X-64056535Y57846855D01*
X-64045823Y57836144D01*
X-64012335Y57774823D01*
X-64009500Y57748459D01*
X-64009500Y54621541D01*
X-64018145Y54592101D01*
X-64024668Y54562114D01*
X-64028423Y54557099D01*
X-64029185Y54554502D01*
X-64045816Y54533864D01*
X-64045819Y54533860D01*
X-64058860Y54520819D01*
X-64120183Y54487334D01*
X-64146541Y54484500D01*
X-67273459Y54484500D01*
X-67340498Y54504185D01*
X-67361144Y54520822D01*
X-67374185Y54533864D01*
X-67407667Y54595189D01*
X-67410500Y54621542D01*
X-67410500Y57748460D01*
X-67401856Y57777901D01*
X-67395332Y57807887D01*
X-67391578Y57812903D01*
X-67390815Y57815499D01*
X-67374181Y57836141D01*
X-67361141Y57849181D01*
X-67299818Y57882666D01*
X-67273460Y57885500D01*
X-65551828Y57885500D01*
X-64515228Y57885500D01*
X-64439028Y57885500D01*
X-64337428Y57885500D01*
X-64146540Y57885500D01*
X-64079501Y57865815D01*
G37*
%TD.AperFunction*%
%TA.AperFunction,Conductor*%
G36*
X-72785730Y57191259D02*
G01*
X-72781330Y57187069D01*
X-72675364Y57081103D01*
X-72604897Y57010636D01*
X-72512828Y56972500D01*
X-71374500Y56972500D01*
X-71307461Y56952815D01*
X-71261706Y56900011D01*
X-71250500Y56848500D01*
X-71250500Y56481635D01*
X-71250498Y56481612D01*
X-71247683Y56457341D01*
X-71247682Y56457338D01*
X-71203814Y56357985D01*
X-71203813Y56357984D01*
X-71127016Y56281187D01*
X-71027662Y56237318D01*
X-71003373Y56234500D01*
X-70576628Y56234501D01*
X-70552338Y56237318D01*
X-70452984Y56281187D01*
X-70421178Y56312993D01*
X-70359855Y56346478D01*
X-70290163Y56341494D01*
X-70234230Y56299622D01*
X-70209813Y56234158D01*
X-70209497Y56225312D01*
X-70209497Y55824288D01*
X-70229182Y55757249D01*
X-70245816Y55736607D01*
X-70521604Y55460819D01*
X-70582927Y55427334D01*
X-70609285Y55424500D01*
X-72263100Y55424500D01*
X-72330139Y55444185D01*
X-72375894Y55496989D01*
X-72387100Y55548500D01*
X-72387100Y55550581D01*
X-72387102Y55550625D01*
X-72387774Y55565051D01*
X-72404393Y55743001D01*
X-72407309Y55757249D01*
X-72408494Y55763043D01*
X-72411158Y55776061D01*
X-72466017Y55946993D01*
X-72479754Y55977814D01*
X-72570195Y56132887D01*
X-72590257Y56160019D01*
X-72712021Y56291931D01*
X-72724909Y56303159D01*
X-72737460Y56314094D01*
X-72737468Y56314101D01*
X-72884816Y56416633D01*
X-72884817Y56416634D01*
X-72884819Y56416635D01*
X-72914443Y56432789D01*
X-72914924Y56432987D01*
X-73080442Y56501125D01*
X-73080450Y56501128D01*
X-73112856Y56510509D01*
X-73112867Y56510512D01*
X-73289403Y56541375D01*
X-73289433Y56541379D01*
X-73316196Y56543700D01*
X-73316197Y56543700D01*
X-74175500Y56543700D01*
X-74242539Y56563385D01*
X-74288294Y56616189D01*
X-74299500Y56667700D01*
X-74299500Y56972300D01*
X-74279815Y57039339D01*
X-74227011Y57085094D01*
X-74175500Y57096300D01*
X-73316049Y57096300D01*
X-73285727Y57099286D01*
X-73285727Y57099287D01*
X-73285717Y57099287D01*
X-73111017Y57134032D01*
X-73079936Y57143686D01*
X-73079929Y57143690D01*
X-73079926Y57143690D01*
X-72917984Y57213307D01*
X-72848620Y57221700D01*
X-72785730Y57191259D01*
G37*
%TD.AperFunction*%
%TA.AperFunction,Conductor*%
G36*
X-72785730Y72431259D02*
G01*
X-72781330Y72427069D01*
X-72424764Y72070503D01*
X-72354297Y72000036D01*
X-72262228Y71961900D01*
X-69527523Y71961900D01*
X-69460484Y71942215D01*
X-69439842Y71925581D01*
X-68200796Y70686535D01*
X-66976441Y69462181D01*
X-66968926Y69448417D01*
X-66957450Y69437723D01*
X-66952523Y69418377D01*
X-66942956Y69400858D01*
X-66944075Y69385215D01*
X-66940203Y69370015D01*
X-66946517Y69351078D01*
X-66947940Y69331166D01*
X-66957341Y69318610D01*
X-66962300Y69303731D01*
X-66977850Y69291213D01*
X-66989812Y69275233D01*
X-67005227Y69269173D01*
X-67016724Y69259916D01*
X-67041069Y69255080D01*
X-67050926Y69251204D01*
X-67057504Y69250500D01*
X-67124820Y69250500D01*
X-67168722Y69241767D01*
X-67174373Y69237992D01*
X-67196804Y69235591D01*
X-67214328Y69238762D01*
X-67232033Y69236860D01*
X-67243428Y69240206D01*
X-67295178Y69250500D01*
X-67295180Y69250500D01*
X-67624820Y69250500D01*
X-67624822Y69250500D01*
X-67668718Y69241769D01*
X-67680002Y69237094D01*
X-67680761Y69238925D01*
X-67732791Y69222635D01*
X-67789538Y69238205D01*
X-67789998Y69237094D01*
X-67798841Y69240757D01*
X-67800171Y69241122D01*
X-67800987Y69241646D01*
X-67801283Y69241769D01*
X-67845178Y69250500D01*
X-67845180Y69250500D01*
X-68040836Y69250500D01*
X-68107875Y69270185D01*
X-68153630Y69322989D01*
X-68163574Y69392147D01*
X-68148223Y69436500D01*
X-68136978Y69455977D01*
X-68110312Y69502164D01*
X-68074500Y69635817D01*
X-68074500Y69774183D01*
X-68110312Y69907836D01*
X-68179495Y70027665D01*
X-68277335Y70125505D01*
X-68277336Y70125506D01*
X-68277339Y70125508D01*
X-68397162Y70194687D01*
X-68397163Y70194688D01*
X-68397164Y70194688D01*
X-68530817Y70230500D01*
X-68669183Y70230500D01*
X-68802836Y70194688D01*
X-68802839Y70194687D01*
X-68922662Y70125508D01*
X-68922667Y70125504D01*
X-69020504Y70027667D01*
X-69020508Y70027662D01*
X-69089687Y69907839D01*
X-69089688Y69907836D01*
X-69125500Y69774183D01*
X-69125500Y69635817D01*
X-69116110Y69600775D01*
X-69089688Y69502165D01*
X-69089687Y69502162D01*
X-69020508Y69382339D01*
X-69020506Y69382336D01*
X-69020505Y69382335D01*
X-68922665Y69284495D01*
X-68922664Y69284494D01*
X-68922662Y69284493D01*
X-68880093Y69259916D01*
X-68802836Y69215312D01*
X-68702405Y69188402D01*
X-68642746Y69152038D01*
X-68612217Y69089191D01*
X-68610500Y69068628D01*
X-68610500Y68628039D01*
X-68614725Y68595946D01*
X-68634500Y68522144D01*
X-68634500Y67818465D01*
X-68635560Y67802283D01*
X-68636500Y67795142D01*
X-68636500Y65689091D01*
X-68650979Y65639783D01*
X-68647565Y65638275D01*
X-68697585Y65524994D01*
X-68697585Y65524992D01*
X-68700500Y65499869D01*
X-68700500Y65317000D01*
X-68720185Y65249961D01*
X-68772989Y65204206D01*
X-68824500Y65193000D01*
X-70182330Y65193000D01*
X-70274398Y65154864D01*
X-70274399Y65154863D01*
X-70677444Y64751819D01*
X-70738767Y64718334D01*
X-70765124Y64715500D01*
X-71003366Y64715500D01*
X-71003389Y64715498D01*
X-71027660Y64712683D01*
X-71027663Y64712682D01*
X-71127016Y64668814D01*
X-71203813Y64592017D01*
X-71247682Y64492665D01*
X-71247682Y64492663D01*
X-71250500Y64468375D01*
X-71250500Y64101635D01*
X-71250498Y64101612D01*
X-71247683Y64077341D01*
X-71247682Y64077338D01*
X-71203814Y63977985D01*
X-71203813Y63977984D01*
X-71127016Y63901187D01*
X-71027662Y63857318D01*
X-71003373Y63854500D01*
X-70576628Y63854501D01*
X-70552338Y63857318D01*
X-70452984Y63901187D01*
X-70376187Y63977984D01*
X-70332318Y64077338D01*
X-70329500Y64101627D01*
X-70329501Y64339878D01*
X-70309817Y64406917D01*
X-70293191Y64427550D01*
X-70065057Y64655684D01*
X-70003735Y64689166D01*
X-69977377Y64692000D01*
X-68824499Y64692000D01*
X-68757460Y64672315D01*
X-68711705Y64619511D01*
X-68700499Y64568000D01*
X-68700499Y64385144D01*
X-68700498Y64385118D01*
X-68697587Y64360013D01*
X-68697585Y64360009D01*
X-68652207Y64257236D01*
X-68652206Y64257235D01*
X-68572765Y64177794D01*
X-68469991Y64132415D01*
X-68444865Y64129500D01*
X-68055136Y64129501D01*
X-68055121Y64129503D01*
X-68055118Y64129503D01*
X-68030013Y64132414D01*
X-68030012Y64132415D01*
X-68030009Y64132415D01*
X-67927235Y64177794D01*
X-67847794Y64257235D01*
X-67802415Y64360009D01*
X-67799500Y64385135D01*
X-67799500Y64468000D01*
X-67779815Y64535039D01*
X-67727011Y64580794D01*
X-67675500Y64592000D01*
X-64905376Y64592000D01*
X-64838337Y64572315D01*
X-64792582Y64519511D01*
X-64782638Y64450353D01*
X-64811663Y64386797D01*
X-64836485Y64364898D01*
X-64868505Y64343504D01*
X-64901766Y64293725D01*
X-64901769Y64293718D01*
X-64910500Y64249823D01*
X-64910500Y64171346D01*
X-64930185Y64104307D01*
X-64982989Y64058552D01*
X-65052147Y64048608D01*
X-65096500Y64063959D01*
X-65155111Y64097798D01*
X-65155110Y64097798D01*
X-65169344Y64101612D01*
X-65269691Y64128500D01*
X-65388309Y64128500D01*
X-65502886Y64097799D01*
X-65502888Y64097799D01*
X-65502888Y64097798D01*
X-65605613Y64038489D01*
X-65605616Y64038487D01*
X-65689487Y63954616D01*
X-65689489Y63954613D01*
X-65748799Y63851886D01*
X-65769698Y63773890D01*
X-65776071Y63750105D01*
X-65808165Y63694518D01*
X-66448363Y63054319D01*
X-66475291Y63039616D01*
X-66501109Y63023023D01*
X-66507310Y63022132D01*
X-66509686Y63020834D01*
X-66536044Y63018000D01*
X-66725501Y63018000D01*
X-66792540Y63037685D01*
X-66838295Y63090489D01*
X-66849501Y63142000D01*
X-66849501Y63224857D01*
X-66849501Y63224864D01*
X-66849627Y63225952D01*
X-66852414Y63249988D01*
X-66852415Y63249990D01*
X-66852415Y63249991D01*
X-66897794Y63352765D01*
X-66977235Y63432206D01*
X-66977237Y63432207D01*
X-67080008Y63477585D01*
X-67105135Y63480500D01*
X-67494857Y63480500D01*
X-67494883Y63480498D01*
X-67519988Y63477587D01*
X-67519992Y63477585D01*
X-67622765Y63432207D01*
X-67702206Y63352766D01*
X-67747585Y63249994D01*
X-67747585Y63249992D01*
X-67750500Y63224869D01*
X-67750500Y62110144D01*
X-67750498Y62110118D01*
X-67747587Y62085013D01*
X-67747585Y62085009D01*
X-67702207Y61982236D01*
X-67702206Y61982235D01*
X-67622765Y61902794D01*
X-67519991Y61857415D01*
X-67494865Y61854500D01*
X-67105136Y61854501D01*
X-67105121Y61854503D01*
X-67105118Y61854503D01*
X-67080013Y61857414D01*
X-67080012Y61857415D01*
X-67080009Y61857415D01*
X-66977235Y61902794D01*
X-66897794Y61982235D01*
X-66852415Y62085009D01*
X-66849500Y62110135D01*
X-66849500Y62193000D01*
X-66846950Y62201686D01*
X-66848238Y62210647D01*
X-66837260Y62234688D01*
X-66829815Y62260039D01*
X-66822975Y62265967D01*
X-66819213Y62274203D01*
X-66796979Y62288493D01*
X-66777011Y62305794D01*
X-66766497Y62308082D01*
X-66760435Y62311977D01*
X-66725500Y62317000D01*
X-66519045Y62317000D01*
X-66452006Y62297315D01*
X-66431364Y62280681D01*
X-65696819Y61546136D01*
X-65663334Y61484813D01*
X-65660500Y61458455D01*
X-65660500Y61051635D01*
X-65660498Y61051612D01*
X-65657684Y61027342D01*
X-65615156Y60931026D01*
X-65606085Y60861747D01*
X-65635909Y60798563D01*
X-65640910Y60793259D01*
X-66220768Y60213402D01*
X-66239528Y60198001D01*
X-66241079Y60196964D01*
X-66307751Y60176066D01*
X-66375136Y60194532D01*
X-66378892Y60196945D01*
X-66381769Y60198868D01*
X-66381771Y60198869D01*
X-66440248Y60210500D01*
X-66440252Y60210500D01*
X-66579748Y60210500D01*
X-66579753Y60210500D01*
X-66638230Y60198869D01*
X-66638232Y60198868D01*
X-66641113Y60196942D01*
X-66648345Y60194678D01*
X-66649513Y60194194D01*
X-66649557Y60194299D01*
X-66707791Y60176067D01*
X-66775171Y60194554D01*
X-66778887Y60196942D01*
X-66781769Y60198868D01*
X-66781771Y60198869D01*
X-66840248Y60210500D01*
X-66840252Y60210500D01*
X-66979748Y60210500D01*
X-66979753Y60210500D01*
X-67038230Y60198869D01*
X-67038232Y60198868D01*
X-67041113Y60196942D01*
X-67048345Y60194678D01*
X-67049513Y60194194D01*
X-67049557Y60194299D01*
X-67107791Y60176067D01*
X-67175171Y60194554D01*
X-67178887Y60196942D01*
X-67181769Y60198868D01*
X-67181771Y60198869D01*
X-67240248Y60210500D01*
X-67240252Y60210500D01*
X-67379748Y60210500D01*
X-67379753Y60210500D01*
X-67438230Y60198869D01*
X-67438232Y60198868D01*
X-67441113Y60196942D01*
X-67448345Y60194678D01*
X-67449513Y60194194D01*
X-67449557Y60194299D01*
X-67507791Y60176067D01*
X-67575171Y60194554D01*
X-67578887Y60196942D01*
X-67581769Y60198868D01*
X-67581771Y60198869D01*
X-67640248Y60210500D01*
X-67640252Y60210500D01*
X-67779748Y60210500D01*
X-67779753Y60210500D01*
X-67838230Y60198869D01*
X-67838232Y60198868D01*
X-67841113Y60196942D01*
X-67848345Y60194678D01*
X-67849513Y60194194D01*
X-67849557Y60194299D01*
X-67907791Y60176067D01*
X-67975171Y60194554D01*
X-67978887Y60196942D01*
X-67981769Y60198868D01*
X-67981771Y60198869D01*
X-68040248Y60210500D01*
X-68040252Y60210500D01*
X-68179748Y60210500D01*
X-68179753Y60210500D01*
X-68238230Y60198869D01*
X-68238232Y60198868D01*
X-68241113Y60196942D01*
X-68248345Y60194678D01*
X-68249513Y60194194D01*
X-68249557Y60194299D01*
X-68307791Y60176067D01*
X-68375171Y60194554D01*
X-68378887Y60196942D01*
X-68381769Y60198868D01*
X-68381771Y60198869D01*
X-68440248Y60210500D01*
X-68440252Y60210500D01*
X-68579748Y60210500D01*
X-68579753Y60210500D01*
X-68638230Y60198869D01*
X-68638231Y60198868D01*
X-68704553Y60154553D01*
X-68748868Y60088231D01*
X-68748869Y60088230D01*
X-68760500Y60029753D01*
X-68760500Y59961417D01*
X-68780185Y59894378D01*
X-68818663Y59856338D01*
X-68827460Y59850827D01*
X-68865997Y59834864D01*
X-68887909Y59812953D01*
X-68899816Y59805492D01*
X-68920470Y59799685D01*
X-68939298Y59789404D01*
X-68949463Y59787632D01*
X-68956545Y59786700D01*
X-69008014Y59772909D01*
X-69045688Y59762814D01*
X-69045689Y59762814D01*
X-69045691Y59762813D01*
X-69045694Y59762812D01*
X-69125606Y59716674D01*
X-69125615Y59716667D01*
X-69190867Y59651415D01*
X-69190874Y59651406D01*
X-69237012Y59571494D01*
X-69237013Y59571491D01*
X-69260900Y59482344D01*
X-69260900Y59390058D01*
X-69259839Y59382000D01*
X-69261547Y59381776D01*
X-69262971Y59321751D01*
X-69302130Y59263886D01*
X-69366357Y59236378D01*
X-69381086Y59235500D01*
X-70240111Y59235500D01*
X-70307150Y59255185D01*
X-70352905Y59307989D01*
X-70353545Y59309413D01*
X-70381180Y59372000D01*
X-70381187Y59372016D01*
X-70457984Y59448813D01*
X-70457986Y59448814D01*
X-70557337Y59492682D01*
X-70581627Y59495500D01*
X-71008366Y59495500D01*
X-71008389Y59495498D01*
X-71032660Y59492683D01*
X-71032663Y59492682D01*
X-71132016Y59448814D01*
X-71208813Y59372017D01*
X-71252682Y59272665D01*
X-71252682Y59272663D01*
X-71255500Y59248375D01*
X-71255500Y58881635D01*
X-71255498Y58881612D01*
X-71252683Y58857341D01*
X-71252682Y58857338D01*
X-71208814Y58757985D01*
X-71208813Y58757984D01*
X-71132016Y58681187D01*
X-71032662Y58637318D01*
X-71008373Y58634500D01*
X-70581628Y58634501D01*
X-70557338Y58637318D01*
X-70457984Y58681187D01*
X-70440990Y58698181D01*
X-70414063Y58712885D01*
X-70388244Y58729477D01*
X-70382044Y58730369D01*
X-70379667Y58731666D01*
X-70353309Y58734500D01*
X-70329459Y58734500D01*
X-70262420Y58714815D01*
X-70216665Y58662011D01*
X-70206721Y58592853D01*
X-70209681Y58578421D01*
X-70226100Y58517144D01*
X-70226100Y58424856D01*
X-70203002Y58338652D01*
X-70202213Y58335710D01*
X-70202212Y58335707D01*
X-70156074Y58255795D01*
X-70156067Y58255786D01*
X-70147462Y58247181D01*
X-70113977Y58185858D01*
X-70118961Y58116166D01*
X-70160833Y58060233D01*
X-70226297Y58035816D01*
X-70235143Y58035500D01*
X-70297992Y58035500D01*
X-70390060Y57997364D01*
X-70390061Y57997363D01*
X-70526604Y57860819D01*
X-70587927Y57827334D01*
X-70614285Y57824500D01*
X-70975716Y57824500D01*
X-71042755Y57844185D01*
X-71063397Y57860819D01*
X-72833467Y59630890D01*
X-72866952Y59692213D01*
X-72861968Y59761905D01*
X-72820096Y59817838D01*
X-72817442Y59819771D01*
X-72742340Y59872899D01*
X-72717883Y59894373D01*
X-72597009Y60025320D01*
X-72577558Y60051413D01*
X-72486588Y60204652D01*
X-72472993Y60234224D01*
X-72415913Y60403043D01*
X-72408773Y60434796D01*
X-72395703Y60546604D01*
X-72388153Y60611192D01*
X-72387101Y60629244D01*
X-72387100Y60629259D01*
X-72387100Y60630592D01*
X-72387774Y60645051D01*
X-72404393Y60823001D01*
X-72411158Y60856061D01*
X-72466017Y61026993D01*
X-72479754Y61057814D01*
X-72570195Y61212887D01*
X-72590257Y61240019D01*
X-72712021Y61371931D01*
X-72737465Y61394098D01*
X-72737468Y61394101D01*
X-72884816Y61496633D01*
X-72884817Y61496634D01*
X-72884819Y61496635D01*
X-72914443Y61512789D01*
X-72914450Y61512792D01*
X-73080442Y61581125D01*
X-73080450Y61581128D01*
X-73112856Y61590509D01*
X-73112865Y61590511D01*
X-73173019Y61601028D01*
X-73235667Y61631964D01*
X-73271644Y61691859D01*
X-73269529Y61761696D01*
X-73229992Y61819304D01*
X-73175851Y61844793D01*
X-73042845Y61871246D01*
X-72941909Y61902597D01*
X-72778190Y61972978D01*
X-72778182Y61972982D01*
X-72685974Y62024662D01*
X-72540503Y62127572D01*
X-72540497Y62127576D01*
X-72461069Y62197316D01*
X-72340197Y62328261D01*
X-72277028Y62413001D01*
X-72186053Y62566249D01*
X-72186049Y62566255D01*
X-72141905Y62662283D01*
X-72141902Y62662291D01*
X-72084829Y62831091D01*
X-72084824Y62831110D01*
X-72064833Y62920000D01*
X-72983590Y62920000D01*
X-72933963Y63005956D01*
X-72905000Y63114048D01*
X-72905000Y63225952D01*
X-72933963Y63334044D01*
X-72983590Y63420000D01*
X-72061420Y63420000D01*
X-72061421Y63420001D01*
X-72078377Y63502865D01*
X-72133234Y63673793D01*
X-72133236Y63673799D01*
X-72177844Y63773886D01*
X-72177846Y63773890D01*
X-72268286Y63928961D01*
X-72333441Y64017076D01*
X-72455207Y64148991D01*
X-72537825Y64220966D01*
X-72537843Y64220979D01*
X-72685197Y64323516D01*
X-72706754Y64335271D01*
X-72756188Y64384648D01*
X-72771079Y64452912D01*
X-72746700Y64518391D01*
X-72708015Y64552307D01*
X-72685977Y64564659D01*
X-72540503Y64667572D01*
X-72540497Y64667576D01*
X-72461069Y64737316D01*
X-72340197Y64868261D01*
X-72277028Y64953001D01*
X-72186053Y65106249D01*
X-72186049Y65106255D01*
X-72141905Y65202283D01*
X-72141902Y65202291D01*
X-72084829Y65371091D01*
X-72084824Y65371110D01*
X-72064833Y65460000D01*
X-72983590Y65460000D01*
X-72933963Y65545956D01*
X-72905000Y65654048D01*
X-72905000Y65765952D01*
X-72933963Y65874044D01*
X-72983590Y65960000D01*
X-72061420Y65960000D01*
X-72061421Y65960001D01*
X-72078377Y66042865D01*
X-72133234Y66213793D01*
X-72133236Y66213799D01*
X-72177844Y66313886D01*
X-72177846Y66313890D01*
X-72268286Y66468961D01*
X-72333441Y66557076D01*
X-72455207Y66688991D01*
X-72537825Y66760966D01*
X-72537843Y66760979D01*
X-72685197Y66863516D01*
X-72781404Y66915977D01*
X-72781407Y66915978D01*
X-72947398Y66984310D01*
X-72947402Y66984311D01*
X-73052680Y67014791D01*
X-73177151Y67036551D01*
X-73239798Y67067486D01*
X-73275776Y67127381D01*
X-73273661Y67197219D01*
X-73234125Y67254826D01*
X-73179984Y67280316D01*
X-73111017Y67294032D01*
X-73079936Y67303686D01*
X-72916216Y67374067D01*
X-72887824Y67389980D01*
X-72742340Y67492899D01*
X-72717883Y67514373D01*
X-72597009Y67645320D01*
X-72577558Y67671413D01*
X-72486588Y67824652D01*
X-72472993Y67854224D01*
X-72465768Y67875591D01*
X-72427409Y67989044D01*
X-72415913Y68023043D01*
X-72408773Y68054796D01*
X-72390592Y68210332D01*
X-72388153Y68231192D01*
X-72387101Y68249244D01*
X-72387100Y68249259D01*
X-72387100Y68250592D01*
X-72387774Y68265051D01*
X-72404393Y68443001D01*
X-72411158Y68476061D01*
X-72438396Y68560929D01*
X-70678501Y68560929D01*
X-70653503Y68435262D01*
X-70653501Y68435256D01*
X-70604467Y68316876D01*
X-70604462Y68316867D01*
X-70533277Y68210332D01*
X-70533274Y68210328D01*
X-70442673Y68119727D01*
X-70442669Y68119724D01*
X-70336134Y68048539D01*
X-70336128Y68048536D01*
X-70336127Y68048535D01*
X-70217744Y67999499D01*
X-70217740Y67999499D01*
X-70217739Y67999498D01*
X-70092072Y67974500D01*
X-70092069Y67974500D01*
X-69963929Y67974500D01*
X-69878489Y67991496D01*
X-69838256Y67999499D01*
X-69719873Y68048535D01*
X-69613331Y68119724D01*
X-69522724Y68210331D01*
X-69451535Y68316873D01*
X-69402499Y68435256D01*
X-69377500Y68560931D01*
X-69377500Y69789069D01*
X-69377500Y69789072D01*
X-69402498Y69914739D01*
X-69402499Y69914740D01*
X-69402499Y69914744D01*
X-69449271Y70027662D01*
X-69451534Y70033125D01*
X-69451539Y70033134D01*
X-69522724Y70139669D01*
X-69522727Y70139673D01*
X-69613328Y70230274D01*
X-69613332Y70230277D01*
X-69719867Y70301462D01*
X-69719876Y70301467D01*
X-69838256Y70350501D01*
X-69838262Y70350503D01*
X-69963929Y70375500D01*
X-69963931Y70375500D01*
X-70092069Y70375500D01*
X-70092071Y70375500D01*
X-70217739Y70350503D01*
X-70217745Y70350501D01*
X-70336125Y70301467D01*
X-70336134Y70301462D01*
X-70442669Y70230277D01*
X-70442673Y70230274D01*
X-70533274Y70139673D01*
X-70533277Y70139669D01*
X-70604462Y70033134D01*
X-70604467Y70033125D01*
X-70653501Y69914745D01*
X-70653503Y69914739D01*
X-70678500Y69789072D01*
X-70678500Y69789069D01*
X-70678500Y68560931D01*
X-70678500Y68560929D01*
X-70678501Y68560929D01*
X-72438396Y68560929D01*
X-72466017Y68646993D01*
X-72479754Y68677814D01*
X-72570195Y68832887D01*
X-72590257Y68860019D01*
X-72712021Y68991931D01*
X-72712023Y68991933D01*
X-72737460Y69014094D01*
X-72737468Y69014101D01*
X-72884816Y69116633D01*
X-72884817Y69116634D01*
X-72884819Y69116635D01*
X-72914443Y69132789D01*
X-72961202Y69152038D01*
X-73080442Y69201125D01*
X-73080450Y69201128D01*
X-73112856Y69210509D01*
X-73112867Y69210512D01*
X-73289403Y69241375D01*
X-73289433Y69241379D01*
X-73316196Y69243700D01*
X-73316197Y69243700D01*
X-74175500Y69243700D01*
X-74242539Y69263385D01*
X-74288294Y69316189D01*
X-74299500Y69367700D01*
X-74299500Y69672300D01*
X-74279815Y69739339D01*
X-74227011Y69785094D01*
X-74175500Y69796300D01*
X-73316049Y69796300D01*
X-73285727Y69799286D01*
X-73285727Y69799287D01*
X-73285717Y69799287D01*
X-73111017Y69834032D01*
X-73079936Y69843686D01*
X-72927814Y69909082D01*
X-72927811Y69909082D01*
X-72921964Y69911597D01*
X-72916216Y69914067D01*
X-72887824Y69929980D01*
X-72742340Y70032899D01*
X-72717883Y70054373D01*
X-72597009Y70185320D01*
X-72577558Y70211413D01*
X-72486588Y70364652D01*
X-72472993Y70394224D01*
X-72457684Y70439500D01*
X-72415914Y70563041D01*
X-72415913Y70563043D01*
X-72408773Y70594796D01*
X-72398049Y70686535D01*
X-72388153Y70771192D01*
X-72387101Y70789244D01*
X-72387100Y70789259D01*
X-72387100Y70790592D01*
X-72387774Y70805051D01*
X-72404393Y70983001D01*
X-72411158Y71016061D01*
X-72466017Y71186993D01*
X-72479754Y71217814D01*
X-72570195Y71372887D01*
X-72590257Y71400019D01*
X-72712021Y71531931D01*
X-72737465Y71554098D01*
X-72737468Y71554101D01*
X-72884816Y71656633D01*
X-72884817Y71656634D01*
X-72884819Y71656635D01*
X-72914443Y71672789D01*
X-72914450Y71672792D01*
X-73080442Y71741125D01*
X-73080450Y71741128D01*
X-73112856Y71750509D01*
X-73112867Y71750512D01*
X-73289403Y71781375D01*
X-73289433Y71781379D01*
X-73316196Y71783700D01*
X-73316197Y71783700D01*
X-74175500Y71783700D01*
X-74242539Y71803385D01*
X-74288294Y71856189D01*
X-74299500Y71907700D01*
X-74299500Y72212300D01*
X-74279815Y72279339D01*
X-74227011Y72325094D01*
X-74175500Y72336300D01*
X-73316049Y72336300D01*
X-73285727Y72339286D01*
X-73285727Y72339287D01*
X-73285717Y72339287D01*
X-73111017Y72374032D01*
X-73079936Y72383686D01*
X-73079929Y72383690D01*
X-73079926Y72383690D01*
X-72917984Y72453307D01*
X-72848620Y72461700D01*
X-72785730Y72431259D01*
G37*
%TD.AperFunction*%
%TA.AperFunction,Conductor*%
G36*
X-58507657Y59755571D02*
G01*
X-58502018Y59753308D01*
X-58340075Y59683690D01*
X-58340069Y59683689D01*
X-58340064Y59683686D01*
X-58308983Y59674032D01*
X-58134283Y59639287D01*
X-58134276Y59639287D01*
X-58134274Y59639286D01*
X-58103951Y59636300D01*
X-57244500Y59636300D01*
X-57177461Y59616615D01*
X-57131706Y59563811D01*
X-57120500Y59512300D01*
X-57120500Y59207700D01*
X-57140185Y59140661D01*
X-57192989Y59094906D01*
X-57244500Y59083700D01*
X-58103804Y59083700D01*
X-58130568Y59081379D01*
X-58130598Y59081375D01*
X-58307134Y59050512D01*
X-58307145Y59050509D01*
X-58339551Y59041128D01*
X-58339559Y59041125D01*
X-58505551Y58972792D01*
X-58505552Y58972792D01*
X-58535185Y58956633D01*
X-58682533Y58854101D01*
X-58682541Y58854094D01*
X-58707978Y58831933D01*
X-58707979Y58831932D01*
X-58829744Y58700019D01*
X-58829749Y58700012D01*
X-58849804Y58672889D01*
X-58940245Y58517816D01*
X-58940249Y58517809D01*
X-58953982Y58486997D01*
X-58953985Y58486990D01*
X-59008844Y58316056D01*
X-59008844Y58316055D01*
X-59015605Y58283017D01*
X-59015606Y58283012D01*
X-59032226Y58105052D01*
X-59032227Y58105041D01*
X-59032899Y58090625D01*
X-59032900Y58090581D01*
X-59032900Y58088500D01*
X-59052585Y58021461D01*
X-59105389Y57975706D01*
X-59156900Y57964500D01*
X-61563392Y57964500D01*
X-61630431Y57984185D01*
X-61676186Y58036989D01*
X-61686130Y58106147D01*
X-61685009Y58112695D01*
X-61684500Y58115254D01*
X-61684500Y58254751D01*
X-61684501Y58254753D01*
X-61696132Y58313230D01*
X-61696133Y58313232D01*
X-61698055Y58316108D01*
X-61700319Y58323336D01*
X-61700806Y58324513D01*
X-61700701Y58324557D01*
X-61718934Y58382785D01*
X-61717531Y58403729D01*
X-61713369Y58430976D01*
X-61696133Y58456769D01*
X-61684500Y58515252D01*
X-61684500Y58619916D01*
X-61683077Y58629229D01*
X-61672112Y58652691D01*
X-61664815Y58677539D01*
X-61657560Y58683827D01*
X-61653493Y58692526D01*
X-61631581Y58706337D01*
X-61612011Y58723294D01*
X-61600811Y58725731D01*
X-61594384Y58729781D01*
X-61582668Y58729678D01*
X-61560500Y58734500D01*
X-60800174Y58734500D01*
X-60800172Y58734500D01*
X-60726388Y58765063D01*
X-60678936Y58774501D01*
X-60416634Y58774501D01*
X-60416628Y58774501D01*
X-60392338Y58777318D01*
X-60292984Y58821187D01*
X-60256128Y58858044D01*
X-60194807Y58891528D01*
X-60125116Y58886544D01*
X-60069182Y58844674D01*
X-60061066Y58832370D01*
X-60021469Y58763788D01*
X-59956212Y58698531D01*
X-59956209Y58698530D01*
X-59956206Y58698527D01*
X-59876294Y58652389D01*
X-59876293Y58652389D01*
X-59876288Y58652386D01*
X-59787144Y58628500D01*
X-59787142Y58628500D01*
X-59694858Y58628500D01*
X-59694856Y58628500D01*
X-59605712Y58652386D01*
X-59525788Y58698531D01*
X-59460531Y58763788D01*
X-59414386Y58843712D01*
X-59390500Y58932856D01*
X-59390500Y58932870D01*
X-59389570Y58939929D01*
X-59361307Y59003827D01*
X-59354334Y59011407D01*
X-58638670Y59727072D01*
X-58577349Y59760555D01*
X-58507657Y59755571D01*
G37*
%TD.AperFunction*%
%TA.AperFunction,Conductor*%
G36*
X-62441597Y62469855D02*
G01*
X-62434843Y62470706D01*
X-62409065Y62458389D01*
X-62382120Y62448892D01*
X-62375177Y62442197D01*
X-62371800Y62440583D01*
X-62367833Y62435114D01*
X-62356714Y62424392D01*
X-62347349Y62412344D01*
X-62324616Y62360859D01*
X-62249141Y62285384D01*
X-62248415Y62285064D01*
X-62242252Y62277135D01*
X-62232172Y62251536D01*
X-62218989Y62227394D01*
X-62219554Y62219495D01*
X-62216652Y62212125D01*
X-62222011Y62185146D01*
X-62223973Y62157702D01*
X-62228721Y62151361D01*
X-62230263Y62143593D01*
X-62252474Y62113355D01*
X-62313813Y62052017D01*
X-62357682Y61952665D01*
X-62357682Y61952663D01*
X-62360500Y61928375D01*
X-62360500Y61561635D01*
X-62360498Y61561612D01*
X-62357683Y61537341D01*
X-62357682Y61537338D01*
X-62313814Y61437985D01*
X-62313813Y61437984D01*
X-62237016Y61361187D01*
X-62137662Y61317318D01*
X-62113373Y61314500D01*
X-61875125Y61314501D01*
X-61845680Y61305856D01*
X-61815697Y61299333D01*
X-61810684Y61295580D01*
X-61808085Y61294817D01*
X-61787448Y61278187D01*
X-61625818Y61116558D01*
X-61592334Y61055236D01*
X-61589500Y61028878D01*
X-61589500Y60634285D01*
X-61609185Y60567246D01*
X-61625819Y60546604D01*
X-62263104Y59909319D01*
X-62324427Y59875834D01*
X-62350785Y59873000D01*
X-62535500Y59873000D01*
X-62602539Y59892685D01*
X-62648294Y59945489D01*
X-62659500Y59997000D01*
X-62659500Y60029751D01*
X-62659501Y60029753D01*
X-62671132Y60088230D01*
X-62671133Y60088231D01*
X-62715448Y60154553D01*
X-62781770Y60198868D01*
X-62781771Y60198869D01*
X-62840248Y60210500D01*
X-62840252Y60210500D01*
X-62979748Y60210500D01*
X-62979753Y60210500D01*
X-63038230Y60198869D01*
X-63038231Y60198868D01*
X-63104553Y60154553D01*
X-63148868Y60088231D01*
X-63148869Y60088230D01*
X-63160500Y60029753D01*
X-63160500Y59215252D01*
X-63150988Y59167427D01*
X-63151176Y59165329D01*
X-63150262Y59163433D01*
X-63154276Y59130701D01*
X-63157217Y59097836D01*
X-63158509Y59096174D01*
X-63158765Y59094083D01*
X-63179846Y59068707D01*
X-63200081Y59042659D01*
X-63202067Y59041959D01*
X-63203412Y59040339D01*
X-63234864Y59030390D01*
X-63265971Y59019416D01*
X-63268653Y59019701D01*
X-63270028Y59019265D01*
X-63277106Y59020597D01*
X-63305059Y59023560D01*
X-63313462Y59025839D01*
X-63314112Y59026214D01*
X-63375843Y59042755D01*
X-63376021Y59042803D01*
X-63405702Y59061017D01*
X-63435322Y59079072D01*
X-63435407Y59079246D01*
X-63435572Y59079347D01*
X-63450687Y59110701D01*
X-63465851Y59141919D01*
X-63465848Y59142153D01*
X-63465912Y59142286D01*
X-63465837Y59142903D01*
X-63465186Y59186672D01*
X-63459500Y59215252D01*
X-63459500Y60029748D01*
X-63459500Y62016877D01*
X-63439815Y62083916D01*
X-63423181Y62104558D01*
X-63179558Y62348181D01*
X-63118235Y62381666D01*
X-63091877Y62384500D01*
X-62645178Y62384500D01*
X-62601283Y62393232D01*
X-62601283Y62393233D01*
X-62601278Y62393233D01*
X-62551496Y62426496D01*
X-62551494Y62426500D01*
X-62542860Y62435132D01*
X-62539844Y62432116D01*
X-62535841Y62435464D01*
X-62516009Y62456029D01*
X-62509385Y62457597D01*
X-62504164Y62461964D01*
X-62475819Y62465539D01*
X-62448016Y62472117D01*
X-62441597Y62469855D01*
G37*
%TD.AperFunction*%
%TA.AperFunction,Conductor*%
G36*
X-59140655Y63325330D02*
G01*
X-59125873Y63326065D01*
X-59107807Y63315685D01*
X-59087817Y63309815D01*
X-59078127Y63298632D01*
X-59065292Y63291257D01*
X-59055706Y63272756D01*
X-59042062Y63257011D01*
X-59039403Y63241295D01*
X-59033146Y63229221D01*
X-59031393Y63193970D01*
X-59032226Y63185056D01*
X-59032227Y63185041D01*
X-59032899Y63170625D01*
X-59032900Y63170581D01*
X-59032900Y63169244D01*
X-59031848Y63151192D01*
X-59011229Y62974809D01*
X-59011225Y62974786D01*
X-59004088Y62943043D01*
X-59004087Y62943041D01*
X-58947012Y62774235D01*
X-58947011Y62774234D01*
X-58947009Y62774229D01*
X-58947007Y62774224D01*
X-58933412Y62744652D01*
X-58842442Y62591413D01*
X-58822991Y62565320D01*
X-58702817Y62435132D01*
X-58702114Y62434370D01*
X-58693147Y62426497D01*
X-58677660Y62412899D01*
X-58532176Y62309980D01*
X-58503784Y62294067D01*
X-58340064Y62223686D01*
X-58308983Y62214032D01*
X-58134283Y62179287D01*
X-58134276Y62179287D01*
X-58134274Y62179286D01*
X-58103951Y62176300D01*
X-57244500Y62176300D01*
X-57177461Y62156615D01*
X-57131706Y62103811D01*
X-57120500Y62052300D01*
X-57120500Y61747700D01*
X-57140185Y61680661D01*
X-57192989Y61634906D01*
X-57244500Y61623700D01*
X-58103804Y61623700D01*
X-58130568Y61621379D01*
X-58130598Y61621375D01*
X-58307134Y61590512D01*
X-58307145Y61590509D01*
X-58339551Y61581128D01*
X-58339559Y61581125D01*
X-58505551Y61512792D01*
X-58505552Y61512792D01*
X-58535185Y61496633D01*
X-58682533Y61394101D01*
X-58682541Y61394094D01*
X-58707978Y61371933D01*
X-58707979Y61371932D01*
X-58829744Y61240019D01*
X-58829749Y61240012D01*
X-58849804Y61212889D01*
X-58940245Y61057816D01*
X-58940249Y61057809D01*
X-58953982Y61026997D01*
X-58953985Y61026990D01*
X-59008844Y60856056D01*
X-59008844Y60856055D01*
X-59015605Y60823017D01*
X-59015606Y60823012D01*
X-59032226Y60645052D01*
X-59032227Y60645041D01*
X-59032899Y60630625D01*
X-59032900Y60630581D01*
X-59032900Y60629244D01*
X-59031848Y60611192D01*
X-59011229Y60434809D01*
X-59011225Y60434786D01*
X-59004088Y60403043D01*
X-59004087Y60403041D01*
X-58947009Y60234228D01*
X-58946713Y60233483D01*
X-58946697Y60233303D01*
X-58945966Y60231143D01*
X-58946480Y60230970D01*
X-58940243Y60163914D01*
X-58972412Y60101890D01*
X-58974263Y60099999D01*
X-59708572Y59365690D01*
X-59769895Y59332205D01*
X-59780063Y59330432D01*
X-59787145Y59329500D01*
X-59816064Y59321751D01*
X-59876288Y59305614D01*
X-59876289Y59305614D01*
X-59876291Y59305613D01*
X-59876294Y59305612D01*
X-59956206Y59259474D01*
X-59956219Y59259464D01*
X-59957826Y59257856D01*
X-59959515Y59256935D01*
X-59962658Y59254522D01*
X-59963035Y59255013D01*
X-60019151Y59224375D01*
X-60088842Y59229364D01*
X-60144773Y59271239D01*
X-60169186Y59336705D01*
X-60169501Y59345543D01*
X-60169501Y59388366D01*
X-60169501Y59388372D01*
X-60172318Y59412662D01*
X-60216187Y59512016D01*
X-60292984Y59588813D01*
X-60318277Y59599981D01*
X-60392337Y59632682D01*
X-60416627Y59635500D01*
X-60843366Y59635500D01*
X-60843389Y59635498D01*
X-60867660Y59632683D01*
X-60867663Y59632682D01*
X-60967016Y59588814D01*
X-61043813Y59512017D01*
X-61087682Y59412665D01*
X-61087682Y59412663D01*
X-61090500Y59388375D01*
X-61090500Y59359500D01*
X-61110185Y59292461D01*
X-61162989Y59246706D01*
X-61214500Y59235500D01*
X-61929039Y59235500D01*
X-61996078Y59255185D01*
X-62041833Y59307989D01*
X-62051777Y59377147D01*
X-62022752Y59440703D01*
X-62016720Y59447181D01*
X-61588067Y59875834D01*
X-61126636Y60337265D01*
X-61088500Y60429334D01*
X-61088500Y60528990D01*
X-61088500Y61233828D01*
X-61126636Y61325897D01*
X-61197103Y61396364D01*
X-61204168Y61403429D01*
X-61204175Y61403435D01*
X-61403182Y61602442D01*
X-61436667Y61663765D01*
X-61439501Y61690123D01*
X-61439501Y61928366D01*
X-61439501Y61928372D01*
X-61442318Y61952662D01*
X-61486187Y62052016D01*
X-61547526Y62113355D01*
X-61581011Y62174678D01*
X-61576027Y62244370D01*
X-61547526Y62288717D01*
X-61516243Y62320000D01*
X-61475384Y62360859D01*
X-61432270Y62458502D01*
X-61429500Y62482377D01*
X-61429501Y62837622D01*
X-61432270Y62861498D01*
X-61433189Y62863580D01*
X-61475381Y62959136D01*
X-61475383Y62959139D01*
X-61475384Y62959141D01*
X-61550859Y63034616D01*
X-61550865Y63034619D01*
X-61550867Y63034620D01*
X-61600571Y63056568D01*
X-61615357Y63069058D01*
X-61632861Y63077320D01*
X-61641498Y63091139D01*
X-61653947Y63101655D01*
X-61659634Y63120158D01*
X-61669891Y63136570D01*
X-61669686Y63152864D01*
X-61674473Y63168441D01*
X-61669255Y63187081D01*
X-61669010Y63206434D01*
X-61660029Y63220030D01*
X-61655634Y63235723D01*
X-61641166Y63248582D01*
X-61630497Y63264731D01*
X-61605220Y63280529D01*
X-61603409Y63282138D01*
X-61600625Y63283410D01*
X-61589330Y63288398D01*
X-61520053Y63297468D01*
X-61477246Y63282349D01*
X-61438886Y63260201D01*
X-61324309Y63229500D01*
X-61324306Y63229500D01*
X-61205694Y63229500D01*
X-61205691Y63229500D01*
X-61091114Y63260201D01*
X-60999860Y63312888D01*
X-60937860Y63329500D01*
X-59154856Y63329500D01*
X-59140655Y63325330D01*
G37*
%TD.AperFunction*%
%TA.AperFunction,Conductor*%
G36*
X-61829769Y70419815D02*
G01*
X-61784014Y70367011D01*
X-61774070Y70297853D01*
X-61803095Y70234297D01*
X-61809127Y70227819D01*
X-61897274Y70139673D01*
X-61897277Y70139669D01*
X-61968462Y70033134D01*
X-61968467Y70033125D01*
X-62017501Y69914745D01*
X-62017503Y69914739D01*
X-62042500Y69789072D01*
X-62042500Y69789069D01*
X-62042500Y68560931D01*
X-62042500Y68560929D01*
X-62042501Y68560929D01*
X-62017503Y68435262D01*
X-62017501Y68435256D01*
X-61968467Y68316876D01*
X-61968462Y68316867D01*
X-61897277Y68210332D01*
X-61897274Y68210328D01*
X-61806673Y68119727D01*
X-61806669Y68119724D01*
X-61700134Y68048539D01*
X-61700128Y68048536D01*
X-61700127Y68048535D01*
X-61581744Y67999499D01*
X-61581740Y67999499D01*
X-61581739Y67999498D01*
X-61456072Y67974500D01*
X-61456069Y67974500D01*
X-61327929Y67974500D01*
X-61242489Y67991496D01*
X-61202256Y67999499D01*
X-61083873Y68048535D01*
X-60977331Y68119724D01*
X-60886724Y68210331D01*
X-60815535Y68316873D01*
X-60766499Y68435256D01*
X-60741500Y68560931D01*
X-60741500Y69789069D01*
X-60741500Y69789072D01*
X-60766498Y69914739D01*
X-60766499Y69914740D01*
X-60766499Y69914744D01*
X-60813271Y70027662D01*
X-60815534Y70033125D01*
X-60815539Y70033134D01*
X-60886724Y70139669D01*
X-60886727Y70139673D01*
X-60974873Y70227819D01*
X-61008358Y70289142D01*
X-61003374Y70358834D01*
X-60961502Y70414767D01*
X-60896038Y70439184D01*
X-60887192Y70439500D01*
X-59047292Y70439500D01*
X-58980253Y70419815D01*
X-58934630Y70367301D01*
X-58933413Y70364654D01*
X-58933412Y70364652D01*
X-58842442Y70211413D01*
X-58822991Y70185320D01*
X-58702117Y70054373D01*
X-58677660Y70032899D01*
X-58532176Y69929980D01*
X-58503784Y69914067D01*
X-58340064Y69843686D01*
X-58308983Y69834032D01*
X-58308979Y69834032D01*
X-58308975Y69834030D01*
X-58240018Y69820316D01*
X-58178106Y69787933D01*
X-58143529Y69727218D01*
X-58147267Y69657449D01*
X-58188132Y69600775D01*
X-58242850Y69576551D01*
X-58367320Y69554791D01*
X-58367321Y69554791D01*
X-58472599Y69524311D01*
X-58472603Y69524310D01*
X-58638594Y69455978D01*
X-58638597Y69455977D01*
X-58734804Y69403516D01*
X-58882158Y69300979D01*
X-58882176Y69300966D01*
X-58964794Y69228991D01*
X-59086560Y69097076D01*
X-59151715Y69008961D01*
X-59242155Y68853890D01*
X-59242157Y68853886D01*
X-59286765Y68753799D01*
X-59286767Y68753793D01*
X-59341624Y68582865D01*
X-59358580Y68500001D01*
X-59358580Y68500000D01*
X-58436410Y68500000D01*
X-58486037Y68414044D01*
X-58515000Y68305952D01*
X-58515000Y68194048D01*
X-58486037Y68085956D01*
X-58436410Y68000000D01*
X-59355167Y68000000D01*
X-59335177Y67911110D01*
X-59335172Y67911091D01*
X-59278099Y67742291D01*
X-59278096Y67742283D01*
X-59233952Y67646255D01*
X-59233948Y67646249D01*
X-59142973Y67493001D01*
X-59079804Y67408261D01*
X-58958932Y67277316D01*
X-58879504Y67207576D01*
X-58879498Y67207572D01*
X-58734027Y67104662D01*
X-58641819Y67052982D01*
X-58641811Y67052978D01*
X-58478092Y66982597D01*
X-58377157Y66951246D01*
X-58244149Y66924793D01*
X-58182237Y66892410D01*
X-58147661Y66831695D01*
X-58151399Y66761926D01*
X-58192264Y66705252D01*
X-58246981Y66681028D01*
X-58307139Y66670511D01*
X-58307145Y66670509D01*
X-58339551Y66661128D01*
X-58339559Y66661125D01*
X-58505551Y66592792D01*
X-58505552Y66592792D01*
X-58535185Y66576633D01*
X-58682533Y66474101D01*
X-58682541Y66474094D01*
X-58707978Y66451933D01*
X-58707979Y66451932D01*
X-58829744Y66320019D01*
X-58829749Y66320012D01*
X-58849804Y66292889D01*
X-58940245Y66137816D01*
X-58940249Y66137809D01*
X-58953982Y66106997D01*
X-58953985Y66106990D01*
X-59008844Y65936056D01*
X-59008844Y65936055D01*
X-59015605Y65903017D01*
X-59015606Y65903012D01*
X-59032226Y65725052D01*
X-59032227Y65725041D01*
X-59032899Y65710625D01*
X-59032900Y65710581D01*
X-59032900Y65709244D01*
X-59031848Y65691192D01*
X-59011229Y65514809D01*
X-59011225Y65514786D01*
X-59004088Y65483043D01*
X-59004087Y65483041D01*
X-58947012Y65314235D01*
X-58947011Y65314234D01*
X-58947009Y65314229D01*
X-58947007Y65314224D01*
X-58933412Y65284652D01*
X-58842442Y65131413D01*
X-58822991Y65105320D01*
X-58702117Y64974373D01*
X-58677660Y64952899D01*
X-58532176Y64849980D01*
X-58503784Y64834067D01*
X-58340064Y64763686D01*
X-58308983Y64754032D01*
X-58134283Y64719287D01*
X-58134276Y64719287D01*
X-58134274Y64719286D01*
X-58103951Y64716300D01*
X-57244500Y64716300D01*
X-57177461Y64696615D01*
X-57131706Y64643811D01*
X-57120500Y64592300D01*
X-57120500Y64287700D01*
X-57140185Y64220661D01*
X-57192989Y64174906D01*
X-57244500Y64163700D01*
X-58103804Y64163700D01*
X-58130568Y64161379D01*
X-58130598Y64161375D01*
X-58307134Y64130512D01*
X-58307145Y64130509D01*
X-58339551Y64121128D01*
X-58339559Y64121125D01*
X-58505551Y64052792D01*
X-58505560Y64052788D01*
X-58518678Y64045634D01*
X-58578043Y64030500D01*
X-60937860Y64030500D01*
X-60999860Y64047113D01*
X-61091114Y64099799D01*
X-61205691Y64130500D01*
X-61324309Y64130500D01*
X-61393056Y64112080D01*
X-61438888Y64099799D01*
X-61477248Y64077651D01*
X-61545149Y64061180D01*
X-61589334Y64071605D01*
X-61648500Y64097730D01*
X-61648499Y64097730D01*
X-61672377Y64100500D01*
X-62127616Y64100500D01*
X-62127639Y64100498D01*
X-62151496Y64097731D01*
X-62151499Y64097731D01*
X-62249136Y64054620D01*
X-62249144Y64054614D01*
X-62297819Y64005938D01*
X-62359142Y63972453D01*
X-62428834Y63977437D01*
X-62484767Y64019309D01*
X-62509184Y64084773D01*
X-62509500Y64093619D01*
X-62509500Y64249823D01*
X-62518232Y64293718D01*
X-62518233Y64293719D01*
X-62518233Y64293722D01*
X-62551496Y64343504D01*
X-62551497Y64343505D01*
X-62601276Y64376766D01*
X-62601283Y64376769D01*
X-62645178Y64385500D01*
X-62645180Y64385500D01*
X-63374820Y64385500D01*
X-63374822Y64385500D01*
X-63418718Y64376769D01*
X-63418725Y64376766D01*
X-63468504Y64343505D01*
X-63468505Y64343504D01*
X-63501766Y64293725D01*
X-63501769Y64293718D01*
X-63510500Y64249823D01*
X-63510500Y62777123D01*
X-63519145Y62747683D01*
X-63525668Y62717696D01*
X-63529423Y62712681D01*
X-63530185Y62710084D01*
X-63546819Y62689442D01*
X-63697819Y62538442D01*
X-63759142Y62504957D01*
X-63828834Y62509941D01*
X-63884767Y62551813D01*
X-63909184Y62617277D01*
X-63909500Y62626123D01*
X-63909500Y64249823D01*
X-63918232Y64293718D01*
X-63918233Y64293719D01*
X-63918233Y64293722D01*
X-63951496Y64343504D01*
X-63951497Y64343505D01*
X-64001276Y64376766D01*
X-64001283Y64376769D01*
X-64045178Y64385500D01*
X-64045180Y64385500D01*
X-64122428Y64385500D01*
X-64125358Y64386361D01*
X-64128327Y64385640D01*
X-64158674Y64396143D01*
X-64189467Y64405185D01*
X-64191467Y64407493D01*
X-64194354Y64408492D01*
X-64214205Y64433734D01*
X-64235222Y64457989D01*
X-64235657Y64461012D01*
X-64237545Y64463413D01*
X-64240597Y64495368D01*
X-64245166Y64527147D01*
X-64243897Y64529927D01*
X-64244187Y64532966D01*
X-64229480Y64561497D01*
X-64216141Y64590703D01*
X-64213150Y64593174D01*
X-64212172Y64595069D01*
X-64184432Y64616886D01*
X-64165180Y64628000D01*
X-64106238Y64662030D01*
X-62853530Y65914738D01*
X-62807386Y65994662D01*
X-62801556Y66016420D01*
X-62783500Y66083806D01*
X-62783500Y67876194D01*
X-62807386Y67965338D01*
X-62807388Y67965341D01*
X-62807388Y67965343D01*
X-62810497Y67972850D01*
X-62807207Y67974213D01*
X-62819824Y68026294D01*
X-62817583Y68044547D01*
X-62816789Y68048535D01*
X-62809500Y68085180D01*
X-62809500Y69068628D01*
X-62789815Y69135667D01*
X-62737011Y69181422D01*
X-62717601Y69188401D01*
X-62617164Y69215312D01*
X-62497335Y69284495D01*
X-62399495Y69382335D01*
X-62330312Y69502164D01*
X-62294500Y69635817D01*
X-62294500Y69774183D01*
X-62330312Y69907836D01*
X-62399495Y70027665D01*
X-62497335Y70125505D01*
X-62497336Y70125506D01*
X-62497339Y70125508D01*
X-62617162Y70194687D01*
X-62617163Y70194688D01*
X-62617164Y70194688D01*
X-62621040Y70195727D01*
X-62623939Y70197494D01*
X-62624671Y70197797D01*
X-62624624Y70197912D01*
X-62680697Y70232091D01*
X-62711225Y70294938D01*
X-62702930Y70364314D01*
X-62658444Y70418191D01*
X-62591892Y70439465D01*
X-62588942Y70439500D01*
X-61896808Y70439500D01*
X-61829769Y70419815D01*
G37*
%TD.AperFunction*%
%TA.AperFunction,Conductor*%
G36*
X-73755000Y65654048D02*
G01*
X-73726037Y65545956D01*
X-73670084Y65449044D01*
X-73590956Y65369916D01*
X-73494044Y65313963D01*
X-73385952Y65285000D01*
X-73321300Y65285000D01*
X-73321300Y63595000D01*
X-73385952Y63595000D01*
X-73494044Y63566037D01*
X-73590956Y63510084D01*
X-73670084Y63430956D01*
X-73726037Y63334044D01*
X-73755000Y63225952D01*
X-73755000Y63186943D01*
X-73764339Y63189685D01*
X-73810094Y63242489D01*
X-73821300Y63294000D01*
X-73821300Y65586000D01*
X-73801615Y65653039D01*
X-73755000Y65693432D01*
X-73755000Y65654048D01*
G37*
%TD.AperFunction*%
%TA.AperFunction,Conductor*%
G36*
X-66822073Y67929815D02*
G01*
X-66776318Y67877011D01*
X-66766374Y67807853D01*
X-66775678Y67775413D01*
X-66812730Y67691501D01*
X-66815500Y67667625D01*
X-66815500Y67312385D01*
X-66815498Y67312362D01*
X-66812731Y67288505D01*
X-66812731Y67288502D01*
X-66769620Y67190865D01*
X-66769617Y67190861D01*
X-66769616Y67190859D01*
X-66694141Y67115384D01*
X-66656426Y67098731D01*
X-66644430Y67093434D01*
X-66591054Y67048348D01*
X-66570527Y66981562D01*
X-66589366Y66914280D01*
X-66641589Y66867863D01*
X-66644430Y66866566D01*
X-66694137Y66844618D01*
X-66694139Y66844617D01*
X-66694141Y66844616D01*
X-66694142Y66844616D01*
X-66694144Y66844614D01*
X-66769614Y66769144D01*
X-66769619Y66769137D01*
X-66812730Y66671501D01*
X-66815500Y66647625D01*
X-66815500Y66292385D01*
X-66815498Y66292362D01*
X-66812731Y66268505D01*
X-66812731Y66268502D01*
X-66769620Y66170865D01*
X-66769614Y66170857D01*
X-66700745Y66101988D01*
X-66667260Y66040665D01*
X-66671550Y65980686D01*
X-66669510Y65980139D01*
X-66671614Y65972289D01*
X-66671614Y65972288D01*
X-66695500Y65883144D01*
X-66695500Y65790856D01*
X-66673835Y65710000D01*
X-66671613Y65701710D01*
X-66671612Y65701707D01*
X-66625474Y65621795D01*
X-66625471Y65621791D01*
X-66625469Y65621788D01*
X-66560212Y65556531D01*
X-66525038Y65536223D01*
X-66504537Y65524386D01*
X-66456323Y65473818D01*
X-66443101Y65405211D01*
X-66469070Y65340347D01*
X-66525984Y65299819D01*
X-66566539Y65293000D01*
X-67675501Y65293000D01*
X-67742540Y65312685D01*
X-67788295Y65365489D01*
X-67799501Y65417000D01*
X-67799501Y65499857D01*
X-67799501Y65499864D01*
X-67800721Y65510386D01*
X-67802414Y65524988D01*
X-67802415Y65524990D01*
X-67802415Y65524991D01*
X-67847794Y65627765D01*
X-67899182Y65679153D01*
X-67932666Y65740477D01*
X-67935500Y65766834D01*
X-67935500Y66945501D01*
X-67915815Y67012540D01*
X-67863011Y67058295D01*
X-67811505Y67069501D01*
X-67387378Y67069501D01*
X-67363502Y67072270D01*
X-67265865Y67115381D01*
X-67265864Y67115382D01*
X-67265859Y67115384D01*
X-67190384Y67190859D01*
X-67147270Y67288502D01*
X-67144500Y67312377D01*
X-67144501Y67667622D01*
X-67144941Y67671413D01*
X-67147269Y67691495D01*
X-67147272Y67691501D01*
X-67184324Y67775415D01*
X-67188767Y67809351D01*
X-67193626Y67843147D01*
X-67193289Y67843887D01*
X-67193394Y67844692D01*
X-67178810Y67875591D01*
X-67164601Y67906703D01*
X-67163917Y67907143D01*
X-67163570Y67907877D01*
X-67134593Y67925988D01*
X-67105823Y67944477D01*
X-67104768Y67944629D01*
X-67104321Y67944908D01*
X-67070888Y67949500D01*
X-66889112Y67949500D01*
X-66822073Y67929815D01*
G37*
%TD.AperFunction*%
%TA.AperFunction,Conductor*%
G36*
X-64476187Y67511700D02*
G01*
X-64462855Y67513616D01*
X-64442712Y67504417D01*
X-64421074Y67499710D01*
X-64403351Y67486443D01*
X-64399299Y67484592D01*
X-64392820Y67478559D01*
X-64311819Y67397558D01*
X-64278334Y67336235D01*
X-64276141Y67315925D01*
X-64275706Y67315950D01*
X-64275500Y67312378D01*
X-64272731Y67288505D01*
X-64272731Y67288502D01*
X-64229620Y67190865D01*
X-64229617Y67190861D01*
X-64229616Y67190859D01*
X-64154141Y67115384D01*
X-64154138Y67115383D01*
X-64154137Y67115382D01*
X-64056501Y67072271D01*
X-64056500Y67072271D01*
X-64056498Y67072270D01*
X-64032623Y67069500D01*
X-63608500Y67069501D01*
X-63541461Y67049817D01*
X-63495706Y66997013D01*
X-63484500Y66945501D01*
X-63484500Y66326494D01*
X-63504185Y66259455D01*
X-63520819Y66238813D01*
X-64430313Y65329319D01*
X-64491636Y65295834D01*
X-64517994Y65293000D01*
X-64853461Y65293000D01*
X-64920500Y65312685D01*
X-64966255Y65365489D01*
X-64976199Y65434647D01*
X-64947174Y65498203D01*
X-64915463Y65524386D01*
X-64901781Y65532287D01*
X-64859788Y65556531D01*
X-64794531Y65621788D01*
X-64748386Y65701712D01*
X-64724500Y65790856D01*
X-64724500Y65883144D01*
X-64748386Y65972288D01*
X-64748387Y65972290D01*
X-64750490Y65980139D01*
X-64747642Y65980903D01*
X-64753609Y66036298D01*
X-64722348Y66098784D01*
X-64719311Y66101933D01*
X-64650384Y66170859D01*
X-64607270Y66268502D01*
X-64604500Y66292377D01*
X-64604501Y66647622D01*
X-64607270Y66671498D01*
X-64607271Y66671501D01*
X-64650381Y66769136D01*
X-64650383Y66769139D01*
X-64650384Y66769141D01*
X-64725859Y66844616D01*
X-64749413Y66855016D01*
X-64775572Y66866567D01*
X-64828947Y66911654D01*
X-64849474Y66978440D01*
X-64830635Y67045722D01*
X-64778411Y67092138D01*
X-64775656Y67093397D01*
X-64725859Y67115384D01*
X-64650384Y67190859D01*
X-64607270Y67288502D01*
X-64604500Y67312377D01*
X-64604501Y67390879D01*
X-64598263Y67412123D01*
X-64596683Y67434212D01*
X-64588611Y67444995D01*
X-64584817Y67457916D01*
X-64568082Y67472418D01*
X-64554811Y67490145D01*
X-64542194Y67494852D01*
X-64532014Y67503672D01*
X-64510094Y67506824D01*
X-64489347Y67514562D01*
X-64476187Y67511700D01*
G37*
%TD.AperFunction*%
%TD*%
M02*
