M48
; DRILL file {KiCad 9.0.7} date 2026-01-28T18:20:07-0500
; FORMAT={-:-/ absolute / inch / decimal}
; #@! TF.CreationDate,2026-01-28T18:20:07-05:00
; #@! TF.GenerationSoftware,Kicad,Pcbnew,9.0.7
; #@! TF.FileFunction,Plated,1,2,PTH
FMAT,2
INCH
; #@! TA.AperFunction,Plated,PTH,ComponentDrill
T1C0.0098
; #@! TA.AperFunction,Plated,PTH,ViaDrill
T2C0.0118
; #@! TA.AperFunction,Plated,PTH,ViaDrill
T3C0.0138
; #@! TA.AperFunction,Plated,PTH,ComponentDrill
T4C0.0236
; #@! TA.AperFunction,Plated,PTH,ComponentDrill
T5C0.0335
; #@! TA.AperFunction,Plated,PTH,ComponentDrill
T6C0.0669
%
G90
G05
T1
X-2.6411Y2.2661
X-2.6411Y2.212
X-2.6411Y2.1579
X-2.587Y2.2661
X-2.587Y2.212
X-2.587Y2.1579
X-2.5329Y2.2661
X-2.5329Y2.212
X-2.5329Y2.1579
T2
X-2.817Y2.232
X-2.8131Y2.1271
X-2.807Y2.302
X-2.767Y1.736
X-2.763Y2.34
X-2.762Y2.042
X-2.76Y2.063
X-2.751Y2.302
X-2.74Y2.007
X-2.713Y2.34
X-2.712Y2.592
X-2.709Y2.083
X-2.705Y1.73
X-2.698Y2.291
X-2.696Y2.147
X-2.693Y2.108
X-2.6926Y2.0445
X-2.691Y1.918
X-2.69Y2.225
X-2.682Y2.2037
X-2.682Y2.183
X-2.6792Y2.135
X-2.673Y2.038
X-2.665Y2.315
X-2.657Y2.592
X-2.626Y2.533
X-2.617Y1.957
X-2.612Y2.592
X-2.605Y2.117
X-2.582Y1.992
X-2.5766Y2.3187
X-2.569Y2.043
X-2.568Y2.117
X-2.567Y2.532
X-2.562Y2.592
X-2.556Y2.317
X-2.549Y2.037
X-2.527Y2.597
X-2.517Y2.542
X-2.5083Y2.48
X-2.498Y2.311
X-2.491Y2.208
X-2.488Y2.377
X-2.487Y2.037
X-2.481Y2.244
X-2.477Y2.292
X-2.4598Y2.4492
X-2.447Y2.077
X-2.4246Y2.1511
X-2.424Y2.114
X-2.424Y2.0933
X-2.4152Y2.1327
X-2.3598Y2.2335
X-2.357Y2.537
X-2.357Y2.477
X-2.357Y2.347
X-2.357Y2.292
X-2.352Y2.322
X-2.331Y2.205
T3
X-2.717Y2.657
X-2.6008Y2.3105
X-2.572Y2.507
X-2.457Y2.657
X-2.412Y2.5071
T5
X-2.887Y2.887
X-2.887Y2.787
X-2.887Y2.687
X-2.887Y2.587
X-2.887Y2.487
X-2.887Y2.387
X-2.887Y2.287
X-2.887Y2.187
X-2.887Y2.087
X-2.887Y1.987
X-2.887Y1.887
X-2.887Y1.787
X-2.887Y1.687
X-2.787Y1.687
X-2.687Y1.687
X-2.587Y1.687
X-2.487Y1.687
X-2.387Y1.687
X-2.287Y2.887
X-2.287Y2.787
X-2.287Y2.687
X-2.287Y2.587
X-2.287Y2.487
X-2.287Y2.387
X-2.287Y2.287
X-2.287Y2.187
X-2.287Y2.087
X-2.287Y1.987
X-2.287Y1.887
X-2.287Y1.787
X-2.287Y1.687
T6
X-2.9488Y2.887
X-2.9488Y2.787
X-2.9488Y2.687
X-2.9488Y2.587
X-2.9488Y2.487
X-2.9488Y2.387
X-2.9488Y2.287
X-2.9488Y2.187
X-2.9488Y2.087
X-2.9488Y1.987
X-2.9488Y1.887
X-2.9488Y1.787
X-2.9488Y1.687
X-2.787Y1.6252
X-2.687Y1.6252
X-2.587Y1.6252
X-2.487Y1.6252
X-2.387Y1.6252
X-2.2252Y2.887
X-2.2252Y2.787
X-2.2252Y2.687
X-2.2252Y2.587
X-2.2252Y2.487
X-2.2252Y2.387
X-2.2252Y2.287
X-2.2252Y2.187
X-2.2252Y2.087
X-2.2252Y1.987
X-2.2252Y1.887
X-2.2252Y1.787
X-2.2252Y1.687
T4
G00X-2.757Y2.8762
M15
G01X-2.757Y2.8998
M16
G05
G00X-2.757Y2.7018
M15
G01X-2.757Y2.7451
M16
G05
G00X-2.417Y2.8762
M15
G01X-2.417Y2.8998
M16
G05
G00X-2.417Y2.7018
M15
G01X-2.417Y2.7451
M16
G05
M30
